<svg xmlns="http://www.w3.org/2000/svg" xmlns:xlink="http://www.w3.org/1999/xlink" width="500" zoomAndPan="magnify" viewBox="0 0 375 374.999991" height="500" preserveAspectRatio="xMidYMid meet" version="1.0"><defs><g/><linearGradient x1="0" gradientTransform="matrix(0.75, 0, 0, 0.75, 0.0000045, 0)" y1="0" x2="499.999979" gradientUnits="userSpaceOnUse" y2="499.999979" id="da2debd77a"><stop stop-opacity="1" stop-color="rgb(69.799805%, 2.349854%, 60.778809%)" offset="0"/><stop stop-opacity="1" stop-color="rgb(69.613647%, 2.354431%, 60.838318%)" offset="0.0078125"/><stop stop-opacity="1" stop-color="rgb(69.242859%, 2.363586%, 60.958862%)" offset="0.015625"/><stop stop-opacity="1" stop-color="rgb(68.87207%, 2.372742%, 61.077881%)" offset="0.0234375"/><stop stop-opacity="1" stop-color="rgb(68.501282%, 2.381897%, 61.196899%)" offset="0.03125"/><stop stop-opacity="1" stop-color="rgb(68.130493%, 2.391052%, 61.317444%)" offset="0.0390625"/><stop stop-opacity="1" stop-color="rgb(67.759705%, 2.400208%, 61.436462%)" offset="0.046875"/><stop stop-opacity="1" stop-color="rgb(67.388916%, 2.409363%, 61.555481%)" offset="0.0546875"/><stop stop-opacity="1" stop-color="rgb(67.018127%, 2.418518%, 61.676025%)" offset="0.0625"/><stop stop-opacity="1" stop-color="rgb(66.647339%, 2.427673%, 61.795044%)" offset="0.0703125"/><stop stop-opacity="1" stop-color="rgb(66.27655%, 2.436829%, 61.914062%)" offset="0.078125"/><stop stop-opacity="1" stop-color="rgb(65.905762%, 2.445984%, 62.034607%)" offset="0.0859375"/><stop stop-opacity="1" stop-color="rgb(65.534973%, 2.455139%, 62.153625%)" offset="0.09375"/><stop stop-opacity="1" stop-color="rgb(65.164185%, 2.464294%, 62.272644%)" offset="0.101562"/><stop stop-opacity="1" stop-color="rgb(64.793396%, 2.47345%, 62.393188%)" offset="0.109375"/><stop stop-opacity="1" stop-color="rgb(64.422607%, 2.482605%, 62.512207%)" offset="0.117188"/><stop stop-opacity="1" stop-color="rgb(64.053345%, 2.49176%, 62.631226%)" offset="0.125"/><stop stop-opacity="1" stop-color="rgb(63.682556%, 2.500916%, 62.75177%)" offset="0.132812"/><stop stop-opacity="1" stop-color="rgb(63.311768%, 2.510071%, 62.870789%)" offset="0.140625"/><stop stop-opacity="1" stop-color="rgb(62.940979%, 2.519226%, 62.989807%)" offset="0.148437"/><stop stop-opacity="1" stop-color="rgb(62.57019%, 2.528381%, 63.110352%)" offset="0.15625"/><stop stop-opacity="1" stop-color="rgb(62.199402%, 2.537537%, 63.22937%)" offset="0.164062"/><stop stop-opacity="1" stop-color="rgb(61.828613%, 2.546692%, 63.348389%)" offset="0.171875"/><stop stop-opacity="1" stop-color="rgb(61.457825%, 2.557373%, 63.468933%)" offset="0.179687"/><stop stop-opacity="1" stop-color="rgb(61.087036%, 2.566528%, 63.587952%)" offset="0.1875"/><stop stop-opacity="1" stop-color="rgb(60.716248%, 2.575684%, 63.70697%)" offset="0.195312"/><stop stop-opacity="1" stop-color="rgb(60.345459%, 2.584839%, 63.827515%)" offset="0.203125"/><stop stop-opacity="1" stop-color="rgb(59.97467%, 2.593994%, 63.946533%)" offset="0.210938"/><stop stop-opacity="1" stop-color="rgb(59.603882%, 2.603149%, 64.065552%)" offset="0.21875"/><stop stop-opacity="1" stop-color="rgb(59.233093%, 2.612305%, 64.186096%)" offset="0.226562"/><stop stop-opacity="1" stop-color="rgb(58.862305%, 2.62146%, 64.305115%)" offset="0.234375"/><stop stop-opacity="1" stop-color="rgb(58.491516%, 2.630615%, 64.424133%)" offset="0.242188"/><stop stop-opacity="1" stop-color="rgb(58.120728%, 2.639771%, 64.544678%)" offset="0.25"/><stop stop-opacity="1" stop-color="rgb(57.749939%, 2.648926%, 64.663696%)" offset="0.257812"/><stop stop-opacity="1" stop-color="rgb(57.380676%, 2.658081%, 64.782715%)" offset="0.265625"/><stop stop-opacity="1" stop-color="rgb(57.009888%, 2.667236%, 64.903259%)" offset="0.273437"/><stop stop-opacity="1" stop-color="rgb(56.639099%, 2.676392%, 65.022278%)" offset="0.28125"/><stop stop-opacity="1" stop-color="rgb(56.268311%, 2.685547%, 65.141296%)" offset="0.289062"/><stop stop-opacity="1" stop-color="rgb(55.897522%, 2.694702%, 65.261841%)" offset="0.296875"/><stop stop-opacity="1" stop-color="rgb(55.526733%, 2.703857%, 65.380859%)" offset="0.304687"/><stop stop-opacity="1" stop-color="rgb(55.155945%, 2.713013%, 65.499878%)" offset="0.3125"/><stop stop-opacity="1" stop-color="rgb(54.785156%, 2.722168%, 65.620422%)" offset="0.320312"/><stop stop-opacity="1" stop-color="rgb(54.414368%, 2.731323%, 65.739441%)" offset="0.328125"/><stop stop-opacity="1" stop-color="rgb(54.043579%, 2.740479%, 65.858459%)" offset="0.335937"/><stop stop-opacity="1" stop-color="rgb(53.672791%, 2.749634%, 65.979004%)" offset="0.34375"/><stop stop-opacity="1" stop-color="rgb(53.302002%, 2.758789%, 66.098022%)" offset="0.351562"/><stop stop-opacity="1" stop-color="rgb(52.931213%, 2.767944%, 66.217041%)" offset="0.359375"/><stop stop-opacity="1" stop-color="rgb(52.560425%, 2.778625%, 66.337585%)" offset="0.367187"/><stop stop-opacity="1" stop-color="rgb(52.189636%, 2.787781%, 66.456604%)" offset="0.375"/><stop stop-opacity="1" stop-color="rgb(51.818848%, 2.796936%, 66.575623%)" offset="0.382812"/><stop stop-opacity="1" stop-color="rgb(51.448059%, 2.806091%, 66.696167%)" offset="0.390625"/><stop stop-opacity="1" stop-color="rgb(51.077271%, 2.815247%, 66.815186%)" offset="0.398438"/><stop stop-opacity="1" stop-color="rgb(50.708008%, 2.824402%, 66.934204%)" offset="0.40625"/><stop stop-opacity="1" stop-color="rgb(50.337219%, 2.833557%, 67.054749%)" offset="0.414062"/><stop stop-opacity="1" stop-color="rgb(49.966431%, 2.842712%, 67.173767%)" offset="0.421875"/><stop stop-opacity="1" stop-color="rgb(49.595642%, 2.851868%, 67.292786%)" offset="0.429688"/><stop stop-opacity="1" stop-color="rgb(49.224854%, 2.861023%, 67.41333%)" offset="0.4375"/><stop stop-opacity="1" stop-color="rgb(48.854065%, 2.870178%, 67.532349%)" offset="0.445312"/><stop stop-opacity="1" stop-color="rgb(48.483276%, 2.879333%, 67.651367%)" offset="0.453125"/><stop stop-opacity="1" stop-color="rgb(48.112488%, 2.888489%, 67.771912%)" offset="0.460938"/><stop stop-opacity="1" stop-color="rgb(47.741699%, 2.897644%, 67.89093%)" offset="0.46875"/><stop stop-opacity="1" stop-color="rgb(47.370911%, 2.906799%, 68.009949%)" offset="0.476562"/><stop stop-opacity="1" stop-color="rgb(47.000122%, 2.915955%, 68.130493%)" offset="0.484375"/><stop stop-opacity="1" stop-color="rgb(46.629333%, 2.92511%, 68.249512%)" offset="0.492188"/><stop stop-opacity="1" stop-color="rgb(46.258545%, 2.934265%, 68.36853%)" offset="0.5"/><stop stop-opacity="1" stop-color="rgb(45.887756%, 2.94342%, 68.489075%)" offset="0.507812"/><stop stop-opacity="1" stop-color="rgb(45.516968%, 2.952576%, 68.608093%)" offset="0.515625"/><stop stop-opacity="1" stop-color="rgb(45.146179%, 2.961731%, 68.727112%)" offset="0.523437"/><stop stop-opacity="1" stop-color="rgb(44.775391%, 2.970886%, 68.847656%)" offset="0.53125"/><stop stop-opacity="1" stop-color="rgb(44.404602%, 2.980042%, 68.966675%)" offset="0.539062"/><stop stop-opacity="1" stop-color="rgb(44.035339%, 2.989197%, 69.085693%)" offset="0.546875"/><stop stop-opacity="1" stop-color="rgb(43.664551%, 2.999878%, 69.206238%)" offset="0.554687"/><stop stop-opacity="1" stop-color="rgb(43.293762%, 3.009033%, 69.325256%)" offset="0.5625"/><stop stop-opacity="1" stop-color="rgb(42.922974%, 3.018188%, 69.444275%)" offset="0.570312"/><stop stop-opacity="1" stop-color="rgb(42.552185%, 3.027344%, 69.564819%)" offset="0.578125"/><stop stop-opacity="1" stop-color="rgb(42.181396%, 3.036499%, 69.683838%)" offset="0.585937"/><stop stop-opacity="1" stop-color="rgb(41.810608%, 3.045654%, 69.802856%)" offset="0.59375"/><stop stop-opacity="1" stop-color="rgb(41.439819%, 3.05481%, 69.923401%)" offset="0.601562"/><stop stop-opacity="1" stop-color="rgb(41.069031%, 3.063965%, 70.042419%)" offset="0.609375"/><stop stop-opacity="1" stop-color="rgb(40.698242%, 3.07312%, 70.161438%)" offset="0.617187"/><stop stop-opacity="1" stop-color="rgb(40.327454%, 3.082275%, 70.281982%)" offset="0.625"/><stop stop-opacity="1" stop-color="rgb(39.956665%, 3.091431%, 70.401001%)" offset="0.632812"/><stop stop-opacity="1" stop-color="rgb(39.585876%, 3.100586%, 70.52002%)" offset="0.640625"/><stop stop-opacity="1" stop-color="rgb(39.215088%, 3.109741%, 70.640564%)" offset="0.648437"/><stop stop-opacity="1" stop-color="rgb(38.844299%, 3.118896%, 70.759583%)" offset="0.65625"/><stop stop-opacity="1" stop-color="rgb(38.473511%, 3.128052%, 70.880127%)" offset="0.664062"/><stop stop-opacity="1" stop-color="rgb(38.102722%, 3.137207%, 70.999146%)" offset="0.671875"/><stop stop-opacity="1" stop-color="rgb(37.733459%, 3.146362%, 71.118164%)" offset="0.679687"/><stop stop-opacity="1" stop-color="rgb(37.362671%, 3.155518%, 71.238708%)" offset="0.6875"/><stop stop-opacity="1" stop-color="rgb(36.991882%, 3.164673%, 71.357727%)" offset="0.695312"/><stop stop-opacity="1" stop-color="rgb(36.621094%, 3.173828%, 71.476746%)" offset="0.703125"/><stop stop-opacity="1" stop-color="rgb(36.250305%, 3.182983%, 71.59729%)" offset="0.710937"/><stop stop-opacity="1" stop-color="rgb(35.879517%, 3.192139%, 71.716309%)" offset="0.71875"/><stop stop-opacity="1" stop-color="rgb(35.508728%, 3.201294%, 71.835327%)" offset="0.726562"/><stop stop-opacity="1" stop-color="rgb(35.137939%, 3.210449%, 71.955872%)" offset="0.734375"/><stop stop-opacity="1" stop-color="rgb(34.767151%, 3.22113%, 72.07489%)" offset="0.742187"/><stop stop-opacity="1" stop-color="rgb(34.396362%, 3.230286%, 72.193909%)" offset="0.75"/><stop stop-opacity="1" stop-color="rgb(34.025574%, 3.239441%, 72.314453%)" offset="0.757812"/><stop stop-opacity="1" stop-color="rgb(33.654785%, 3.248596%, 72.433472%)" offset="0.765625"/><stop stop-opacity="1" stop-color="rgb(33.283997%, 3.257751%, 72.55249%)" offset="0.773438"/><stop stop-opacity="1" stop-color="rgb(32.913208%, 3.266907%, 72.673035%)" offset="0.78125"/><stop stop-opacity="1" stop-color="rgb(32.542419%, 3.276062%, 72.792053%)" offset="0.789062"/><stop stop-opacity="1" stop-color="rgb(32.171631%, 3.285217%, 72.911072%)" offset="0.796875"/><stop stop-opacity="1" stop-color="rgb(31.800842%, 3.294373%, 73.031616%)" offset="0.804688"/><stop stop-opacity="1" stop-color="rgb(31.430054%, 3.303528%, 73.150635%)" offset="0.8125"/><stop stop-opacity="1" stop-color="rgb(31.060791%, 3.312683%, 73.269653%)" offset="0.820312"/><stop stop-opacity="1" stop-color="rgb(30.690002%, 3.321838%, 73.390198%)" offset="0.828125"/><stop stop-opacity="1" stop-color="rgb(30.319214%, 3.330994%, 73.509216%)" offset="0.835938"/><stop stop-opacity="1" stop-color="rgb(29.948425%, 3.340149%, 73.628235%)" offset="0.84375"/><stop stop-opacity="1" stop-color="rgb(29.577637%, 3.349304%, 73.748779%)" offset="0.851562"/><stop stop-opacity="1" stop-color="rgb(29.206848%, 3.358459%, 73.867798%)" offset="0.859375"/><stop stop-opacity="1" stop-color="rgb(28.83606%, 3.367615%, 73.986816%)" offset="0.867188"/><stop stop-opacity="1" stop-color="rgb(28.465271%, 3.37677%, 74.107361%)" offset="0.875"/><stop stop-opacity="1" stop-color="rgb(28.094482%, 3.385925%, 74.226379%)" offset="0.882812"/><stop stop-opacity="1" stop-color="rgb(27.723694%, 3.395081%, 74.345398%)" offset="0.890625"/><stop stop-opacity="1" stop-color="rgb(27.352905%, 3.404236%, 74.465942%)" offset="0.898438"/><stop stop-opacity="1" stop-color="rgb(26.982117%, 3.413391%, 74.584961%)" offset="0.90625"/><stop stop-opacity="1" stop-color="rgb(26.611328%, 3.422546%, 74.703979%)" offset="0.914062"/><stop stop-opacity="1" stop-color="rgb(26.24054%, 3.431702%, 74.824524%)" offset="0.921875"/><stop stop-opacity="1" stop-color="rgb(25.869751%, 3.442383%, 74.943542%)" offset="0.929688"/><stop stop-opacity="1" stop-color="rgb(25.498962%, 3.451538%, 75.062561%)" offset="0.9375"/><stop stop-opacity="1" stop-color="rgb(25.128174%, 3.460693%, 75.183105%)" offset="0.945312"/><stop stop-opacity="1" stop-color="rgb(24.757385%, 3.469849%, 75.302124%)" offset="0.953125"/><stop stop-opacity="1" stop-color="rgb(24.388123%, 3.479004%, 75.421143%)" offset="0.960938"/><stop stop-opacity="1" stop-color="rgb(24.017334%, 3.488159%, 75.541687%)" offset="0.96875"/><stop stop-opacity="1" stop-color="rgb(23.646545%, 3.497314%, 75.660706%)" offset="0.976562"/><stop stop-opacity="1" stop-color="rgb(23.275757%, 3.50647%, 75.779724%)" offset="0.984375"/><stop stop-opacity="1" stop-color="rgb(22.904968%, 3.515625%, 75.900269%)" offset="0.992188"/><stop stop-opacity="1" stop-color="rgb(22.53418%, 3.52478%, 76.019287%)" offset="1"/></linearGradient><clipPath id="794eac22eb"><path d="M 58.902344 58.988281 L 316.152344 58.988281 L 316.152344 316.152344 L 58.902344 316.152344 Z M 58.902344 58.988281 " clip-rule="nonzero"/></clipPath><clipPath id="c1cb5b519b"><path d="M 162.003906 68.230469 L 305 68.230469 L 305 211.480469 L 162.003906 211.480469 Z M 162.003906 68.230469 " clip-rule="nonzero"/></clipPath><clipPath id="a266cf7f5c"><path d="M 272 170 L 305.253906 170 L 305.253906 204 L 272 204 Z M 272 170 " clip-rule="nonzero"/></clipPath><clipPath id="095d8b5cdc"><path d="M 162.003906 82 L 184 82 L 184 104 L 162.003906 104 Z M 162.003906 82 " clip-rule="nonzero"/></clipPath><clipPath id="c638a2a92d"><rect x="0" width="139" y="0" height="90"/></clipPath></defs><rect x="-37.5" width="450" fill="#ffffff" y="-37.499999" height="449.999989" fill-opacity="1"/><rect x="-37.5" fill="url(#da2debd77a)" width="450" y="-37.499999" height="449.999989"/><g clip-path="url(#794eac22eb)"><path fill="#8c52ff" d="M 187.5 58.902344 C 116.449219 58.902344 58.902344 116.449219 58.902344 187.5 C 58.902344 258.546875 116.449219 316.09375 187.5 316.09375 C 258.546875 316.09375 316.09375 258.546875 316.09375 187.5 C 316.09375 116.449219 258.546875 58.902344 187.5 58.902344 Z M 187.5 290.375 C 130.660156 290.375 84.621094 244.339844 84.621094 187.5 C 84.621094 130.660156 130.660156 84.621094 187.5 84.621094 C 244.339844 84.621094 290.375 130.660156 290.375 187.5 C 290.375 244.339844 244.339844 290.375 187.5 290.375 Z M 187.5 290.375 " fill-opacity="1" fill-rule="nonzero"/></g><g clip-path="url(#c1cb5b519b)"><path fill="#ccff00" d="M 232.011719 210.007812 L 228.359375 200.136719 C 218.945312 174.691406 198.882812 154.632812 173.441406 145.21875 L 163.566406 141.566406 C 162.015625 140.992188 162.015625 138.796875 163.566406 138.222656 L 173.4375 134.570312 C 198.878906 125.15625 218.941406 105.09375 228.355469 79.652344 L 232.011719 69.777344 C 232.585938 68.222656 234.78125 68.222656 235.355469 69.777344 L 239.007812 79.652344 C 248.425781 105.09375 268.484375 125.15625 293.929688 134.570312 L 303.800781 138.222656 C 305.351562 138.796875 305.351562 140.992188 303.800781 141.566406 L 293.15625 145.503906 C 268.171875 154.75 248.539062 174.382812 239.292969 199.367188 L 235.355469 210.007812 C 234.78125 211.5625 232.585938 211.5625 232.011719 210.007812 Z M 232.011719 210.007812 " fill-opacity="1" fill-rule="nonzero"/></g><path fill="#ffff00" d="M 273.695312 97.792969 L 273.066406 96.089844 C 271.441406 91.699219 267.976562 88.238281 263.585938 86.613281 L 261.882812 85.980469 C 261.613281 85.882812 261.613281 85.503906 261.882812 85.40625 L 263.585938 84.773438 C 267.976562 83.148438 271.441406 79.6875 273.066406 75.296875 L 273.695312 73.589844 C 273.792969 73.324219 274.171875 73.324219 274.273438 73.589844 L 274.902344 75.296875 C 276.527344 79.6875 279.992188 83.148438 284.382812 84.773438 L 286.085938 85.40625 C 286.355469 85.503906 286.355469 85.882812 286.085938 85.980469 L 284.25 86.660156 C 279.9375 88.257812 276.546875 91.644531 274.953125 95.957031 L 274.273438 97.792969 C 274.171875 98.0625 273.792969 98.0625 273.695312 97.792969 Z M 273.695312 97.792969 " fill-opacity="1" fill-rule="nonzero"/><g clip-path="url(#a266cf7f5c)"><path fill="#ffff00" d="M 288.328125 202.785156 L 287.488281 200.511719 C 285.316406 194.648438 280.695312 190.027344 274.832031 187.855469 L 272.558594 187.015625 C 272.199219 186.882812 272.199219 186.378906 272.558594 186.246094 L 274.832031 185.402344 C 280.695312 183.234375 285.316406 178.613281 287.488281 172.75 L 288.328125 170.472656 C 288.460938 170.117188 288.964844 170.117188 289.097656 170.472656 L 289.941406 172.75 C 292.109375 178.613281 296.734375 183.234375 302.597656 185.402344 L 304.871094 186.246094 C 305.226562 186.378906 305.226562 186.882812 304.871094 187.015625 L 302.417969 187.921875 C 296.660156 190.054688 292.136719 194.578125 290.007812 200.332031 L 289.097656 202.785156 C 288.964844 203.144531 288.460938 203.144531 288.328125 202.785156 Z M 288.328125 202.785156 " fill-opacity="1" fill-rule="nonzero"/></g><g clip-path="url(#095d8b5cdc)"><path fill="#ffff00" d="M 172.527344 103.324219 L 171.996094 101.890625 C 170.625 98.1875 167.707031 95.273438 164.007812 93.902344 L 162.574219 93.371094 C 162.347656 93.289062 162.347656 92.96875 162.574219 92.886719 L 164.007812 92.355469 C 167.707031 90.984375 170.625 88.066406 171.996094 84.367188 L 172.527344 82.933594 C 172.609375 82.707031 172.929688 82.707031 173.011719 82.933594 L 173.542969 84.367188 C 174.914062 88.066406 177.828125 90.984375 181.53125 92.355469 L 182.964844 92.886719 C 183.191406 92.96875 183.191406 93.289062 182.964844 93.371094 L 181.417969 93.945312 C 177.785156 95.289062 174.929688 98.144531 173.585938 101.777344 L 173.011719 103.324219 C 172.929688 103.550781 172.609375 103.550781 172.527344 103.324219 Z M 172.527344 103.324219 " fill-opacity="1" fill-rule="nonzero"/></g><g transform="matrix(1, 0, 0, 1, 110, 163)"><g clip-path="url(#c638a2a92d)"><g fill="#ffffff" fill-opacity="1"><g transform="translate(2.004309, 67.385013)"><g><path d="M 48.484375 0 L 45.71875 -8.953125 L 25.125 -8.953125 L 22.265625 0 L -0.921875 0 L 24.84375 -64.65625 L 46.453125 -64.65625 L 72.40625 0 Z M 41.75 -24.015625 L 35.46875 -41.84375 L 29.1875 -24.015625 Z M 41.75 -24.015625 "/></g></g></g><g fill="#ffffff" fill-opacity="1"><g transform="translate(73.480479, 67.385013)"><g><path d="M 5.078125 0 L 5.078125 -64.65625 L 27.0625 -64.65625 L 27.0625 0 Z M 5.078125 0 "/></g></g></g><g fill="#ffffff" fill-opacity="1"><g transform="translate(2.004309, 84.228262)"><g><path d="M 3.375 0 L 1.96875 0 L 1.96875 -13 L 4.234375 -13 L 8.171875 -2 L 8.359375 -2 L 12.296875 -13 L 14.484375 -13 L 14.484375 0 L 13.046875 0 L 13.046875 -10.609375 L 12.8125 -10.640625 L 8.96875 0 L 7.453125 0 L 3.609375 -10.640625 L 3.375 -10.609375 Z M 3.375 0 "/></g></g></g><g fill="#ffffff" fill-opacity="1"><g transform="translate(18.462194, 84.228262)"><g><path d="M 4.046875 0.1875 C 3.078125 0.1875 2.320312 -0.0625 1.78125 -0.5625 C 1.238281 -1.070312 0.96875 -1.796875 0.96875 -2.734375 C 0.96875 -3.316406 1.085938 -3.804688 1.328125 -4.203125 C 1.566406 -4.597656 1.9375 -4.921875 2.4375 -5.171875 C 2.945312 -5.429688 3.609375 -5.628906 4.421875 -5.765625 C 5.128906 -5.878906 5.664062 -6.007812 6.03125 -6.15625 C 6.40625 -6.3125 6.65625 -6.476562 6.78125 -6.65625 C 6.914062 -6.84375 6.984375 -7.078125 6.984375 -7.359375 C 6.984375 -7.804688 6.828125 -8.144531 6.515625 -8.375 C 6.210938 -8.613281 5.722656 -8.734375 5.046875 -8.734375 C 4.410156 -8.734375 3.863281 -8.609375 3.40625 -8.359375 C 2.957031 -8.117188 2.546875 -7.753906 2.171875 -7.265625 L 2 -7.265625 L 1.28125 -8.265625 C 1.695312 -8.796875 2.222656 -9.21875 2.859375 -9.53125 C 3.503906 -9.84375 4.234375 -10 5.046875 -10 C 6.203125 -10 7.054688 -9.742188 7.609375 -9.234375 C 8.160156 -8.734375 8.4375 -8.035156 8.4375 -7.140625 L 8.4375 -1.9375 C 8.4375 -1.382812 8.664062 -1.109375 9.125 -1.109375 C 9.28125 -1.109375 9.429688 -1.132812 9.578125 -1.1875 L 9.703125 -1.15625 L 9.859375 -0.15625 C 9.753906 -0.0820312 9.613281 -0.0234375 9.4375 0.015625 C 9.269531 0.0546875 9.09375 0.078125 8.90625 0.078125 C 8.363281 0.078125 7.953125 -0.0390625 7.671875 -0.28125 C 7.398438 -0.519531 7.226562 -0.867188 7.15625 -1.328125 L 6.96875 -1.359375 C 6.6875 -0.835938 6.304688 -0.445312 5.828125 -0.1875 C 5.359375 0.0625 4.765625 0.1875 4.046875 0.1875 Z M 4.375 -0.96875 C 4.914062 -0.96875 5.382812 -1.09375 5.78125 -1.34375 C 6.1875 -1.59375 6.492188 -1.945312 6.703125 -2.40625 C 6.921875 -2.863281 7.03125 -3.394531 7.03125 -4 L 7.03125 -5.234375 L 6.859375 -5.28125 C 6.640625 -5.125 6.375 -4.992188 6.0625 -4.890625 C 5.75 -4.785156 5.304688 -4.691406 4.734375 -4.609375 C 4.171875 -4.535156 3.71875 -4.414062 3.375 -4.25 C 3.039062 -4.09375 2.800781 -3.890625 2.65625 -3.640625 C 2.519531 -3.398438 2.453125 -3.097656 2.453125 -2.734375 C 2.453125 -2.160156 2.617188 -1.722656 2.953125 -1.421875 C 3.296875 -1.117188 3.769531 -0.96875 4.375 -0.96875 Z M 4.375 -0.96875 "/></g></g></g><g fill="#ffffff" fill-opacity="1"><g transform="translate(28.605356, 84.228262)"><g><path d="M 5.046875 4.15625 C 3.503906 4.15625 2.375 3.894531 1.65625 3.375 C 0.945312 2.863281 0.59375 2.179688 0.59375 1.328125 C 0.59375 0.773438 0.757812 0.335938 1.09375 0.015625 C 1.425781 -0.304688 1.910156 -0.539062 2.546875 -0.6875 L 2.546875 -0.875 C 2.242188 -1.039062 2.015625 -1.238281 1.859375 -1.46875 C 1.710938 -1.707031 1.640625 -1.984375 1.640625 -2.296875 C 1.640625 -2.679688 1.757812 -2.988281 2 -3.21875 C 2.238281 -3.457031 2.59375 -3.640625 3.0625 -3.765625 L 3.0625 -3.953125 C 2 -4.515625 1.46875 -5.429688 1.46875 -6.703125 C 1.46875 -7.347656 1.613281 -7.914062 1.90625 -8.40625 C 2.195312 -8.90625 2.609375 -9.296875 3.140625 -9.578125 C 3.679688 -9.859375 4.3125 -10 5.03125 -10 C 5.851562 -10 6.539062 -9.816406 7.09375 -9.453125 C 7.300781 -9.679688 7.457031 -9.925781 7.5625 -10.1875 C 7.664062 -10.457031 7.734375 -10.757812 7.765625 -11.09375 L 7.953125 -11.203125 L 9.140625 -10.921875 C 9.085938 -10.421875 8.9375 -10 8.6875 -9.65625 C 8.445312 -9.3125 8.109375 -9.03125 7.671875 -8.8125 L 7.671875 -8.625 C 7.992188 -8.375 8.226562 -8.078125 8.375 -7.734375 C 8.53125 -7.398438 8.609375 -7.015625 8.609375 -6.578125 C 8.609375 -5.960938 8.457031 -5.40625 8.15625 -4.90625 C 7.863281 -4.414062 7.445312 -4.03125 6.90625 -3.75 C 6.363281 -3.46875 5.738281 -3.328125 5.03125 -3.328125 C 4.945312 -3.328125 4.800781 -3.332031 4.59375 -3.34375 C 4.351562 -3.351562 4.175781 -3.359375 4.0625 -3.359375 C 3.757812 -3.359375 3.515625 -3.273438 3.328125 -3.109375 C 3.140625 -2.953125 3.046875 -2.753906 3.046875 -2.515625 C 3.046875 -2.203125 3.144531 -1.972656 3.34375 -1.828125 C 3.539062 -1.679688 3.867188 -1.597656 4.328125 -1.578125 L 6.65625 -1.5 C 7.65625 -1.46875 8.394531 -1.234375 8.875 -0.796875 C 9.363281 -0.367188 9.609375 0.234375 9.609375 1.015625 C 9.609375 1.609375 9.453125 2.140625 9.140625 2.609375 C 8.828125 3.078125 8.328125 3.453125 7.640625 3.734375 C 6.960938 4.015625 6.097656 4.15625 5.046875 4.15625 Z M 5.03125 -4.578125 C 5.726562 -4.578125 6.265625 -4.753906 6.640625 -5.109375 C 7.023438 -5.472656 7.21875 -5.984375 7.21875 -6.640625 C 7.21875 -7.316406 7.023438 -7.835938 6.640625 -8.203125 C 6.265625 -8.566406 5.726562 -8.75 5.03125 -8.75 C 4.332031 -8.75 3.796875 -8.566406 3.421875 -8.203125 C 3.054688 -7.835938 2.875 -7.316406 2.875 -6.640625 C 2.875 -5.984375 3.054688 -5.472656 3.421875 -5.109375 C 3.796875 -4.753906 4.332031 -4.578125 5.03125 -4.578125 Z M 5.046875 2.921875 C 5.773438 2.921875 6.367188 2.835938 6.828125 2.671875 C 7.285156 2.515625 7.613281 2.300781 7.8125 2.03125 C 8.019531 1.769531 8.125 1.476562 8.125 1.15625 C 8.125 0.863281 8.066406 0.628906 7.953125 0.453125 C 7.847656 0.273438 7.671875 0.140625 7.421875 0.046875 C 7.179688 -0.0351562 6.851562 -0.0859375 6.4375 -0.109375 L 4.234375 -0.21875 L 3.921875 -0.21875 C 2.691406 -0.207031 2.078125 0.265625 2.078125 1.203125 C 2.078125 2.347656 3.066406 2.921875 5.046875 2.921875 Z M 5.046875 2.921875 "/></g></g></g><g fill="#ffffff" fill-opacity="1"><g transform="translate(38.650727, 84.228262)"><g><path d="M 2.4375 -11.703125 C 2.125 -11.703125 1.867188 -11.796875 1.671875 -11.984375 C 1.484375 -12.179688 1.390625 -12.429688 1.390625 -12.734375 C 1.390625 -13.023438 1.484375 -13.265625 1.671875 -13.453125 C 1.867188 -13.648438 2.125 -13.75 2.4375 -13.75 C 2.75 -13.75 3 -13.648438 3.1875 -13.453125 C 3.382812 -13.265625 3.484375 -13.023438 3.484375 -12.734375 C 3.484375 -12.429688 3.382812 -12.179688 3.1875 -11.984375 C 3 -11.796875 2.75 -11.703125 2.4375 -11.703125 Z M 1.703125 0 L 1.703125 -9.8125 L 3.15625 -9.8125 L 3.15625 0 Z M 1.703125 0 "/></g></g></g><g fill="#ffffff" fill-opacity="1"><g transform="translate(43.513403, 84.228262)"><g><path d="M 5.625 0.1875 C 4.757812 0.1875 3.984375 -0.0078125 3.296875 -0.40625 C 2.609375 -0.800781 2.066406 -1.378906 1.671875 -2.140625 C 1.273438 -2.910156 1.078125 -3.832031 1.078125 -4.90625 C 1.078125 -5.976562 1.273438 -6.894531 1.671875 -7.65625 C 2.066406 -8.425781 2.609375 -9.007812 3.296875 -9.40625 C 3.984375 -9.800781 4.757812 -10 5.625 -10 C 6.664062 -10 7.492188 -9.800781 8.109375 -9.40625 C 8.722656 -9.019531 9.164062 -8.5 9.4375 -7.84375 L 8.453125 -7.140625 L 8.265625 -7.140625 C 8.003906 -7.671875 7.664062 -8.0625 7.25 -8.3125 C 6.832031 -8.570312 6.289062 -8.703125 5.625 -8.703125 C 5.019531 -8.703125 4.488281 -8.554688 4.03125 -8.265625 C 3.582031 -7.984375 3.226562 -7.554688 2.96875 -6.984375 C 2.71875 -6.421875 2.59375 -5.726562 2.59375 -4.90625 C 2.59375 -4.082031 2.71875 -3.382812 2.96875 -2.8125 C 3.226562 -2.25 3.582031 -1.820312 4.03125 -1.53125 C 4.488281 -1.25 5.019531 -1.109375 5.625 -1.109375 C 6.3125 -1.109375 6.878906 -1.257812 7.328125 -1.5625 C 7.773438 -1.875 8.125 -2.363281 8.375 -3.03125 L 8.5625 -3.03125 L 9.515625 -2.46875 C 9.265625 -1.644531 8.8125 -0.992188 8.15625 -0.515625 C 7.5 -0.046875 6.65625 0.1875 5.625 0.1875 Z M 5.625 0.1875 "/></g></g></g><g fill="#ffffff" fill-opacity="1"><g transform="translate(53.621007, 84.228262)"><g/></g></g><g fill="#ffffff" fill-opacity="1"><g transform="translate(58.08364, 84.228262)"><g><path d="M 2.4375 -11.703125 C 2.125 -11.703125 1.867188 -11.796875 1.671875 -11.984375 C 1.484375 -12.179688 1.390625 -12.429688 1.390625 -12.734375 C 1.390625 -13.023438 1.484375 -13.265625 1.671875 -13.453125 C 1.867188 -13.648438 2.125 -13.75 2.4375 -13.75 C 2.75 -13.75 3 -13.648438 3.1875 -13.453125 C 3.382812 -13.265625 3.484375 -13.023438 3.484375 -12.734375 C 3.484375 -12.429688 3.382812 -12.179688 3.1875 -11.984375 C 3 -11.796875 2.75 -11.703125 2.4375 -11.703125 Z M 1.703125 0 L 1.703125 -9.8125 L 3.15625 -9.8125 L 3.15625 0 Z M 1.703125 0 "/></g></g></g><g fill="#ffffff" fill-opacity="1"><g transform="translate(62.946316, 84.228262)"><g><path d="M 1.703125 0 L 1.703125 -9.8125 L 3.09375 -9.8125 L 3.09375 -8.265625 L 3.28125 -8.234375 C 3.601562 -8.804688 4.015625 -9.242188 4.515625 -9.546875 C 5.023438 -9.847656 5.644531 -10 6.375 -10 C 7.5625 -10 8.414062 -9.695312 8.9375 -9.09375 C 9.46875 -8.488281 9.734375 -7.5625 9.734375 -6.3125 L 9.734375 0 L 8.296875 0 L 8.296875 -6.28125 C 8.296875 -6.875 8.21875 -7.347656 8.0625 -7.703125 C 7.914062 -8.066406 7.679688 -8.328125 7.359375 -8.484375 C 7.046875 -8.648438 6.628906 -8.734375 6.109375 -8.734375 C 5.222656 -8.734375 4.507812 -8.441406 3.96875 -7.859375 C 3.425781 -7.273438 3.15625 -6.332031 3.15625 -5.03125 L 3.15625 0 Z M 1.703125 0 "/></g></g></g><g fill="#ffffff" fill-opacity="1"><g transform="translate(74.236246, 84.228262)"><g/></g></g><g fill="#ffffff" fill-opacity="1"><g transform="translate(78.69888, 84.228262)"><g><path d="M 7.140625 0.1875 C 6.003906 0.1875 5 -0.0507812 4.125 -0.53125 C 3.25 -1.019531 2.554688 -1.765625 2.046875 -2.765625 C 1.546875 -3.765625 1.296875 -5.007812 1.296875 -6.5 C 1.296875 -7.988281 1.546875 -9.234375 2.046875 -10.234375 C 2.554688 -11.234375 3.25 -11.972656 4.125 -12.453125 C 5 -12.941406 6.003906 -13.1875 7.140625 -13.1875 C 8.265625 -13.1875 9.265625 -12.941406 10.140625 -12.453125 C 11.015625 -11.972656 11.703125 -11.234375 12.203125 -10.234375 C 12.710938 -9.234375 12.96875 -7.988281 12.96875 -6.5 C 12.96875 -5.007812 12.710938 -3.765625 12.203125 -2.765625 C 11.703125 -1.765625 11.015625 -1.019531 10.140625 -0.53125 C 9.265625 -0.0507812 8.265625 0.1875 7.140625 0.1875 Z M 7.140625 -1.234375 C 8.484375 -1.234375 9.515625 -1.65625 10.234375 -2.5 C 10.960938 -3.34375 11.328125 -4.675781 11.328125 -6.5 C 11.328125 -8.332031 10.960938 -9.671875 10.234375 -10.515625 C 9.515625 -11.359375 8.484375 -11.78125 7.140625 -11.78125 C 4.335938 -11.78125 2.9375 -10.019531 2.9375 -6.5 C 2.9375 -2.988281 4.335938 -1.234375 7.140625 -1.234375 Z M 7.140625 -1.234375 "/></g></g></g><g fill="#ffffff" fill-opacity="1"><g transform="translate(92.957973, 84.228262)"><g><path d="M 1.703125 3.96875 L 1.703125 -9.8125 L 3.15625 -9.8125 L 3.15625 -8.34375 L 3.34375 -8.3125 C 4.070312 -9.4375 5.144531 -10 6.5625 -10 C 7.375 -10 8.082031 -9.8125 8.6875 -9.4375 C 9.300781 -9.0625 9.773438 -8.492188 10.109375 -7.734375 C 10.453125 -6.972656 10.625 -6.03125 10.625 -4.90625 C 10.625 -3.78125 10.445312 -2.835938 10.09375 -2.078125 C 9.738281 -1.316406 9.242188 -0.75 8.609375 -0.375 C 7.984375 0 7.265625 0.1875 6.453125 0.1875 C 5.785156 0.1875 5.191406 0.0703125 4.671875 -0.15625 C 4.160156 -0.382812 3.71875 -0.765625 3.34375 -1.296875 L 3.15625 -1.265625 L 3.15625 3.96875 Z M 6.125 -1.109375 C 8.113281 -1.109375 9.109375 -2.375 9.109375 -4.90625 C 9.109375 -7.4375 8.113281 -8.703125 6.125 -8.703125 C 5.539062 -8.703125 5.023438 -8.566406 4.578125 -8.296875 C 4.140625 -8.035156 3.789062 -7.617188 3.53125 -7.046875 C 3.28125 -6.484375 3.15625 -5.769531 3.15625 -4.90625 C 3.15625 -4.039062 3.28125 -3.320312 3.53125 -2.75 C 3.789062 -2.1875 4.140625 -1.769531 4.578125 -1.5 C 5.023438 -1.238281 5.539062 -1.109375 6.125 -1.109375 Z M 6.125 -1.109375 "/></g></g></g><g fill="#ffffff" fill-opacity="1"><g transform="translate(104.656831, 84.228262)"><g><path d="M 6.640625 -1.5625 L 7.09375 -0.515625 C 6.863281 -0.285156 6.5625 -0.113281 6.1875 0 C 5.8125 0.125 5.40625 0.1875 4.96875 0.1875 C 3.09375 0.1875 2.15625 -0.757812 2.15625 -2.65625 L 2.15625 -8.625 L 0.4375 -8.625 L 0.4375 -9.828125 L 2.15625 -9.828125 L 2.15625 -11.890625 L 3.609375 -12.140625 L 3.609375 -9.828125 L 6.765625 -9.828125 L 6.765625 -8.625 L 3.609375 -8.625 L 3.609375 -2.796875 C 3.609375 -1.671875 4.097656 -1.109375 5.078125 -1.109375 C 5.609375 -1.109375 6.066406 -1.257812 6.453125 -1.5625 Z M 6.640625 -1.5625 "/></g></g></g><g fill="#ffffff" fill-opacity="1"><g transform="translate(112.124186, 84.228262)"><g><path d="M 2.4375 -11.703125 C 2.125 -11.703125 1.867188 -11.796875 1.671875 -11.984375 C 1.484375 -12.179688 1.390625 -12.429688 1.390625 -12.734375 C 1.390625 -13.023438 1.484375 -13.265625 1.671875 -13.453125 C 1.867188 -13.648438 2.125 -13.75 2.4375 -13.75 C 2.75 -13.75 3 -13.648438 3.1875 -13.453125 C 3.382812 -13.265625 3.484375 -13.023438 3.484375 -12.734375 C 3.484375 -12.429688 3.382812 -12.179688 3.1875 -11.984375 C 3 -11.796875 2.75 -11.703125 2.4375 -11.703125 Z M 1.703125 0 L 1.703125 -9.8125 L 3.15625 -9.8125 L 3.15625 0 Z M 1.703125 0 "/></g></g></g><g fill="#ffffff" fill-opacity="1"><g transform="translate(116.986862, 84.228262)"><g><path d="M 5.046875 4.15625 C 3.503906 4.15625 2.375 3.894531 1.65625 3.375 C 0.945312 2.863281 0.59375 2.179688 0.59375 1.328125 C 0.59375 0.773438 0.757812 0.335938 1.09375 0.015625 C 1.425781 -0.304688 1.910156 -0.539062 2.546875 -0.6875 L 2.546875 -0.875 C 2.242188 -1.039062 2.015625 -1.238281 1.859375 -1.46875 C 1.710938 -1.707031 1.640625 -1.984375 1.640625 -2.296875 C 1.640625 -2.679688 1.757812 -2.988281 2 -3.21875 C 2.238281 -3.457031 2.59375 -3.640625 3.0625 -3.765625 L 3.0625 -3.953125 C 2 -4.515625 1.46875 -5.429688 1.46875 -6.703125 C 1.46875 -7.347656 1.613281 -7.914062 1.90625 -8.40625 C 2.195312 -8.90625 2.609375 -9.296875 3.140625 -9.578125 C 3.679688 -9.859375 4.3125 -10 5.03125 -10 C 5.851562 -10 6.539062 -9.816406 7.09375 -9.453125 C 7.300781 -9.679688 7.457031 -9.925781 7.5625 -10.1875 C 7.664062 -10.457031 7.734375 -10.757812 7.765625 -11.09375 L 7.953125 -11.203125 L 9.140625 -10.921875 C 9.085938 -10.421875 8.9375 -10 8.6875 -9.65625 C 8.445312 -9.3125 8.109375 -9.03125 7.671875 -8.8125 L 7.671875 -8.625 C 7.992188 -8.375 8.226562 -8.078125 8.375 -7.734375 C 8.53125 -7.398438 8.609375 -7.015625 8.609375 -6.578125 C 8.609375 -5.960938 8.457031 -5.40625 8.15625 -4.90625 C 7.863281 -4.414062 7.445312 -4.03125 6.90625 -3.75 C 6.363281 -3.46875 5.738281 -3.328125 5.03125 -3.328125 C 4.945312 -3.328125 4.800781 -3.332031 4.59375 -3.34375 C 4.351562 -3.351562 4.175781 -3.359375 4.0625 -3.359375 C 3.757812 -3.359375 3.515625 -3.273438 3.328125 -3.109375 C 3.140625 -2.953125 3.046875 -2.753906 3.046875 -2.515625 C 3.046875 -2.203125 3.144531 -1.972656 3.34375 -1.828125 C 3.539062 -1.679688 3.867188 -1.597656 4.328125 -1.578125 L 6.65625 -1.5 C 7.65625 -1.46875 8.394531 -1.234375 8.875 -0.796875 C 9.363281 -0.367188 9.609375 0.234375 9.609375 1.015625 C 9.609375 1.609375 9.453125 2.140625 9.140625 2.609375 C 8.828125 3.078125 8.328125 3.453125 7.640625 3.734375 C 6.960938 4.015625 6.097656 4.15625 5.046875 4.15625 Z M 5.03125 -4.578125 C 5.726562 -4.578125 6.265625 -4.753906 6.640625 -5.109375 C 7.023438 -5.472656 7.21875 -5.984375 7.21875 -6.640625 C 7.21875 -7.316406 7.023438 -7.835938 6.640625 -8.203125 C 6.265625 -8.566406 5.726562 -8.75 5.03125 -8.75 C 4.332031 -8.75 3.796875 -8.566406 3.421875 -8.203125 C 3.054688 -7.835938 2.875 -7.316406 2.875 -6.640625 C 2.875 -5.984375 3.054688 -5.472656 3.421875 -5.109375 C 3.796875 -4.753906 4.332031 -4.578125 5.03125 -4.578125 Z M 5.046875 2.921875 C 5.773438 2.921875 6.367188 2.835938 6.828125 2.671875 C 7.285156 2.515625 7.613281 2.300781 7.8125 2.03125 C 8.019531 1.769531 8.125 1.476562 8.125 1.15625 C 8.125 0.863281 8.066406 0.628906 7.953125 0.453125 C 7.847656 0.273438 7.671875 0.140625 7.421875 0.046875 C 7.179688 -0.0351562 6.851562 -0.0859375 6.4375 -0.109375 L 4.234375 -0.21875 L 3.921875 -0.21875 C 2.691406 -0.207031 2.078125 0.265625 2.078125 1.203125 C 2.078125 2.347656 3.066406 2.921875 5.046875 2.921875 Z M 5.046875 2.921875 "/></g></g></g><g fill="#ffffff" fill-opacity="1"><g transform="translate(126.881039, 84.228262)"><g><path d="M 5.625 0.1875 C 4.707031 0.1875 3.90625 -0.00390625 3.21875 -0.390625 C 2.53125 -0.785156 2 -1.363281 1.625 -2.125 C 1.257812 -2.894531 1.078125 -3.820312 1.078125 -4.90625 C 1.078125 -5.988281 1.257812 -6.910156 1.625 -7.671875 C 2 -8.441406 2.53125 -9.019531 3.21875 -9.40625 C 3.90625 -9.800781 4.707031 -10 5.625 -10 C 6.550781 -10 7.359375 -9.800781 8.046875 -9.40625 C 8.734375 -9.019531 9.257812 -8.441406 9.625 -7.671875 C 10 -6.910156 10.1875 -5.988281 10.1875 -4.90625 C 10.1875 -3.820312 10 -2.894531 9.625 -2.125 C 9.257812 -1.363281 8.734375 -0.785156 8.046875 -0.390625 C 7.359375 -0.00390625 6.550781 0.1875 5.625 0.1875 Z M 5.625 -1.109375 C 6.601562 -1.109375 7.351562 -1.414062 7.875 -2.03125 C 8.394531 -2.65625 8.65625 -3.613281 8.65625 -4.90625 C 8.65625 -6.195312 8.394531 -7.148438 7.875 -7.765625 C 7.351562 -8.390625 6.601562 -8.703125 5.625 -8.703125 C 4.644531 -8.703125 3.894531 -8.390625 3.375 -7.765625 C 2.851562 -7.148438 2.59375 -6.195312 2.59375 -4.90625 C 2.59375 -3.613281 2.851562 -2.65625 3.375 -2.03125 C 3.894531 -1.414062 4.644531 -1.109375 5.625 -1.109375 Z M 5.625 -1.109375 "/></g></g></g></g></g></svg>