<svg xmlns="http://www.w3.org/2000/svg" xmlns:xlink="http://www.w3.org/1999/xlink" width="160" zoomAndPan="magnify" viewBox="0 0 120 119.999999" height="160" preserveAspectRatio="xMidYMid meet" version="1.0"><defs><g/><linearGradient x1="-0" gradientTransform="matrix(0.75, 0, 0, 0.75, 0.00000075, 0.000002)" y1="-0" x2="159.999993" gradientUnits="userSpaceOnUse" y2="159.999993" id="2eeab3fcc7"><stop stop-opacity="1" stop-color="rgb(69.799805%, 2.349854%, 60.778809%)" offset="0"/><stop stop-opacity="1" stop-color="rgb(69.613647%, 2.354431%, 60.838318%)" offset="0.0078125"/><stop stop-opacity="1" stop-color="rgb(69.242859%, 2.363586%, 60.958862%)" offset="0.015625"/><stop stop-opacity="1" stop-color="rgb(68.87207%, 2.372742%, 61.077881%)" offset="0.0234375"/><stop stop-opacity="1" stop-color="rgb(68.501282%, 2.381897%, 61.196899%)" offset="0.03125"/><stop stop-opacity="1" stop-color="rgb(68.130493%, 2.391052%, 61.317444%)" offset="0.0390625"/><stop stop-opacity="1" stop-color="rgb(67.759705%, 2.400208%, 61.436462%)" offset="0.046875"/><stop stop-opacity="1" stop-color="rgb(67.388916%, 2.409363%, 61.555481%)" offset="0.0546875"/><stop stop-opacity="1" stop-color="rgb(67.018127%, 2.418518%, 61.676025%)" offset="0.0625"/><stop stop-opacity="1" stop-color="rgb(66.647339%, 2.427673%, 61.795044%)" offset="0.0703125"/><stop stop-opacity="1" stop-color="rgb(66.27655%, 2.436829%, 61.914062%)" offset="0.078125"/><stop stop-opacity="1" stop-color="rgb(65.905762%, 2.445984%, 62.034607%)" offset="0.0859375"/><stop stop-opacity="1" stop-color="rgb(65.534973%, 2.455139%, 62.153625%)" offset="0.09375"/><stop stop-opacity="1" stop-color="rgb(65.164185%, 2.464294%, 62.272644%)" offset="0.101562"/><stop stop-opacity="1" stop-color="rgb(64.793396%, 2.47345%, 62.393188%)" offset="0.109375"/><stop stop-opacity="1" stop-color="rgb(64.422607%, 2.482605%, 62.512207%)" offset="0.117188"/><stop stop-opacity="1" stop-color="rgb(64.053345%, 2.49176%, 62.631226%)" offset="0.125"/><stop stop-opacity="1" stop-color="rgb(63.682556%, 2.500916%, 62.75177%)" offset="0.132812"/><stop stop-opacity="1" stop-color="rgb(63.311768%, 2.510071%, 62.870789%)" offset="0.140625"/><stop stop-opacity="1" stop-color="rgb(62.940979%, 2.519226%, 62.989807%)" offset="0.148438"/><stop stop-opacity="1" stop-color="rgb(62.57019%, 2.528381%, 63.110352%)" offset="0.15625"/><stop stop-opacity="1" stop-color="rgb(62.199402%, 2.537537%, 63.22937%)" offset="0.164062"/><stop stop-opacity="1" stop-color="rgb(61.828613%, 2.546692%, 63.348389%)" offset="0.171875"/><stop stop-opacity="1" stop-color="rgb(61.457825%, 2.557373%, 63.468933%)" offset="0.179688"/><stop stop-opacity="1" stop-color="rgb(61.087036%, 2.566528%, 63.587952%)" offset="0.1875"/><stop stop-opacity="1" stop-color="rgb(60.716248%, 2.575684%, 63.70697%)" offset="0.195312"/><stop stop-opacity="1" stop-color="rgb(60.345459%, 2.584839%, 63.827515%)" offset="0.203125"/><stop stop-opacity="1" stop-color="rgb(59.97467%, 2.593994%, 63.946533%)" offset="0.210938"/><stop stop-opacity="1" stop-color="rgb(59.603882%, 2.603149%, 64.065552%)" offset="0.21875"/><stop stop-opacity="1" stop-color="rgb(59.233093%, 2.612305%, 64.186096%)" offset="0.226562"/><stop stop-opacity="1" stop-color="rgb(58.862305%, 2.62146%, 64.305115%)" offset="0.234375"/><stop stop-opacity="1" stop-color="rgb(58.491516%, 2.630615%, 64.424133%)" offset="0.242188"/><stop stop-opacity="1" stop-color="rgb(58.120728%, 2.639771%, 64.544678%)" offset="0.25"/><stop stop-opacity="1" stop-color="rgb(57.749939%, 2.648926%, 64.663696%)" offset="0.257812"/><stop stop-opacity="1" stop-color="rgb(57.380676%, 2.658081%, 64.782715%)" offset="0.265625"/><stop stop-opacity="1" stop-color="rgb(57.009888%, 2.667236%, 64.903259%)" offset="0.273438"/><stop stop-opacity="1" stop-color="rgb(56.639099%, 2.676392%, 65.022278%)" offset="0.28125"/><stop stop-opacity="1" stop-color="rgb(56.268311%, 2.685547%, 65.141296%)" offset="0.289062"/><stop stop-opacity="1" stop-color="rgb(55.897522%, 2.694702%, 65.261841%)" offset="0.296875"/><stop stop-opacity="1" stop-color="rgb(55.526733%, 2.703857%, 65.380859%)" offset="0.304688"/><stop stop-opacity="1" stop-color="rgb(55.155945%, 2.713013%, 65.499878%)" offset="0.3125"/><stop stop-opacity="1" stop-color="rgb(54.785156%, 2.722168%, 65.620422%)" offset="0.320312"/><stop stop-opacity="1" stop-color="rgb(54.414368%, 2.731323%, 65.739441%)" offset="0.328125"/><stop stop-opacity="1" stop-color="rgb(54.043579%, 2.740479%, 65.858459%)" offset="0.335938"/><stop stop-opacity="1" stop-color="rgb(53.672791%, 2.749634%, 65.979004%)" offset="0.34375"/><stop stop-opacity="1" stop-color="rgb(53.302002%, 2.758789%, 66.098022%)" offset="0.351562"/><stop stop-opacity="1" stop-color="rgb(52.931213%, 2.767944%, 66.217041%)" offset="0.359375"/><stop stop-opacity="1" stop-color="rgb(52.560425%, 2.778625%, 66.337585%)" offset="0.367188"/><stop stop-opacity="1" stop-color="rgb(52.189636%, 2.787781%, 66.456604%)" offset="0.375"/><stop stop-opacity="1" stop-color="rgb(51.818848%, 2.796936%, 66.575623%)" offset="0.382812"/><stop stop-opacity="1" stop-color="rgb(51.448059%, 2.806091%, 66.696167%)" offset="0.390625"/><stop stop-opacity="1" stop-color="rgb(51.077271%, 2.815247%, 66.815186%)" offset="0.398438"/><stop stop-opacity="1" stop-color="rgb(50.708008%, 2.824402%, 66.934204%)" offset="0.40625"/><stop stop-opacity="1" stop-color="rgb(50.337219%, 2.833557%, 67.054749%)" offset="0.414062"/><stop stop-opacity="1" stop-color="rgb(49.966431%, 2.842712%, 67.173767%)" offset="0.421875"/><stop stop-opacity="1" stop-color="rgb(49.595642%, 2.851868%, 67.292786%)" offset="0.429688"/><stop stop-opacity="1" stop-color="rgb(49.224854%, 2.861023%, 67.41333%)" offset="0.4375"/><stop stop-opacity="1" stop-color="rgb(48.854065%, 2.870178%, 67.532349%)" offset="0.445312"/><stop stop-opacity="1" stop-color="rgb(48.483276%, 2.879333%, 67.651367%)" offset="0.453125"/><stop stop-opacity="1" stop-color="rgb(48.112488%, 2.888489%, 67.771912%)" offset="0.460938"/><stop stop-opacity="1" stop-color="rgb(47.741699%, 2.897644%, 67.89093%)" offset="0.46875"/><stop stop-opacity="1" stop-color="rgb(47.370911%, 2.906799%, 68.009949%)" offset="0.476562"/><stop stop-opacity="1" stop-color="rgb(47.000122%, 2.915955%, 68.130493%)" offset="0.484375"/><stop stop-opacity="1" stop-color="rgb(46.629333%, 2.92511%, 68.249512%)" offset="0.492188"/><stop stop-opacity="1" stop-color="rgb(46.258545%, 2.934265%, 68.36853%)" offset="0.5"/><stop stop-opacity="1" stop-color="rgb(45.887756%, 2.94342%, 68.489075%)" offset="0.507812"/><stop stop-opacity="1" stop-color="rgb(45.516968%, 2.952576%, 68.608093%)" offset="0.515625"/><stop stop-opacity="1" stop-color="rgb(45.146179%, 2.961731%, 68.727112%)" offset="0.523438"/><stop stop-opacity="1" stop-color="rgb(44.775391%, 2.970886%, 68.847656%)" offset="0.53125"/><stop stop-opacity="1" stop-color="rgb(44.404602%, 2.980042%, 68.966675%)" offset="0.539062"/><stop stop-opacity="1" stop-color="rgb(44.035339%, 2.989197%, 69.085693%)" offset="0.546875"/><stop stop-opacity="1" stop-color="rgb(43.664551%, 2.999878%, 69.206238%)" offset="0.554688"/><stop stop-opacity="1" stop-color="rgb(43.293762%, 3.009033%, 69.325256%)" offset="0.5625"/><stop stop-opacity="1" stop-color="rgb(42.922974%, 3.018188%, 69.444275%)" offset="0.570312"/><stop stop-opacity="1" stop-color="rgb(42.552185%, 3.027344%, 69.564819%)" offset="0.578125"/><stop stop-opacity="1" stop-color="rgb(42.181396%, 3.036499%, 69.683838%)" offset="0.585938"/><stop stop-opacity="1" stop-color="rgb(41.810608%, 3.045654%, 69.802856%)" offset="0.59375"/><stop stop-opacity="1" stop-color="rgb(41.439819%, 3.05481%, 69.923401%)" offset="0.601562"/><stop stop-opacity="1" stop-color="rgb(41.069031%, 3.063965%, 70.042419%)" offset="0.609375"/><stop stop-opacity="1" stop-color="rgb(40.698242%, 3.07312%, 70.161438%)" offset="0.617188"/><stop stop-opacity="1" stop-color="rgb(40.327454%, 3.082275%, 70.281982%)" offset="0.625"/><stop stop-opacity="1" stop-color="rgb(39.956665%, 3.091431%, 70.401001%)" offset="0.632812"/><stop stop-opacity="1" stop-color="rgb(39.585876%, 3.100586%, 70.52002%)" offset="0.640625"/><stop stop-opacity="1" stop-color="rgb(39.215088%, 3.109741%, 70.640564%)" offset="0.648438"/><stop stop-opacity="1" stop-color="rgb(38.844299%, 3.118896%, 70.759583%)" offset="0.65625"/><stop stop-opacity="1" stop-color="rgb(38.473511%, 3.128052%, 70.880127%)" offset="0.664062"/><stop stop-opacity="1" stop-color="rgb(38.102722%, 3.137207%, 70.999146%)" offset="0.671875"/><stop stop-opacity="1" stop-color="rgb(37.733459%, 3.146362%, 71.118164%)" offset="0.679688"/><stop stop-opacity="1" stop-color="rgb(37.362671%, 3.155518%, 71.238708%)" offset="0.6875"/><stop stop-opacity="1" stop-color="rgb(36.991882%, 3.164673%, 71.357727%)" offset="0.695312"/><stop stop-opacity="1" stop-color="rgb(36.621094%, 3.173828%, 71.476746%)" offset="0.703125"/><stop stop-opacity="1" stop-color="rgb(36.250305%, 3.182983%, 71.59729%)" offset="0.710938"/><stop stop-opacity="1" stop-color="rgb(35.879517%, 3.192139%, 71.716309%)" offset="0.71875"/><stop stop-opacity="1" stop-color="rgb(35.508728%, 3.201294%, 71.835327%)" offset="0.726562"/><stop stop-opacity="1" stop-color="rgb(35.137939%, 3.210449%, 71.955872%)" offset="0.734375"/><stop stop-opacity="1" stop-color="rgb(34.767151%, 3.22113%, 72.07489%)" offset="0.742188"/><stop stop-opacity="1" stop-color="rgb(34.396362%, 3.230286%, 72.193909%)" offset="0.75"/><stop stop-opacity="1" stop-color="rgb(34.025574%, 3.239441%, 72.314453%)" offset="0.757812"/><stop stop-opacity="1" stop-color="rgb(33.654785%, 3.248596%, 72.433472%)" offset="0.765625"/><stop stop-opacity="1" stop-color="rgb(33.283997%, 3.257751%, 72.55249%)" offset="0.773438"/><stop stop-opacity="1" stop-color="rgb(32.913208%, 3.266907%, 72.673035%)" offset="0.78125"/><stop stop-opacity="1" stop-color="rgb(32.542419%, 3.276062%, 72.792053%)" offset="0.789062"/><stop stop-opacity="1" stop-color="rgb(32.171631%, 3.285217%, 72.911072%)" offset="0.796875"/><stop stop-opacity="1" stop-color="rgb(31.800842%, 3.294373%, 73.031616%)" offset="0.804688"/><stop stop-opacity="1" stop-color="rgb(31.430054%, 3.303528%, 73.150635%)" offset="0.8125"/><stop stop-opacity="1" stop-color="rgb(31.060791%, 3.312683%, 73.269653%)" offset="0.820312"/><stop stop-opacity="1" stop-color="rgb(30.690002%, 3.321838%, 73.390198%)" offset="0.828125"/><stop stop-opacity="1" stop-color="rgb(30.319214%, 3.330994%, 73.509216%)" offset="0.835938"/><stop stop-opacity="1" stop-color="rgb(29.948425%, 3.340149%, 73.628235%)" offset="0.84375"/><stop stop-opacity="1" stop-color="rgb(29.577637%, 3.349304%, 73.748779%)" offset="0.851562"/><stop stop-opacity="1" stop-color="rgb(29.206848%, 3.358459%, 73.867798%)" offset="0.859375"/><stop stop-opacity="1" stop-color="rgb(28.83606%, 3.367615%, 73.986816%)" offset="0.867188"/><stop stop-opacity="1" stop-color="rgb(28.465271%, 3.37677%, 74.107361%)" offset="0.875"/><stop stop-opacity="1" stop-color="rgb(28.094482%, 3.385925%, 74.226379%)" offset="0.882812"/><stop stop-opacity="1" stop-color="rgb(27.723694%, 3.395081%, 74.345398%)" offset="0.890625"/><stop stop-opacity="1" stop-color="rgb(27.352905%, 3.404236%, 74.465942%)" offset="0.898438"/><stop stop-opacity="1" stop-color="rgb(26.982117%, 3.413391%, 74.584961%)" offset="0.90625"/><stop stop-opacity="1" stop-color="rgb(26.611328%, 3.422546%, 74.703979%)" offset="0.914062"/><stop stop-opacity="1" stop-color="rgb(26.24054%, 3.431702%, 74.824524%)" offset="0.921875"/><stop stop-opacity="1" stop-color="rgb(25.869751%, 3.442383%, 74.943542%)" offset="0.929688"/><stop stop-opacity="1" stop-color="rgb(25.498962%, 3.451538%, 75.062561%)" offset="0.9375"/><stop stop-opacity="1" stop-color="rgb(25.128174%, 3.460693%, 75.183105%)" offset="0.945312"/><stop stop-opacity="1" stop-color="rgb(24.757385%, 3.469849%, 75.302124%)" offset="0.953125"/><stop stop-opacity="1" stop-color="rgb(24.388123%, 3.479004%, 75.421143%)" offset="0.960938"/><stop stop-opacity="1" stop-color="rgb(24.017334%, 3.488159%, 75.541687%)" offset="0.96875"/><stop stop-opacity="1" stop-color="rgb(23.646545%, 3.497314%, 75.660706%)" offset="0.976562"/><stop stop-opacity="1" stop-color="rgb(23.275757%, 3.50647%, 75.779724%)" offset="0.984375"/><stop stop-opacity="1" stop-color="rgb(22.904968%, 3.515625%, 75.900269%)" offset="0.992188"/><stop stop-opacity="1" stop-color="rgb(22.53418%, 3.52478%, 76.019287%)" offset="1"/></linearGradient><clipPath id="fbe373d953"><path d="M 0 0 L 120 0 L 120 119.960938 L 0 119.960938 Z M 0 0 " clip-rule="nonzero"/></clipPath><clipPath id="d8e5a175f2"><rect x="0" width="55" y="0" height="32"/></clipPath><clipPath id="ea01836731"><rect x="0" width="57" y="0" height="12"/></clipPath></defs><rect x="-12" width="144" fill="#ffffff" y="-12" height="143.999998" fill-opacity="1"/><rect x="-12" fill="url(#2eeab3fcc7)" width="144" y="-12" height="143.999998"/><g clip-path="url(#fbe373d953)"><path fill="#fffc01" d="M 60 -0.0390625 C 26.851562 -0.0390625 0 26.808594 0 59.960938 C 0 93.109375 26.851562 119.960938 60 119.960938 C 93.148438 119.960938 120 93.109375 120 59.960938 C 120 26.808594 93.148438 -0.0390625 60 -0.0390625 Z M 60 107.960938 C 33.480469 107.960938 12 86.480469 12 59.960938 C 12 33.4375 33.480469 11.960938 60 11.960938 C 86.519531 11.960938 108 33.4375 108 59.960938 C 108 86.480469 86.519531 107.960938 60 107.960938 Z M 60 107.960938 " fill-opacity="1" fill-rule="nonzero"/></g><g transform="matrix(1, 0, 0, 1, 34, 36)"><g clip-path="url(#d8e5a175f2)"><g fill="#fffc01" fill-opacity="1"><g transform="translate(0.812739, 25.348935)"><g><path d="M 2.515625 0 C 2.515625 0 2.523438 -0.078125 2.546875 -0.234375 C 2.578125 -0.390625 2.613281 -0.703125 2.65625 -1.171875 C 2.695312 -1.648438 2.726562 -2.367188 2.75 -3.328125 C 2.78125 -4.285156 2.796875 -5.566406 2.796875 -7.171875 C 2.796875 -7.484375 2.789062 -7.925781 2.78125 -8.5 C 2.769531 -9.070312 2.757812 -9.703125 2.75 -10.390625 C 2.75 -11.078125 2.738281 -11.757812 2.71875 -12.4375 C 2.695312 -13.113281 2.679688 -13.71875 2.671875 -14.25 C 2.671875 -14.78125 2.660156 -15.171875 2.640625 -15.421875 C 2.609375 -16.265625 2.570312 -16.875 2.53125 -17.25 C 2.488281 -17.632812 2.453125 -17.878906 2.421875 -17.984375 C 2.398438 -18.085938 2.390625 -18.140625 2.390625 -18.140625 L 7.15625 -18.140625 C 9.132812 -18.140625 10.582031 -18.179688 11.5 -18.265625 C 12.414062 -18.347656 12.875 -18.390625 12.875 -18.390625 C 12.820312 -17.972656 12.75 -17.597656 12.65625 -17.265625 C 12.570312 -16.941406 12.390625 -16.691406 12.109375 -16.515625 C 11.835938 -16.335938 11.394531 -16.25 10.78125 -16.25 C 9.238281 -16.25 8.03125 -16.316406 7.15625 -16.453125 C 6.289062 -16.585938 5.859375 -16.65625 5.859375 -16.65625 C 5.859375 -16.3125 5.851562 -15.796875 5.84375 -15.109375 C 5.832031 -14.429688 5.828125 -13.671875 5.828125 -12.828125 C 5.828125 -11.992188 5.816406 -11.144531 5.796875 -10.28125 L 9.796875 -10.28125 C 10.328125 -10.28125 10.710938 -10.320312 10.953125 -10.40625 C 11.203125 -10.5 11.328125 -10.546875 11.328125 -10.546875 C 11.304688 -9.941406 11.207031 -9.46875 11.03125 -9.125 C 10.863281 -8.789062 10.441406 -8.625 9.765625 -8.625 C 9.441406 -8.625 9.050781 -8.628906 8.59375 -8.640625 C 8.132812 -8.660156 7.691406 -8.679688 7.265625 -8.703125 C 6.835938 -8.722656 6.484375 -8.738281 6.203125 -8.75 C 5.921875 -8.769531 5.78125 -8.78125 5.78125 -8.78125 L 5.78125 -6.09375 C 5.78125 -5.394531 5.789062 -4.6875 5.8125 -3.96875 C 5.84375 -3.257812 5.863281 -2.503906 5.875 -1.703125 L 10.625 -1.84375 C 12.300781 -1.894531 13.457031 -2.082031 14.09375 -2.40625 C 14.113281 -2.269531 14.125 -2.140625 14.125 -2.015625 C 14.125 -1.898438 14.125 -1.789062 14.125 -1.6875 C 14.125 -1.132812 14.046875 -0.726562 13.890625 -0.46875 C 13.742188 -0.207031 13.492188 -0.046875 13.140625 0.015625 C 12.785156 0.0859375 12.289062 0.125 11.65625 0.125 Z M 2.515625 0 "/></g></g></g><g fill="#fffc01" fill-opacity="1"><g transform="translate(15.889364, 25.348935)"><g><path d="M 5.984375 -2.71875 C 5.796875 -3.375 5.554688 -4.144531 5.265625 -5.03125 C 4.984375 -5.925781 4.675781 -6.875 4.34375 -7.875 C 4.019531 -8.875 3.6875 -9.863281 3.34375 -10.84375 C 3 -11.832031 2.660156 -12.75 2.328125 -13.59375 C 2.003906 -14.445312 1.710938 -15.15625 1.453125 -15.71875 C 1.066406 -16.53125 0.757812 -17.113281 0.53125 -17.46875 C 0.3125 -17.820312 0.203125 -18 0.203125 -18 C 0.203125 -18 0.375 -18.054688 0.71875 -18.171875 C 1.070312 -18.285156 1.6875 -18.34375 2.5625 -18.34375 C 3.007812 -18.34375 3.453125 -18.195312 3.890625 -17.90625 C 4.335938 -17.625 4.617188 -17.207031 4.734375 -16.65625 C 4.929688 -15.875 5.207031 -14.914062 5.5625 -13.78125 C 5.914062 -12.65625 6.316406 -11.445312 6.765625 -10.15625 C 7.210938 -8.863281 7.664062 -7.585938 8.125 -6.328125 C 8.59375 -5.078125 9.03125 -3.960938 9.4375 -2.984375 L 9.53125 -2.984375 L 11.0625 -7.609375 C 11.695312 -9.566406 12.21875 -11.195312 12.625 -12.5 C 13.03125 -13.800781 13.363281 -14.835938 13.625 -15.609375 C 13.882812 -16.390625 14.117188 -16.976562 14.328125 -17.375 C 14.535156 -17.78125 14.765625 -18.039062 15.015625 -18.15625 C 15.265625 -18.28125 15.585938 -18.34375 15.984375 -18.34375 C 16.398438 -18.34375 16.703125 -18.296875 16.890625 -18.203125 C 17.078125 -18.109375 17.171875 -18.0625 17.171875 -18.0625 L 17.171875 -17.921875 C 17.171875 -17.921875 17.078125 -17.828125 16.890625 -17.640625 C 16.703125 -17.453125 16.457031 -17.117188 16.15625 -16.640625 C 15.863281 -16.171875 15.554688 -15.484375 15.234375 -14.578125 L 10.75 -2.15625 C 10.613281 -1.769531 10.488281 -1.378906 10.375 -0.984375 C 10.257812 -0.585938 10.164062 -0.257812 10.09375 0 C 10.03125 0.257812 10 0.390625 10 0.390625 C 10 0.390625 9.832031 0.363281 9.5 0.3125 C 9.175781 0.257812 8.785156 0.140625 8.328125 -0.046875 C 7.867188 -0.242188 7.421875 -0.550781 6.984375 -0.96875 C 6.546875 -1.394531 6.210938 -1.976562 5.984375 -2.71875 Z M 5.984375 -2.71875 "/></g></g></g><g fill="#fffc01" fill-opacity="1"><g transform="translate(32.934743, 25.348935)"><g><path d="M 1.453125 -8.625 C 1.453125 -9.90625 1.648438 -11.132812 2.046875 -12.3125 C 2.441406 -13.5 3.03125 -14.554688 3.8125 -15.484375 C 4.601562 -16.421875 5.582031 -17.160156 6.75 -17.703125 C 7.925781 -18.242188 9.285156 -18.515625 10.828125 -18.515625 C 12.328125 -18.515625 13.640625 -18.273438 14.765625 -17.796875 C 15.890625 -17.328125 16.828125 -16.691406 17.578125 -15.890625 C 18.328125 -15.085938 18.890625 -14.179688 19.265625 -13.171875 C 19.648438 -12.160156 19.84375 -11.113281 19.84375 -10.03125 C 19.84375 -8.695312 19.644531 -7.40625 19.25 -6.15625 C 18.851562 -4.914062 18.257812 -3.800781 17.46875 -2.8125 C 16.6875 -1.832031 15.707031 -1.050781 14.53125 -0.46875 C 13.351562 0.101562 12 0.390625 10.46875 0.390625 C 8.96875 0.390625 7.65625 0.140625 6.53125 -0.359375 C 5.40625 -0.859375 4.46875 -1.53125 3.71875 -2.375 C 2.96875 -3.226562 2.398438 -4.191406 2.015625 -5.265625 C 1.640625 -6.347656 1.453125 -7.46875 1.453125 -8.625 Z M 4.796875 -9.25 C 4.796875 -8.207031 4.921875 -7.195312 5.171875 -6.21875 C 5.429688 -5.25 5.816406 -4.367188 6.328125 -3.578125 C 6.835938 -2.796875 7.46875 -2.175781 8.21875 -1.71875 C 8.976562 -1.257812 9.847656 -1.03125 10.828125 -1.03125 C 11.765625 -1.03125 12.582031 -1.269531 13.28125 -1.75 C 13.976562 -2.226562 14.566406 -2.867188 15.046875 -3.671875 C 15.535156 -4.472656 15.898438 -5.367188 16.140625 -6.359375 C 16.378906 -7.347656 16.5 -8.363281 16.5 -9.40625 C 16.5 -10.375 16.367188 -11.3125 16.109375 -12.21875 C 15.847656 -13.125 15.460938 -13.945312 14.953125 -14.6875 C 14.453125 -15.425781 13.820312 -16.007812 13.0625 -16.4375 C 12.300781 -16.875 11.425781 -17.09375 10.4375 -17.09375 C 9.507812 -17.09375 8.691406 -16.875 7.984375 -16.4375 C 7.285156 -16 6.695312 -15.398438 6.21875 -14.640625 C 5.75 -13.890625 5.394531 -13.046875 5.15625 -12.109375 C 4.914062 -11.179688 4.796875 -10.226562 4.796875 -9.25 Z M 4.796875 -9.25 "/></g></g></g></g></g><g transform="matrix(1, 0, 0, 1, 33, 67)"><g clip-path="url(#ea01836731)"><g fill="#fffc01" fill-opacity="1"><g transform="translate(0.310374, 8.847177)"><g><path d="M 0.875 0 L 0.875 -5.796875 L 3.078125 -5.796875 C 3.429688 -5.796875 3.734375 -5.738281 3.984375 -5.625 C 4.234375 -5.507812 4.421875 -5.347656 4.546875 -5.140625 C 4.671875 -4.929688 4.734375 -4.679688 4.734375 -4.390625 C 4.734375 -4.140625 4.664062 -3.910156 4.53125 -3.703125 C 4.394531 -3.503906 4.195312 -3.347656 3.9375 -3.234375 L 3.9375 -3.15625 C 4.320312 -3.050781 4.613281 -2.875 4.8125 -2.625 C 5.019531 -2.375 5.125 -2.0625 5.125 -1.6875 C 5.125 -1.144531 4.960938 -0.726562 4.640625 -0.4375 C 4.328125 -0.144531 3.859375 0 3.234375 0 Z M 3.046875 -3.359375 C 3.359375 -3.359375 3.601562 -3.441406 3.78125 -3.609375 C 3.957031 -3.785156 4.046875 -4.019531 4.046875 -4.3125 C 4.046875 -4.613281 3.960938 -4.84375 3.796875 -5 C 3.628906 -5.15625 3.378906 -5.234375 3.046875 -5.234375 L 1.5625 -5.234375 L 1.5625 -3.359375 Z M 3.1875 -0.5625 C 4.007812 -0.5625 4.421875 -0.9375 4.421875 -1.6875 C 4.421875 -2.425781 4.007812 -2.796875 3.1875 -2.796875 L 1.5625 -2.796875 L 1.5625 -0.5625 Z M 3.1875 -0.5625 "/></g></g></g><g fill="#fffc01" fill-opacity="1"><g transform="translate(5.893782, 8.847177)"><g><path d="M 0.875 1.859375 C 0.726562 1.859375 0.585938 1.84375 0.453125 1.8125 C 0.328125 1.789062 0.21875 1.757812 0.125 1.71875 L 0.25 1.203125 L 0.328125 1.171875 C 0.390625 1.203125 0.46875 1.226562 0.5625 1.25 C 0.65625 1.28125 0.753906 1.296875 0.859375 1.296875 C 1.035156 1.296875 1.179688 1.269531 1.296875 1.21875 C 1.410156 1.175781 1.507812 1.097656 1.59375 0.984375 C 1.675781 0.878906 1.753906 0.726562 1.828125 0.53125 L 1.984375 0.109375 L 0.21875 -4.375 L 0.921875 -4.375 L 2.296875 -0.8125 L 2.375 -0.8125 L 3.703125 -4.375 L 4.375 -4.375 L 2.40625 0.6875 C 2.300781 0.96875 2.175781 1.191406 2.03125 1.359375 C 1.894531 1.535156 1.734375 1.660156 1.546875 1.734375 C 1.359375 1.816406 1.132812 1.859375 0.875 1.859375 Z M 0.875 1.859375 "/></g></g></g><g fill="#fffc01" fill-opacity="1"><g transform="translate(10.508924, 8.847177)"><g/></g></g><g fill="#fffc01" fill-opacity="1"><g transform="translate(12.501014, 8.847177)"><g><path d="M 2.515625 0.078125 C 2.097656 0.078125 1.734375 -0.00390625 1.421875 -0.171875 C 1.117188 -0.347656 0.882812 -0.601562 0.71875 -0.9375 C 0.5625 -1.28125 0.484375 -1.695312 0.484375 -2.1875 C 0.484375 -2.664062 0.5625 -3.078125 0.71875 -3.421875 C 0.882812 -3.765625 1.117188 -4.019531 1.421875 -4.1875 C 1.734375 -4.363281 2.097656 -4.453125 2.515625 -4.453125 C 2.921875 -4.453125 3.273438 -4.363281 3.578125 -4.1875 C 3.890625 -4.019531 4.128906 -3.765625 4.296875 -3.421875 C 4.460938 -3.078125 4.546875 -2.664062 4.546875 -2.1875 C 4.546875 -1.695312 4.460938 -1.28125 4.296875 -0.9375 C 4.128906 -0.601562 3.890625 -0.347656 3.578125 -0.171875 C 3.273438 -0.00390625 2.921875 0.078125 2.515625 0.078125 Z M 2.515625 -0.5 C 2.953125 -0.5 3.285156 -0.632812 3.515625 -0.90625 C 3.742188 -1.1875 3.859375 -1.613281 3.859375 -2.1875 C 3.859375 -2.769531 3.742188 -3.195312 3.515625 -3.46875 C 3.285156 -3.738281 2.953125 -3.875 2.515625 -3.875 C 2.078125 -3.875 1.738281 -3.734375 1.5 -3.453125 C 1.269531 -3.179688 1.15625 -2.757812 1.15625 -2.1875 C 1.15625 -1.613281 1.269531 -1.1875 1.5 -0.90625 C 1.738281 -0.632812 2.078125 -0.5 2.515625 -0.5 Z M 2.515625 -0.5 "/></g></g></g><g fill="#fffc01" fill-opacity="1"><g transform="translate(17.524891, 8.847177)"><g><path d="M 0.765625 1.765625 L 0.765625 -4.375 L 1.40625 -4.375 L 1.40625 -3.71875 L 1.484375 -3.703125 C 1.816406 -4.203125 2.296875 -4.453125 2.921875 -4.453125 C 3.285156 -4.453125 3.601562 -4.367188 3.875 -4.203125 C 4.144531 -4.035156 4.351562 -3.78125 4.5 -3.4375 C 4.65625 -3.101562 4.734375 -2.6875 4.734375 -2.1875 C 4.734375 -1.6875 4.65625 -1.265625 4.5 -0.921875 C 4.34375 -0.585938 4.125 -0.335938 3.84375 -0.171875 C 3.5625 -0.00390625 3.238281 0.078125 2.875 0.078125 C 2.582031 0.078125 2.316406 0.03125 2.078125 -0.0625 C 1.847656 -0.164062 1.648438 -0.335938 1.484375 -0.578125 L 1.40625 -0.5625 L 1.40625 1.765625 Z M 2.734375 -0.5 C 3.617188 -0.5 4.0625 -1.0625 4.0625 -2.1875 C 4.0625 -3.3125 3.617188 -3.875 2.734375 -3.875 C 2.472656 -3.875 2.242188 -3.8125 2.046875 -3.6875 C 1.847656 -3.570312 1.691406 -3.390625 1.578125 -3.140625 C 1.460938 -2.890625 1.40625 -2.570312 1.40625 -2.1875 C 1.40625 -1.800781 1.460938 -1.484375 1.578125 -1.234375 C 1.691406 -0.984375 1.847656 -0.796875 2.046875 -0.671875 C 2.242188 -0.554688 2.472656 -0.5 2.734375 -0.5 Z M 2.734375 -0.5 "/></g></g></g><g fill="#fffc01" fill-opacity="1"><g transform="translate(22.747184, 8.847177)"><g><path d="M 2.953125 -0.6875 L 3.171875 -0.234375 C 3.066406 -0.128906 2.925781 -0.0507812 2.75 0 C 2.582031 0.0507812 2.40625 0.078125 2.21875 0.078125 C 1.375 0.078125 0.953125 -0.34375 0.953125 -1.1875 L 0.953125 -3.84375 L 0.203125 -3.84375 L 0.203125 -4.375 L 0.953125 -4.375 L 0.953125 -5.296875 L 1.609375 -5.40625 L 1.609375 -4.375 L 3.015625 -4.375 L 3.015625 -3.84375 L 1.609375 -3.84375 L 1.609375 -1.25 C 1.609375 -0.75 1.828125 -0.5 2.265625 -0.5 C 2.503906 -0.5 2.707031 -0.5625 2.875 -0.6875 Z M 2.953125 -0.6875 "/></g></g></g><g fill="#fffc01" fill-opacity="1"><g transform="translate(26.080562, 8.847177)"><g><path d="M 1.09375 -5.21875 C 0.945312 -5.21875 0.832031 -5.257812 0.75 -5.34375 C 0.664062 -5.4375 0.625 -5.546875 0.625 -5.671875 C 0.625 -5.804688 0.664062 -5.914062 0.75 -6 C 0.832031 -6.09375 0.945312 -6.140625 1.09375 -6.140625 C 1.226562 -6.140625 1.335938 -6.09375 1.421875 -6 C 1.503906 -5.914062 1.546875 -5.804688 1.546875 -5.671875 C 1.546875 -5.546875 1.503906 -5.4375 1.421875 -5.34375 C 1.335938 -5.257812 1.226562 -5.21875 1.09375 -5.21875 Z M 0.765625 0 L 0.765625 -4.375 L 1.40625 -4.375 L 1.40625 0 Z M 0.765625 0 "/></g></g></g><g fill="#fffc01" fill-opacity="1"><g transform="translate(28.251226, 8.847177)"><g><path d="M 2.25 1.859375 C 1.5625 1.859375 1.054688 1.742188 0.734375 1.515625 C 0.421875 1.285156 0.265625 0.976562 0.265625 0.59375 C 0.265625 0.34375 0.335938 0.144531 0.484375 0 C 0.628906 -0.132812 0.847656 -0.238281 1.140625 -0.3125 L 1.140625 -0.390625 C 1.003906 -0.460938 0.898438 -0.550781 0.828125 -0.65625 C 0.765625 -0.757812 0.734375 -0.882812 0.734375 -1.03125 C 0.734375 -1.195312 0.785156 -1.332031 0.890625 -1.4375 C 0.992188 -1.539062 1.15625 -1.625 1.375 -1.6875 L 1.375 -1.765625 C 0.894531 -2.015625 0.65625 -2.421875 0.65625 -2.984375 C 0.65625 -3.273438 0.71875 -3.53125 0.84375 -3.75 C 0.976562 -3.976562 1.164062 -4.148438 1.40625 -4.265625 C 1.644531 -4.390625 1.925781 -4.453125 2.25 -4.453125 C 2.613281 -4.453125 2.921875 -4.375 3.171875 -4.21875 C 3.265625 -4.320312 3.332031 -4.429688 3.375 -4.546875 C 3.414062 -4.660156 3.445312 -4.796875 3.46875 -4.953125 L 3.546875 -5 L 4.078125 -4.875 C 4.046875 -4.644531 3.976562 -4.453125 3.875 -4.296875 C 3.769531 -4.148438 3.617188 -4.023438 3.421875 -3.921875 L 3.421875 -3.84375 C 3.566406 -3.726562 3.671875 -3.597656 3.734375 -3.453125 C 3.804688 -3.304688 3.84375 -3.132812 3.84375 -2.9375 C 3.84375 -2.65625 3.773438 -2.40625 3.640625 -2.1875 C 3.503906 -1.96875 3.316406 -1.796875 3.078125 -1.671875 C 2.835938 -1.546875 2.5625 -1.484375 2.25 -1.484375 C 2.207031 -1.484375 2.140625 -1.484375 2.046875 -1.484375 C 1.941406 -1.492188 1.863281 -1.5 1.8125 -1.5 C 1.675781 -1.5 1.566406 -1.460938 1.484375 -1.390625 C 1.398438 -1.316406 1.359375 -1.226562 1.359375 -1.125 C 1.359375 -0.976562 1.398438 -0.875 1.484375 -0.8125 C 1.578125 -0.75 1.726562 -0.710938 1.9375 -0.703125 L 2.96875 -0.671875 C 3.414062 -0.648438 3.742188 -0.546875 3.953125 -0.359375 C 4.171875 -0.171875 4.28125 0.0976562 4.28125 0.453125 C 4.28125 0.710938 4.207031 0.945312 4.0625 1.15625 C 3.925781 1.375 3.707031 1.546875 3.40625 1.671875 C 3.101562 1.796875 2.71875 1.859375 2.25 1.859375 Z M 2.25 -2.046875 C 2.550781 -2.046875 2.785156 -2.125 2.953125 -2.28125 C 3.128906 -2.4375 3.21875 -2.660156 3.21875 -2.953125 C 3.21875 -3.253906 3.132812 -3.488281 2.96875 -3.65625 C 2.800781 -3.820312 2.5625 -3.90625 2.25 -3.90625 C 1.9375 -3.90625 1.695312 -3.820312 1.53125 -3.65625 C 1.363281 -3.5 1.28125 -3.265625 1.28125 -2.953125 C 1.28125 -2.660156 1.363281 -2.4375 1.53125 -2.28125 C 1.695312 -2.125 1.9375 -2.046875 2.25 -2.046875 Z M 2.25 1.296875 C 2.570312 1.296875 2.835938 1.257812 3.046875 1.1875 C 3.253906 1.125 3.398438 1.03125 3.484375 0.90625 C 3.578125 0.789062 3.625 0.660156 3.625 0.515625 C 3.625 0.390625 3.597656 0.285156 3.546875 0.203125 C 3.492188 0.117188 3.414062 0.0546875 3.3125 0.015625 C 3.207031 -0.015625 3.0625 -0.0351562 2.875 -0.046875 L 1.890625 -0.09375 L 1.75 -0.09375 C 1.195312 -0.09375 0.921875 0.117188 0.921875 0.546875 C 0.921875 1.046875 1.363281 1.296875 2.25 1.296875 Z M 2.25 1.296875 "/></g></g></g><g fill="#fffc01" fill-opacity="1"><g transform="translate(32.667941, 8.847177)"><g><path d="M 2.515625 0.078125 C 2.097656 0.078125 1.734375 -0.00390625 1.421875 -0.171875 C 1.117188 -0.347656 0.882812 -0.601562 0.71875 -0.9375 C 0.5625 -1.28125 0.484375 -1.695312 0.484375 -2.1875 C 0.484375 -2.664062 0.5625 -3.078125 0.71875 -3.421875 C 0.882812 -3.765625 1.117188 -4.019531 1.421875 -4.1875 C 1.734375 -4.363281 2.097656 -4.453125 2.515625 -4.453125 C 2.921875 -4.453125 3.273438 -4.363281 3.578125 -4.1875 C 3.890625 -4.019531 4.128906 -3.765625 4.296875 -3.421875 C 4.460938 -3.078125 4.546875 -2.664062 4.546875 -2.1875 C 4.546875 -1.695312 4.460938 -1.28125 4.296875 -0.9375 C 4.128906 -0.601562 3.890625 -0.347656 3.578125 -0.171875 C 3.273438 -0.00390625 2.921875 0.078125 2.515625 0.078125 Z M 2.515625 -0.5 C 2.953125 -0.5 3.285156 -0.632812 3.515625 -0.90625 C 3.742188 -1.1875 3.859375 -1.613281 3.859375 -2.1875 C 3.859375 -2.769531 3.742188 -3.195312 3.515625 -3.46875 C 3.285156 -3.738281 2.953125 -3.875 2.515625 -3.875 C 2.078125 -3.875 1.738281 -3.734375 1.5 -3.453125 C 1.269531 -3.179688 1.15625 -2.757812 1.15625 -2.1875 C 1.15625 -1.613281 1.269531 -1.1875 1.5 -0.90625 C 1.738281 -0.632812 2.078125 -0.5 2.515625 -0.5 Z M 2.515625 -0.5 "/></g></g></g><g fill="#fffc01" fill-opacity="1"><g transform="translate(37.691818, 8.847177)"><g><path d="M 1.8125 0.078125 C 1.375 0.078125 1.035156 -0.03125 0.796875 -0.25 C 0.554688 -0.476562 0.4375 -0.800781 0.4375 -1.21875 C 0.4375 -1.476562 0.488281 -1.695312 0.59375 -1.875 C 0.695312 -2.050781 0.859375 -2.195312 1.078125 -2.3125 C 1.304688 -2.425781 1.601562 -2.515625 1.96875 -2.578125 C 2.289062 -2.628906 2.53125 -2.6875 2.6875 -2.75 C 2.851562 -2.8125 2.960938 -2.882812 3.015625 -2.96875 C 3.078125 -3.050781 3.109375 -3.15625 3.109375 -3.28125 C 3.109375 -3.476562 3.039062 -3.628906 2.90625 -3.734375 C 2.769531 -3.835938 2.550781 -3.890625 2.25 -3.890625 C 1.96875 -3.890625 1.722656 -3.832031 1.515625 -3.71875 C 1.316406 -3.613281 1.132812 -3.453125 0.96875 -3.234375 L 0.890625 -3.234375 L 0.578125 -3.6875 C 0.753906 -3.925781 0.984375 -4.113281 1.265625 -4.25 C 1.554688 -4.382812 1.882812 -4.453125 2.25 -4.453125 C 2.769531 -4.453125 3.148438 -4.335938 3.390625 -4.109375 C 3.640625 -3.890625 3.765625 -3.582031 3.765625 -3.1875 L 3.765625 -0.859375 C 3.765625 -0.617188 3.867188 -0.5 4.078125 -0.5 C 4.140625 -0.5 4.203125 -0.507812 4.265625 -0.53125 L 4.328125 -0.515625 L 4.40625 -0.0625 C 4.351562 -0.03125 4.285156 -0.0078125 4.203125 0 C 4.128906 0.0195312 4.050781 0.03125 3.96875 0.03125 C 3.726562 0.03125 3.546875 -0.0195312 3.421875 -0.125 C 3.296875 -0.226562 3.21875 -0.382812 3.1875 -0.59375 L 3.109375 -0.609375 C 2.984375 -0.378906 2.8125 -0.207031 2.59375 -0.09375 C 2.382812 0.0195312 2.125 0.078125 1.8125 0.078125 Z M 1.953125 -0.4375 C 2.191406 -0.4375 2.398438 -0.488281 2.578125 -0.59375 C 2.753906 -0.707031 2.890625 -0.863281 2.984375 -1.0625 C 3.085938 -1.269531 3.140625 -1.507812 3.140625 -1.78125 L 3.140625 -2.34375 L 3.0625 -2.359375 C 2.957031 -2.285156 2.832031 -2.222656 2.6875 -2.171875 C 2.550781 -2.128906 2.359375 -2.09375 2.109375 -2.0625 C 1.859375 -2.019531 1.65625 -1.960938 1.5 -1.890625 C 1.351562 -1.828125 1.25 -1.738281 1.1875 -1.625 C 1.125 -1.507812 1.09375 -1.375 1.09375 -1.21875 C 1.09375 -0.957031 1.164062 -0.757812 1.3125 -0.625 C 1.46875 -0.5 1.679688 -0.4375 1.953125 -0.4375 Z M 1.953125 -0.4375 "/></g></g></g><g fill="#fffc01" fill-opacity="1"><g transform="translate(42.219657, 8.847177)"><g><path d="M 0.765625 1.765625 L 0.765625 -4.375 L 1.40625 -4.375 L 1.40625 -3.71875 L 1.484375 -3.703125 C 1.816406 -4.203125 2.296875 -4.453125 2.921875 -4.453125 C 3.285156 -4.453125 3.601562 -4.367188 3.875 -4.203125 C 4.144531 -4.035156 4.351562 -3.78125 4.5 -3.4375 C 4.65625 -3.101562 4.734375 -2.6875 4.734375 -2.1875 C 4.734375 -1.6875 4.65625 -1.265625 4.5 -0.921875 C 4.34375 -0.585938 4.125 -0.335938 3.84375 -0.171875 C 3.5625 -0.00390625 3.238281 0.078125 2.875 0.078125 C 2.582031 0.078125 2.316406 0.03125 2.078125 -0.0625 C 1.847656 -0.164062 1.648438 -0.335938 1.484375 -0.578125 L 1.40625 -0.5625 L 1.40625 1.765625 Z M 2.734375 -0.5 C 3.617188 -0.5 4.0625 -1.0625 4.0625 -2.1875 C 4.0625 -3.3125 3.617188 -3.875 2.734375 -3.875 C 2.472656 -3.875 2.242188 -3.8125 2.046875 -3.6875 C 1.847656 -3.570312 1.691406 -3.390625 1.578125 -3.140625 C 1.460938 -2.890625 1.40625 -2.570312 1.40625 -2.1875 C 1.40625 -1.800781 1.460938 -1.484375 1.578125 -1.234375 C 1.691406 -0.984375 1.847656 -0.796875 2.046875 -0.671875 C 2.242188 -0.554688 2.472656 -0.5 2.734375 -0.5 Z M 2.734375 -0.5 "/></g></g></g><g fill="#fffc01" fill-opacity="1"><g transform="translate(47.44195, 8.847177)"><g><path d="M 0.765625 1.765625 L 0.765625 -4.375 L 1.40625 -4.375 L 1.40625 -3.71875 L 1.484375 -3.703125 C 1.816406 -4.203125 2.296875 -4.453125 2.921875 -4.453125 C 3.285156 -4.453125 3.601562 -4.367188 3.875 -4.203125 C 4.144531 -4.035156 4.351562 -3.78125 4.5 -3.4375 C 4.65625 -3.101562 4.734375 -2.6875 4.734375 -2.1875 C 4.734375 -1.6875 4.65625 -1.265625 4.5 -0.921875 C 4.34375 -0.585938 4.125 -0.335938 3.84375 -0.171875 C 3.5625 -0.00390625 3.238281 0.078125 2.875 0.078125 C 2.582031 0.078125 2.316406 0.03125 2.078125 -0.0625 C 1.847656 -0.164062 1.648438 -0.335938 1.484375 -0.578125 L 1.40625 -0.5625 L 1.40625 1.765625 Z M 2.734375 -0.5 C 3.617188 -0.5 4.0625 -1.0625 4.0625 -2.1875 C 4.0625 -3.3125 3.617188 -3.875 2.734375 -3.875 C 2.472656 -3.875 2.242188 -3.8125 2.046875 -3.6875 C 1.847656 -3.570312 1.691406 -3.390625 1.578125 -3.140625 C 1.460938 -2.890625 1.40625 -2.570312 1.40625 -2.1875 C 1.40625 -1.800781 1.460938 -1.484375 1.578125 -1.234375 C 1.691406 -0.984375 1.847656 -0.796875 2.046875 -0.671875 C 2.242188 -0.554688 2.472656 -0.5 2.734375 -0.5 Z M 2.734375 -0.5 "/></g></g></g><g fill="#fffc01" fill-opacity="1"><g transform="translate(52.664242, 8.847177)"><g><path d="M 2 0.078125 C 1.71875 0.078125 1.457031 0.0390625 1.21875 -0.03125 C 0.988281 -0.101562 0.789062 -0.203125 0.625 -0.328125 C 0.46875 -0.453125 0.359375 -0.59375 0.296875 -0.75 L 0.671875 -1.15625 L 0.765625 -1.15625 C 0.898438 -0.9375 1.066406 -0.769531 1.265625 -0.65625 C 1.472656 -0.550781 1.71875 -0.5 2 -0.5 C 2.320312 -0.5 2.566406 -0.5625 2.734375 -0.6875 C 2.898438 -0.8125 2.984375 -0.984375 2.984375 -1.203125 C 2.984375 -1.378906 2.929688 -1.523438 2.828125 -1.640625 C 2.722656 -1.753906 2.5625 -1.835938 2.34375 -1.890625 L 1.59375 -2.078125 C 1.195312 -2.171875 0.910156 -2.316406 0.734375 -2.515625 C 0.554688 -2.722656 0.46875 -2.976562 0.46875 -3.28125 C 0.46875 -3.519531 0.523438 -3.726562 0.640625 -3.90625 C 0.765625 -4.082031 0.941406 -4.21875 1.171875 -4.3125 C 1.398438 -4.40625 1.671875 -4.453125 1.984375 -4.453125 C 2.390625 -4.453125 2.707031 -4.394531 2.9375 -4.28125 C 3.164062 -4.175781 3.347656 -4.023438 3.484375 -3.828125 L 3.109375 -3.46875 L 3.03125 -3.46875 C 2.894531 -3.625 2.742188 -3.738281 2.578125 -3.8125 C 2.410156 -3.882812 2.210938 -3.921875 1.984375 -3.921875 C 1.703125 -3.921875 1.484375 -3.867188 1.328125 -3.765625 C 1.171875 -3.660156 1.09375 -3.507812 1.09375 -3.3125 C 1.09375 -3.132812 1.144531 -2.988281 1.25 -2.875 C 1.363281 -2.769531 1.554688 -2.6875 1.828125 -2.625 L 2.546875 -2.453125 C 2.929688 -2.359375 3.207031 -2.207031 3.375 -2 C 3.539062 -1.789062 3.625 -1.53125 3.625 -1.21875 C 3.625 -0.957031 3.5625 -0.726562 3.4375 -0.53125 C 3.320312 -0.34375 3.140625 -0.191406 2.890625 -0.078125 C 2.648438 0.0234375 2.351562 0.078125 2 0.078125 Z M 2 0.078125 "/></g></g></g></g></g></svg>