<svg xmlns="http://www.w3.org/2000/svg" xmlns:xlink="http://www.w3.org/1999/xlink" width="500" zoomAndPan="magnify" viewBox="0 0 375 374.999991" height="500" preserveAspectRatio="xMidYMid meet" version="1.0"><defs><g/><linearGradient x1="0" gradientTransform="matrix(0.75, 0, 0, 0.75, 0.0000045, 0)" y1="0" x2="499.999979" gradientUnits="userSpaceOnUse" y2="499.999979" id="6a4dfc8ac2"><stop stop-opacity="1" stop-color="rgb(0%, 29.019165%, 67.83905%)" offset="0"/><stop stop-opacity="1" stop-color="rgb(0.309753%, 29.071045%, 67.926025%)" offset="0.00390625"/><stop stop-opacity="1" stop-color="rgb(0.621033%, 29.122925%, 68.014526%)" offset="0.0078125"/><stop stop-opacity="1" stop-color="rgb(0.932312%, 29.174805%, 68.101501%)" offset="0.0117187"/><stop stop-opacity="1" stop-color="rgb(1.243591%, 29.22821%, 68.188477%)" offset="0.015625"/><stop stop-opacity="1" stop-color="rgb(1.553345%, 29.28009%, 68.275452%)" offset="0.0195312"/><stop stop-opacity="1" stop-color="rgb(1.864624%, 29.33197%, 68.363953%)" offset="0.0234375"/><stop stop-opacity="1" stop-color="rgb(2.175903%, 29.38385%, 68.450928%)" offset="0.0273438"/><stop stop-opacity="1" stop-color="rgb(2.487183%, 29.43573%, 68.537903%)" offset="0.03125"/><stop stop-opacity="1" stop-color="rgb(2.798462%, 29.48761%, 68.624878%)" offset="0.0351562"/><stop stop-opacity="1" stop-color="rgb(3.109741%, 29.53949%, 68.713379%)" offset="0.0390625"/><stop stop-opacity="1" stop-color="rgb(3.419495%, 29.59137%, 68.800354%)" offset="0.0429687"/><stop stop-opacity="1" stop-color="rgb(3.730774%, 29.644775%, 68.887329%)" offset="0.046875"/><stop stop-opacity="1" stop-color="rgb(4.042053%, 29.696655%, 68.974304%)" offset="0.0507812"/><stop stop-opacity="1" stop-color="rgb(4.353333%, 29.748535%, 69.062805%)" offset="0.0546875"/><stop stop-opacity="1" stop-color="rgb(4.663086%, 29.800415%, 69.14978%)" offset="0.0585938"/><stop stop-opacity="1" stop-color="rgb(4.974365%, 29.852295%, 69.236755%)" offset="0.0625"/><stop stop-opacity="1" stop-color="rgb(5.285645%, 29.904175%, 69.32373%)" offset="0.0664062"/><stop stop-opacity="1" stop-color="rgb(5.596924%, 29.956055%, 69.410706%)" offset="0.0703125"/><stop stop-opacity="1" stop-color="rgb(5.908203%, 30.007935%, 69.497681%)" offset="0.0742187"/><stop stop-opacity="1" stop-color="rgb(6.219482%, 30.06134%, 69.586182%)" offset="0.078125"/><stop stop-opacity="1" stop-color="rgb(6.529236%, 30.11322%, 69.673157%)" offset="0.0820312"/><stop stop-opacity="1" stop-color="rgb(6.840515%, 30.1651%, 69.760132%)" offset="0.0859375"/><stop stop-opacity="1" stop-color="rgb(7.151794%, 30.21698%, 69.847107%)" offset="0.0898437"/><stop stop-opacity="1" stop-color="rgb(7.463074%, 30.26886%, 69.935608%)" offset="0.09375"/><stop stop-opacity="1" stop-color="rgb(7.772827%, 30.32074%, 70.022583%)" offset="0.0976562"/><stop stop-opacity="1" stop-color="rgb(8.084106%, 30.37262%, 70.109558%)" offset="0.101562"/><stop stop-opacity="1" stop-color="rgb(8.395386%, 30.4245%, 70.196533%)" offset="0.105469"/><stop stop-opacity="1" stop-color="rgb(8.706665%, 30.477905%, 70.285034%)" offset="0.109375"/><stop stop-opacity="1" stop-color="rgb(9.017944%, 30.529785%, 70.372009%)" offset="0.113281"/><stop stop-opacity="1" stop-color="rgb(9.329224%, 30.581665%, 70.458984%)" offset="0.117188"/><stop stop-opacity="1" stop-color="rgb(9.638977%, 30.633545%, 70.545959%)" offset="0.121094"/><stop stop-opacity="1" stop-color="rgb(9.950256%, 30.685425%, 70.63446%)" offset="0.125"/><stop stop-opacity="1" stop-color="rgb(10.261536%, 30.737305%, 70.721436%)" offset="0.128906"/><stop stop-opacity="1" stop-color="rgb(10.572815%, 30.789185%, 70.808411%)" offset="0.132812"/><stop stop-opacity="1" stop-color="rgb(10.882568%, 30.841064%, 70.895386%)" offset="0.136719"/><stop stop-opacity="1" stop-color="rgb(11.193848%, 30.89447%, 70.983887%)" offset="0.140625"/><stop stop-opacity="1" stop-color="rgb(11.505127%, 30.94635%, 71.070862%)" offset="0.144531"/><stop stop-opacity="1" stop-color="rgb(11.816406%, 30.99823%, 71.157837%)" offset="0.148437"/><stop stop-opacity="1" stop-color="rgb(12.127686%, 31.05011%, 71.244812%)" offset="0.152344"/><stop stop-opacity="1" stop-color="rgb(12.438965%, 31.10199%, 71.333313%)" offset="0.15625"/><stop stop-opacity="1" stop-color="rgb(12.748718%, 31.15387%, 71.420288%)" offset="0.160156"/><stop stop-opacity="1" stop-color="rgb(13.059998%, 31.20575%, 71.507263%)" offset="0.164062"/><stop stop-opacity="1" stop-color="rgb(13.371277%, 31.257629%, 71.594238%)" offset="0.167969"/><stop stop-opacity="1" stop-color="rgb(13.682556%, 31.311035%, 71.682739%)" offset="0.171875"/><stop stop-opacity="1" stop-color="rgb(13.99231%, 31.362915%, 71.769714%)" offset="0.175781"/><stop stop-opacity="1" stop-color="rgb(14.303589%, 31.414795%, 71.856689%)" offset="0.179687"/><stop stop-opacity="1" stop-color="rgb(14.614868%, 31.466675%, 71.943665%)" offset="0.183594"/><stop stop-opacity="1" stop-color="rgb(14.926147%, 31.518555%, 72.032166%)" offset="0.1875"/><stop stop-opacity="1" stop-color="rgb(15.237427%, 31.570435%, 72.119141%)" offset="0.191406"/><stop stop-opacity="1" stop-color="rgb(15.548706%, 31.622314%, 72.206116%)" offset="0.195312"/><stop stop-opacity="1" stop-color="rgb(15.858459%, 31.674194%, 72.293091%)" offset="0.199219"/><stop stop-opacity="1" stop-color="rgb(16.169739%, 31.7276%, 72.381592%)" offset="0.203125"/><stop stop-opacity="1" stop-color="rgb(16.481018%, 31.77948%, 72.468567%)" offset="0.207031"/><stop stop-opacity="1" stop-color="rgb(16.792297%, 31.83136%, 72.555542%)" offset="0.210938"/><stop stop-opacity="1" stop-color="rgb(17.102051%, 31.88324%, 72.642517%)" offset="0.214844"/><stop stop-opacity="1" stop-color="rgb(17.41333%, 31.93512%, 72.731018%)" offset="0.21875"/><stop stop-opacity="1" stop-color="rgb(17.724609%, 31.987%, 72.817993%)" offset="0.222656"/><stop stop-opacity="1" stop-color="rgb(18.035889%, 32.038879%, 72.904968%)" offset="0.226562"/><stop stop-opacity="1" stop-color="rgb(18.347168%, 32.090759%, 72.991943%)" offset="0.230469"/><stop stop-opacity="1" stop-color="rgb(18.658447%, 32.144165%, 73.080444%)" offset="0.234375"/><stop stop-opacity="1" stop-color="rgb(18.968201%, 32.196045%, 73.167419%)" offset="0.238281"/><stop stop-opacity="1" stop-color="rgb(19.27948%, 32.247925%, 73.254395%)" offset="0.242188"/><stop stop-opacity="1" stop-color="rgb(19.590759%, 32.299805%, 73.34137%)" offset="0.246094"/><stop stop-opacity="1" stop-color="rgb(19.902039%, 32.351685%, 73.429871%)" offset="0.25"/><stop stop-opacity="1" stop-color="rgb(20.211792%, 32.403564%, 73.516846%)" offset="0.253906"/><stop stop-opacity="1" stop-color="rgb(20.523071%, 32.455444%, 73.603821%)" offset="0.257812"/><stop stop-opacity="1" stop-color="rgb(20.834351%, 32.507324%, 73.690796%)" offset="0.261719"/><stop stop-opacity="1" stop-color="rgb(21.14563%, 32.56073%, 73.779297%)" offset="0.265625"/><stop stop-opacity="1" stop-color="rgb(21.456909%, 32.61261%, 73.866272%)" offset="0.269531"/><stop stop-opacity="1" stop-color="rgb(21.768188%, 32.66449%, 73.953247%)" offset="0.273437"/><stop stop-opacity="1" stop-color="rgb(22.077942%, 32.71637%, 74.040222%)" offset="0.277344"/><stop stop-opacity="1" stop-color="rgb(22.389221%, 32.76825%, 74.128723%)" offset="0.28125"/><stop stop-opacity="1" stop-color="rgb(22.7005%, 32.820129%, 74.215698%)" offset="0.285156"/><stop stop-opacity="1" stop-color="rgb(23.01178%, 32.872009%, 74.302673%)" offset="0.289062"/><stop stop-opacity="1" stop-color="rgb(23.321533%, 32.923889%, 74.389648%)" offset="0.292969"/><stop stop-opacity="1" stop-color="rgb(23.632812%, 32.977295%, 74.476624%)" offset="0.296875"/><stop stop-opacity="1" stop-color="rgb(23.944092%, 33.029175%, 74.563599%)" offset="0.300781"/><stop stop-opacity="1" stop-color="rgb(24.255371%, 33.081055%, 74.6521%)" offset="0.304687"/><stop stop-opacity="1" stop-color="rgb(24.56665%, 33.132935%, 74.739075%)" offset="0.308594"/><stop stop-opacity="1" stop-color="rgb(24.87793%, 33.184814%, 74.82605%)" offset="0.3125"/><stop stop-opacity="1" stop-color="rgb(25.187683%, 33.236694%, 74.913025%)" offset="0.316406"/><stop stop-opacity="1" stop-color="rgb(25.498962%, 33.288574%, 75.001526%)" offset="0.320312"/><stop stop-opacity="1" stop-color="rgb(25.810242%, 33.340454%, 75.088501%)" offset="0.324219"/><stop stop-opacity="1" stop-color="rgb(26.121521%, 33.39386%, 75.175476%)" offset="0.328125"/><stop stop-opacity="1" stop-color="rgb(26.431274%, 33.44574%, 75.262451%)" offset="0.332031"/><stop stop-opacity="1" stop-color="rgb(26.742554%, 33.49762%, 75.350952%)" offset="0.335937"/><stop stop-opacity="1" stop-color="rgb(27.053833%, 33.5495%, 75.437927%)" offset="0.339844"/><stop stop-opacity="1" stop-color="rgb(27.365112%, 33.601379%, 75.524902%)" offset="0.34375"/><stop stop-opacity="1" stop-color="rgb(27.676392%, 33.653259%, 75.611877%)" offset="0.347656"/><stop stop-opacity="1" stop-color="rgb(27.987671%, 33.705139%, 75.700378%)" offset="0.351562"/><stop stop-opacity="1" stop-color="rgb(28.297424%, 33.757019%, 75.787354%)" offset="0.355469"/><stop stop-opacity="1" stop-color="rgb(28.608704%, 33.810425%, 75.874329%)" offset="0.359375"/><stop stop-opacity="1" stop-color="rgb(28.919983%, 33.862305%, 75.961304%)" offset="0.363281"/><stop stop-opacity="1" stop-color="rgb(29.231262%, 33.914185%, 76.049805%)" offset="0.367187"/><stop stop-opacity="1" stop-color="rgb(29.541016%, 33.966064%, 76.13678%)" offset="0.371094"/><stop stop-opacity="1" stop-color="rgb(29.852295%, 34.017944%, 76.223755%)" offset="0.375"/><stop stop-opacity="1" stop-color="rgb(30.163574%, 34.069824%, 76.31073%)" offset="0.378906"/><stop stop-opacity="1" stop-color="rgb(30.474854%, 34.121704%, 76.399231%)" offset="0.382812"/><stop stop-opacity="1" stop-color="rgb(30.786133%, 34.173584%, 76.486206%)" offset="0.386719"/><stop stop-opacity="1" stop-color="rgb(31.097412%, 34.22699%, 76.573181%)" offset="0.390625"/><stop stop-opacity="1" stop-color="rgb(31.407166%, 34.27887%, 76.660156%)" offset="0.394531"/><stop stop-opacity="1" stop-color="rgb(31.718445%, 34.33075%, 76.748657%)" offset="0.398438"/><stop stop-opacity="1" stop-color="rgb(32.029724%, 34.382629%, 76.835632%)" offset="0.402344"/><stop stop-opacity="1" stop-color="rgb(32.341003%, 34.434509%, 76.922607%)" offset="0.40625"/><stop stop-opacity="1" stop-color="rgb(32.650757%, 34.486389%, 77.009583%)" offset="0.410156"/><stop stop-opacity="1" stop-color="rgb(32.962036%, 34.538269%, 77.098083%)" offset="0.414062"/><stop stop-opacity="1" stop-color="rgb(33.273315%, 34.590149%, 77.185059%)" offset="0.417969"/><stop stop-opacity="1" stop-color="rgb(33.584595%, 34.643555%, 77.272034%)" offset="0.421875"/><stop stop-opacity="1" stop-color="rgb(33.895874%, 34.695435%, 77.359009%)" offset="0.425781"/><stop stop-opacity="1" stop-color="rgb(34.207153%, 34.747314%, 77.44751%)" offset="0.429688"/><stop stop-opacity="1" stop-color="rgb(34.516907%, 34.799194%, 77.534485%)" offset="0.433594"/><stop stop-opacity="1" stop-color="rgb(34.828186%, 34.851074%, 77.62146%)" offset="0.4375"/><stop stop-opacity="1" stop-color="rgb(35.139465%, 34.902954%, 77.708435%)" offset="0.441406"/><stop stop-opacity="1" stop-color="rgb(35.450745%, 34.954834%, 77.796936%)" offset="0.445312"/><stop stop-opacity="1" stop-color="rgb(35.760498%, 35.006714%, 77.883911%)" offset="0.449219"/><stop stop-opacity="1" stop-color="rgb(36.071777%, 35.06012%, 77.970886%)" offset="0.453125"/><stop stop-opacity="1" stop-color="rgb(36.383057%, 35.112%, 78.057861%)" offset="0.457031"/><stop stop-opacity="1" stop-color="rgb(36.694336%, 35.163879%, 78.146362%)" offset="0.460938"/><stop stop-opacity="1" stop-color="rgb(37.005615%, 35.215759%, 78.233337%)" offset="0.464844"/><stop stop-opacity="1" stop-color="rgb(37.316895%, 35.267639%, 78.320312%)" offset="0.46875"/><stop stop-opacity="1" stop-color="rgb(37.626648%, 35.319519%, 78.407288%)" offset="0.472656"/><stop stop-opacity="1" stop-color="rgb(37.937927%, 35.371399%, 78.495789%)" offset="0.476562"/><stop stop-opacity="1" stop-color="rgb(38.249207%, 35.423279%, 78.582764%)" offset="0.480469"/><stop stop-opacity="1" stop-color="rgb(38.560486%, 35.476685%, 78.669739%)" offset="0.484375"/><stop stop-opacity="1" stop-color="rgb(38.871765%, 35.528564%, 78.756714%)" offset="0.488281"/><stop stop-opacity="1" stop-color="rgb(39.183044%, 35.580444%, 78.845215%)" offset="0.492188"/><stop stop-opacity="1" stop-color="rgb(39.492798%, 35.632324%, 78.93219%)" offset="0.496094"/><stop stop-opacity="1" stop-color="rgb(39.804077%, 35.684204%, 79.019165%)" offset="0.5"/><stop stop-opacity="1" stop-color="rgb(40.115356%, 35.736084%, 79.10614%)" offset="0.503906"/><stop stop-opacity="1" stop-color="rgb(40.426636%, 35.787964%, 79.194641%)" offset="0.507812"/><stop stop-opacity="1" stop-color="rgb(40.736389%, 35.839844%, 79.281616%)" offset="0.511719"/><stop stop-opacity="1" stop-color="rgb(41.047668%, 35.89325%, 79.368591%)" offset="0.515625"/><stop stop-opacity="1" stop-color="rgb(41.358948%, 35.945129%, 79.455566%)" offset="0.519531"/><stop stop-opacity="1" stop-color="rgb(41.670227%, 35.997009%, 79.542542%)" offset="0.523437"/><stop stop-opacity="1" stop-color="rgb(41.981506%, 36.048889%, 79.629517%)" offset="0.527344"/><stop stop-opacity="1" stop-color="rgb(42.292786%, 36.100769%, 79.718018%)" offset="0.53125"/><stop stop-opacity="1" stop-color="rgb(42.602539%, 36.152649%, 79.804993%)" offset="0.535156"/><stop stop-opacity="1" stop-color="rgb(42.913818%, 36.204529%, 79.891968%)" offset="0.539062"/><stop stop-opacity="1" stop-color="rgb(43.225098%, 36.256409%, 79.978943%)" offset="0.542969"/><stop stop-opacity="1" stop-color="rgb(43.536377%, 36.309814%, 80.067444%)" offset="0.546875"/><stop stop-opacity="1" stop-color="rgb(43.84613%, 36.361694%, 80.154419%)" offset="0.550781"/><stop stop-opacity="1" stop-color="rgb(44.15741%, 36.413574%, 80.241394%)" offset="0.554687"/><stop stop-opacity="1" stop-color="rgb(44.468689%, 36.465454%, 80.328369%)" offset="0.558594"/><stop stop-opacity="1" stop-color="rgb(44.779968%, 36.517334%, 80.41687%)" offset="0.5625"/><stop stop-opacity="1" stop-color="rgb(45.091248%, 36.569214%, 80.503845%)" offset="0.566406"/><stop stop-opacity="1" stop-color="rgb(45.402527%, 36.621094%, 80.59082%)" offset="0.570312"/><stop stop-opacity="1" stop-color="rgb(45.71228%, 36.672974%, 80.677795%)" offset="0.574219"/><stop stop-opacity="1" stop-color="rgb(46.02356%, 36.726379%, 80.766296%)" offset="0.578125"/><stop stop-opacity="1" stop-color="rgb(46.334839%, 36.778259%, 80.853271%)" offset="0.582031"/><stop stop-opacity="1" stop-color="rgb(46.646118%, 36.830139%, 80.940247%)" offset="0.585937"/><stop stop-opacity="1" stop-color="rgb(46.955872%, 36.882019%, 81.027222%)" offset="0.589844"/><stop stop-opacity="1" stop-color="rgb(47.267151%, 36.933899%, 81.115723%)" offset="0.59375"/><stop stop-opacity="1" stop-color="rgb(47.57843%, 36.985779%, 81.202698%)" offset="0.597656"/><stop stop-opacity="1" stop-color="rgb(47.889709%, 37.037659%, 81.289673%)" offset="0.601562"/><stop stop-opacity="1" stop-color="rgb(48.200989%, 37.089539%, 81.376648%)" offset="0.605469"/><stop stop-opacity="1" stop-color="rgb(48.512268%, 37.142944%, 81.465149%)" offset="0.609375"/><stop stop-opacity="1" stop-color="rgb(48.822021%, 37.194824%, 81.552124%)" offset="0.613281"/><stop stop-opacity="1" stop-color="rgb(49.133301%, 37.246704%, 81.639099%)" offset="0.617187"/><stop stop-opacity="1" stop-color="rgb(49.44458%, 37.298584%, 81.726074%)" offset="0.621094"/><stop stop-opacity="1" stop-color="rgb(49.755859%, 37.350464%, 81.814575%)" offset="0.625"/><stop stop-opacity="1" stop-color="rgb(50.065613%, 37.402344%, 81.90155%)" offset="0.628906"/><stop stop-opacity="1" stop-color="rgb(50.376892%, 37.454224%, 81.988525%)" offset="0.632812"/><stop stop-opacity="1" stop-color="rgb(50.688171%, 37.506104%, 82.0755%)" offset="0.636719"/><stop stop-opacity="1" stop-color="rgb(50.999451%, 37.559509%, 82.164001%)" offset="0.640625"/><stop stop-opacity="1" stop-color="rgb(51.31073%, 37.611389%, 82.250977%)" offset="0.644531"/><stop stop-opacity="1" stop-color="rgb(51.622009%, 37.663269%, 82.337952%)" offset="0.648437"/><stop stop-opacity="1" stop-color="rgb(51.931763%, 37.715149%, 82.424927%)" offset="0.652344"/><stop stop-opacity="1" stop-color="rgb(52.243042%, 37.767029%, 82.513428%)" offset="0.65625"/><stop stop-opacity="1" stop-color="rgb(52.554321%, 37.818909%, 82.600403%)" offset="0.660156"/><stop stop-opacity="1" stop-color="rgb(52.865601%, 37.870789%, 82.687378%)" offset="0.664062"/><stop stop-opacity="1" stop-color="rgb(53.175354%, 37.922668%, 82.774353%)" offset="0.667969"/><stop stop-opacity="1" stop-color="rgb(53.486633%, 37.976074%, 82.862854%)" offset="0.671875"/><stop stop-opacity="1" stop-color="rgb(53.797913%, 38.027954%, 82.949829%)" offset="0.675781"/><stop stop-opacity="1" stop-color="rgb(54.109192%, 38.079834%, 83.036804%)" offset="0.679687"/><stop stop-opacity="1" stop-color="rgb(54.420471%, 38.131714%, 83.123779%)" offset="0.683594"/><stop stop-opacity="1" stop-color="rgb(54.73175%, 38.183594%, 83.21228%)" offset="0.6875"/><stop stop-opacity="1" stop-color="rgb(55.041504%, 38.235474%, 83.299255%)" offset="0.691406"/><stop stop-opacity="1" stop-color="rgb(55.352783%, 38.287354%, 83.38623%)" offset="0.695312"/><stop stop-opacity="1" stop-color="rgb(55.664062%, 38.339233%, 83.473206%)" offset="0.699219"/><stop stop-opacity="1" stop-color="rgb(55.975342%, 38.392639%, 83.561707%)" offset="0.703125"/><stop stop-opacity="1" stop-color="rgb(56.285095%, 38.444519%, 83.648682%)" offset="0.707031"/><stop stop-opacity="1" stop-color="rgb(56.596375%, 38.496399%, 83.735657%)" offset="0.710937"/><stop stop-opacity="1" stop-color="rgb(56.907654%, 38.548279%, 83.822632%)" offset="0.714844"/><stop stop-opacity="1" stop-color="rgb(57.218933%, 38.600159%, 83.911133%)" offset="0.71875"/><stop stop-opacity="1" stop-color="rgb(57.530212%, 38.652039%, 83.998108%)" offset="0.722656"/><stop stop-opacity="1" stop-color="rgb(57.841492%, 38.703918%, 84.085083%)" offset="0.726562"/><stop stop-opacity="1" stop-color="rgb(58.151245%, 38.755798%, 84.172058%)" offset="0.730469"/><stop stop-opacity="1" stop-color="rgb(58.462524%, 38.809204%, 84.260559%)" offset="0.734375"/><stop stop-opacity="1" stop-color="rgb(58.773804%, 38.861084%, 84.347534%)" offset="0.738281"/><stop stop-opacity="1" stop-color="rgb(59.085083%, 38.912964%, 84.434509%)" offset="0.742187"/><stop stop-opacity="1" stop-color="rgb(59.394836%, 38.964844%, 84.521484%)" offset="0.746094"/><stop stop-opacity="1" stop-color="rgb(59.706116%, 39.016724%, 84.609985%)" offset="0.75"/><stop stop-opacity="1" stop-color="rgb(60.017395%, 39.068604%, 84.69696%)" offset="0.753906"/><stop stop-opacity="1" stop-color="rgb(60.328674%, 39.120483%, 84.783936%)" offset="0.757812"/><stop stop-opacity="1" stop-color="rgb(60.639954%, 39.172363%, 84.870911%)" offset="0.761719"/><stop stop-opacity="1" stop-color="rgb(60.951233%, 39.225769%, 84.957886%)" offset="0.765625"/><stop stop-opacity="1" stop-color="rgb(61.260986%, 39.277649%, 85.044861%)" offset="0.769531"/><stop stop-opacity="1" stop-color="rgb(61.572266%, 39.329529%, 85.133362%)" offset="0.773438"/><stop stop-opacity="1" stop-color="rgb(61.883545%, 39.381409%, 85.220337%)" offset="0.777344"/><stop stop-opacity="1" stop-color="rgb(62.194824%, 39.433289%, 85.307312%)" offset="0.78125"/><stop stop-opacity="1" stop-color="rgb(62.504578%, 39.485168%, 85.394287%)" offset="0.785156"/><stop stop-opacity="1" stop-color="rgb(62.815857%, 39.537048%, 85.482788%)" offset="0.789062"/><stop stop-opacity="1" stop-color="rgb(63.127136%, 39.588928%, 85.569763%)" offset="0.792969"/><stop stop-opacity="1" stop-color="rgb(63.438416%, 39.642334%, 85.656738%)" offset="0.796875"/><stop stop-opacity="1" stop-color="rgb(63.749695%, 39.694214%, 85.743713%)" offset="0.800781"/><stop stop-opacity="1" stop-color="rgb(64.060974%, 39.746094%, 85.832214%)" offset="0.804688"/><stop stop-opacity="1" stop-color="rgb(64.370728%, 39.797974%, 85.919189%)" offset="0.808594"/><stop stop-opacity="1" stop-color="rgb(64.682007%, 39.849854%, 86.006165%)" offset="0.8125"/><stop stop-opacity="1" stop-color="rgb(64.993286%, 39.901733%, 86.09314%)" offset="0.816406"/><stop stop-opacity="1" stop-color="rgb(65.304565%, 39.953613%, 86.181641%)" offset="0.820312"/><stop stop-opacity="1" stop-color="rgb(65.614319%, 40.005493%, 86.268616%)" offset="0.824219"/><stop stop-opacity="1" stop-color="rgb(65.925598%, 40.058899%, 86.355591%)" offset="0.828125"/><stop stop-opacity="1" stop-color="rgb(66.236877%, 40.110779%, 86.442566%)" offset="0.832031"/><stop stop-opacity="1" stop-color="rgb(66.548157%, 40.162659%, 86.531067%)" offset="0.835938"/><stop stop-opacity="1" stop-color="rgb(66.859436%, 40.214539%, 86.618042%)" offset="0.839844"/><stop stop-opacity="1" stop-color="rgb(67.170715%, 40.266418%, 86.705017%)" offset="0.84375"/><stop stop-opacity="1" stop-color="rgb(67.480469%, 40.318298%, 86.791992%)" offset="0.847656"/><stop stop-opacity="1" stop-color="rgb(67.791748%, 40.370178%, 86.880493%)" offset="0.851562"/><stop stop-opacity="1" stop-color="rgb(68.103027%, 40.422058%, 86.967468%)" offset="0.855469"/><stop stop-opacity="1" stop-color="rgb(68.414307%, 40.475464%, 87.054443%)" offset="0.859375"/><stop stop-opacity="1" stop-color="rgb(68.72406%, 40.527344%, 87.141418%)" offset="0.863281"/><stop stop-opacity="1" stop-color="rgb(69.035339%, 40.579224%, 87.229919%)" offset="0.867188"/><stop stop-opacity="1" stop-color="rgb(69.346619%, 40.631104%, 87.316895%)" offset="0.871094"/><stop stop-opacity="1" stop-color="rgb(69.657898%, 40.682983%, 87.40387%)" offset="0.875"/><stop stop-opacity="1" stop-color="rgb(69.969177%, 40.734863%, 87.490845%)" offset="0.878906"/><stop stop-opacity="1" stop-color="rgb(70.280457%, 40.786743%, 87.579346%)" offset="0.882812"/><stop stop-opacity="1" stop-color="rgb(70.59021%, 40.838623%, 87.666321%)" offset="0.886719"/><stop stop-opacity="1" stop-color="rgb(70.901489%, 40.892029%, 87.753296%)" offset="0.890625"/><stop stop-opacity="1" stop-color="rgb(71.212769%, 40.943909%, 87.840271%)" offset="0.894531"/><stop stop-opacity="1" stop-color="rgb(71.524048%, 40.995789%, 87.928772%)" offset="0.898438"/><stop stop-opacity="1" stop-color="rgb(71.833801%, 41.047668%, 88.015747%)" offset="0.902344"/><stop stop-opacity="1" stop-color="rgb(72.145081%, 41.099548%, 88.102722%)" offset="0.90625"/><stop stop-opacity="1" stop-color="rgb(72.45636%, 41.151428%, 88.189697%)" offset="0.910156"/><stop stop-opacity="1" stop-color="rgb(72.767639%, 41.203308%, 88.278198%)" offset="0.914062"/><stop stop-opacity="1" stop-color="rgb(73.078918%, 41.255188%, 88.365173%)" offset="0.917969"/><stop stop-opacity="1" stop-color="rgb(73.390198%, 41.307068%, 88.452148%)" offset="0.921875"/><stop stop-opacity="1" stop-color="rgb(73.699951%, 41.358948%, 88.539124%)" offset="0.925781"/><stop stop-opacity="1" stop-color="rgb(74.01123%, 41.412354%, 88.627625%)" offset="0.929688"/><stop stop-opacity="1" stop-color="rgb(74.32251%, 41.464233%, 88.7146%)" offset="0.933594"/><stop stop-opacity="1" stop-color="rgb(74.633789%, 41.516113%, 88.801575%)" offset="0.9375"/><stop stop-opacity="1" stop-color="rgb(74.943542%, 41.567993%, 88.88855%)" offset="0.941406"/><stop stop-opacity="1" stop-color="rgb(75.254822%, 41.619873%, 88.977051%)" offset="0.945312"/><stop stop-opacity="1" stop-color="rgb(75.566101%, 41.671753%, 89.064026%)" offset="0.949219"/><stop stop-opacity="1" stop-color="rgb(75.87738%, 41.723633%, 89.151001%)" offset="0.953125"/><stop stop-opacity="1" stop-color="rgb(76.18866%, 41.775513%, 89.237976%)" offset="0.957031"/><stop stop-opacity="1" stop-color="rgb(76.499939%, 41.828918%, 89.326477%)" offset="0.960938"/><stop stop-opacity="1" stop-color="rgb(76.809692%, 41.880798%, 89.413452%)" offset="0.964844"/><stop stop-opacity="1" stop-color="rgb(77.120972%, 41.932678%, 89.500427%)" offset="0.96875"/><stop stop-opacity="1" stop-color="rgb(77.432251%, 41.984558%, 89.587402%)" offset="0.972656"/><stop stop-opacity="1" stop-color="rgb(77.74353%, 42.036438%, 89.675903%)" offset="0.976562"/><stop stop-opacity="1" stop-color="rgb(78.05481%, 42.088318%, 89.762878%)" offset="0.980469"/><stop stop-opacity="1" stop-color="rgb(78.366089%, 42.140198%, 89.849854%)" offset="0.984375"/><stop stop-opacity="1" stop-color="rgb(78.675842%, 42.192078%, 89.936829%)" offset="0.988281"/><stop stop-opacity="1" stop-color="rgb(78.987122%, 42.245483%, 90.023804%)" offset="0.992188"/><stop stop-opacity="1" stop-color="rgb(79.298401%, 42.297363%, 90.110779%)" offset="0.996094"/><stop stop-opacity="1" stop-color="rgb(79.60968%, 42.349243%, 90.19928%)" offset="1"/></linearGradient><clipPath id="09b13882d7"><rect x="0" width="295" y="0" height="71"/></clipPath><clipPath id="7a6a8d2c35"><path d="M 55.109375 62.957031 L 328.109375 62.957031 L 328.109375 206.207031 L 55.109375 206.207031 Z M 55.109375 62.957031 " clip-rule="nonzero"/></clipPath></defs><rect x="-37.5" width="450" fill="#ffffff" y="-37.499999" height="449.999989" fill-opacity="1"/><rect x="-37.5" fill="url(#6a4dfc8ac2)" width="450" y="-37.499999" height="449.999989"/><g transform="matrix(1, 0, 0, 1, 44, 206)"><g clip-path="url(#09b13882d7)"><g fill="#ffffff" fill-opacity="1"><g transform="translate(1.012328, 55.019846)"><g><path d="M 9.703125 -17 L 9.703125 -3.5 L 28.078125 -3.5 L 28.078125 0 L 5.453125 0 L 5.453125 -36.078125 L 27.6875 -36.078125 L 27.6875 -32.5625 L 9.703125 -32.5625 L 9.703125 -20.5 L 25.5625 -20.5 L 25.5625 -17 Z M 9.703125 -17 "/></g></g></g><g fill="#ffffff" fill-opacity="1"><g transform="translate(31.484292, 55.019846)"><g><path d="M 5.671875 0 L 1.234375 0 L 9.640625 -14.109375 L 1.65625 -27.21875 L 6.1875 -27.21875 L 12.484375 -16.75 L 13.046875 -16.75 L 19.375 -27.21875 L 23.71875 -27.21875 L 15.921875 -14.109375 L 24.125 0 L 19.59375 0 L 12.875 -11.5 L 12.3125 -11.5 Z M 5.671875 0 "/></g></g></g><g fill="#ffffff" fill-opacity="1"><g transform="translate(56.848804, 55.019846)"><g><path d="M 4.734375 11.03125 L 4.734375 -27.21875 L 8.765625 -27.21875 L 8.765625 -23.140625 L 9.28125 -23.046875 C 11.300781 -26.171875 14.269531 -27.734375 18.1875 -27.734375 C 20.457031 -27.734375 22.4375 -27.210938 24.125 -26.171875 C 25.820312 -25.140625 27.140625 -23.566406 28.078125 -21.453125 C 29.015625 -19.335938 29.484375 -16.71875 29.484375 -13.59375 C 29.484375 -10.488281 28.988281 -7.878906 28 -5.765625 C 27.019531 -3.660156 25.65625 -2.085938 23.90625 -1.046875 C 22.164062 -0.00390625 20.160156 0.515625 17.890625 0.515625 C 16.046875 0.515625 14.40625 0.195312 12.96875 -0.4375 C 11.539062 -1.082031 10.3125 -2.140625 9.28125 -3.609375 L 8.765625 -3.5 L 8.765625 11.03125 Z M 17 -3.078125 C 22.507812 -3.078125 25.265625 -6.582031 25.265625 -13.59375 C 25.265625 -20.613281 22.507812 -24.125 17 -24.125 C 15.382812 -24.125 13.957031 -23.753906 12.71875 -23.015625 C 11.488281 -22.273438 10.519531 -21.117188 9.8125 -19.546875 C 9.113281 -17.984375 8.765625 -16 8.765625 -13.59375 C 8.765625 -11.207031 9.113281 -9.226562 9.8125 -7.65625 C 10.519531 -6.09375 11.488281 -4.9375 12.71875 -4.1875 C 13.957031 -3.445312 15.382812 -3.078125 17 -3.078125 Z M 17 -3.078125 "/></g></g></g><g fill="#ffffff" fill-opacity="1"><g transform="translate(89.319328, 55.019846)"><g><path d="M 4.734375 0 L 4.734375 -27.21875 L 8.5625 -27.21875 L 8.5625 -22.953125 L 9.078125 -22.828125 C 10.347656 -25.921875 12.734375 -27.46875 16.234375 -27.46875 C 18.085938 -27.46875 19.476562 -27.128906 20.40625 -26.453125 L 19.375 -23.046875 L 18.875 -22.953125 C 17.851562 -23.460938 16.734375 -23.71875 15.515625 -23.71875 C 13.347656 -23.71875 11.679688 -22.898438 10.515625 -21.265625 C 9.347656 -19.640625 8.765625 -17 8.765625 -13.34375 L 8.765625 0 Z M 4.734375 0 "/></g></g></g><g fill="#ffffff" fill-opacity="1"><g transform="translate(109.62567, 55.019846)"><g><path d="M 25.9375 -12.6875 L 7.234375 -12.6875 C 7.347656 -9.375 8.140625 -6.941406 9.609375 -5.390625 C 11.078125 -3.847656 13.097656 -3.078125 15.671875 -3.078125 C 17.609375 -3.078125 19.164062 -3.421875 20.34375 -4.109375 C 21.53125 -4.804688 22.460938 -5.894531 23.140625 -7.375 L 23.65625 -7.375 L 26.28125 -5.828125 C 25.488281 -3.847656 24.222656 -2.296875 22.484375 -1.171875 C 20.753906 -0.046875 18.484375 0.515625 15.671875 0.515625 C 13.035156 0.515625 10.769531 0 8.875 -1.03125 C 6.988281 -2.070312 5.535156 -3.644531 4.515625 -5.75 C 3.492188 -7.851562 2.984375 -10.46875 2.984375 -13.59375 C 2.984375 -16.6875 3.519531 -19.289062 4.59375 -21.40625 C 5.675781 -23.53125 7.148438 -25.113281 9.015625 -26.15625 C 10.878906 -27.207031 13.015625 -27.734375 15.421875 -27.734375 C 18.910156 -27.734375 21.632812 -26.75 23.59375 -24.78125 C 25.550781 -22.820312 26.535156 -19.90625 26.546875 -16.03125 C 26.546875 -14.519531 26.515625 -13.503906 26.453125 -12.984375 Z M 22.578125 -16.03125 C 22.515625 -18.925781 21.875 -21.03125 20.65625 -22.34375 C 19.4375 -23.664062 17.691406 -24.328125 15.421875 -24.328125 C 13.035156 -24.328125 11.160156 -23.664062 9.796875 -22.34375 C 8.441406 -21.019531 7.617188 -18.914062 7.328125 -16.03125 Z M 22.578125 -16.03125 "/></g></g></g><g fill="#ffffff" fill-opacity="1"><g transform="translate(138.641883, 55.019846)"><g><path d="M 12.40625 0.515625 C 10.695312 0.515625 9.113281 0.289062 7.65625 -0.15625 C 6.207031 -0.613281 4.976562 -1.234375 3.96875 -2.015625 C 2.96875 -2.804688 2.257812 -3.695312 1.84375 -4.6875 L 4.21875 -7.15625 L 4.734375 -7.15625 C 5.617188 -5.800781 6.6875 -4.78125 7.9375 -4.09375 C 9.1875 -3.414062 10.675781 -3.078125 12.40625 -3.078125 C 14.414062 -3.078125 15.941406 -3.46875 16.984375 -4.25 C 18.023438 -5.03125 18.546875 -6.125 18.546875 -7.53125 C 18.546875 -8.59375 18.226562 -9.472656 17.59375 -10.171875 C 16.96875 -10.867188 15.945312 -11.394531 14.53125 -11.75 L 9.9375 -12.875 C 7.488281 -13.46875 5.703125 -14.40625 4.578125 -15.6875 C 3.453125 -16.96875 2.890625 -18.554688 2.890625 -20.453125 C 2.890625 -21.929688 3.265625 -23.21875 4.015625 -24.3125 C 4.773438 -25.40625 5.863281 -26.25 7.28125 -26.84375 C 8.707031 -27.4375 10.398438 -27.734375 12.359375 -27.734375 C 14.859375 -27.734375 16.828125 -27.382812 18.265625 -26.6875 C 19.703125 -25.988281 20.828125 -25.015625 21.640625 -23.765625 L 19.375 -21.546875 L 18.875 -21.546875 C 18 -22.546875 17.046875 -23.265625 16.015625 -23.703125 C 14.992188 -24.148438 13.773438 -24.375 12.359375 -24.375 C 10.566406 -24.375 9.191406 -24.050781 8.234375 -23.40625 C 7.285156 -22.769531 6.8125 -21.84375 6.8125 -20.625 C 6.8125 -19.519531 7.144531 -18.628906 7.8125 -17.953125 C 8.488281 -17.285156 9.664062 -16.742188 11.34375 -16.328125 L 15.859375 -15.25 C 18.234375 -14.6875 19.945312 -13.753906 21 -12.453125 C 22.050781 -11.160156 22.578125 -9.535156 22.578125 -7.578125 C 22.578125 -5.984375 22.195312 -4.578125 21.4375 -3.359375 C 20.6875 -2.140625 19.546875 -1.1875 18.015625 -0.5 C 16.484375 0.175781 14.613281 0.515625 12.40625 0.515625 Z M 12.40625 0.515625 "/></g></g></g><g fill="#ffffff" fill-opacity="1"><g transform="translate(163.809006, 55.019846)"><g><path d="M 12.40625 0.515625 C 10.695312 0.515625 9.113281 0.289062 7.65625 -0.15625 C 6.207031 -0.613281 4.976562 -1.234375 3.96875 -2.015625 C 2.96875 -2.804688 2.257812 -3.695312 1.84375 -4.6875 L 4.21875 -7.15625 L 4.734375 -7.15625 C 5.617188 -5.800781 6.6875 -4.78125 7.9375 -4.09375 C 9.1875 -3.414062 10.675781 -3.078125 12.40625 -3.078125 C 14.414062 -3.078125 15.941406 -3.46875 16.984375 -4.25 C 18.023438 -5.03125 18.546875 -6.125 18.546875 -7.53125 C 18.546875 -8.59375 18.226562 -9.472656 17.59375 -10.171875 C 16.96875 -10.867188 15.945312 -11.394531 14.53125 -11.75 L 9.9375 -12.875 C 7.488281 -13.46875 5.703125 -14.40625 4.578125 -15.6875 C 3.453125 -16.96875 2.890625 -18.554688 2.890625 -20.453125 C 2.890625 -21.929688 3.265625 -23.21875 4.015625 -24.3125 C 4.773438 -25.40625 5.863281 -26.25 7.28125 -26.84375 C 8.707031 -27.4375 10.398438 -27.734375 12.359375 -27.734375 C 14.859375 -27.734375 16.828125 -27.382812 18.265625 -26.6875 C 19.703125 -25.988281 20.828125 -25.015625 21.640625 -23.765625 L 19.375 -21.546875 L 18.875 -21.546875 C 18 -22.546875 17.046875 -23.265625 16.015625 -23.703125 C 14.992188 -24.148438 13.773438 -24.375 12.359375 -24.375 C 10.566406 -24.375 9.191406 -24.050781 8.234375 -23.40625 C 7.285156 -22.769531 6.8125 -21.84375 6.8125 -20.625 C 6.8125 -19.519531 7.144531 -18.628906 7.8125 -17.953125 C 8.488281 -17.285156 9.664062 -16.742188 11.34375 -16.328125 L 15.859375 -15.25 C 18.234375 -14.6875 19.945312 -13.753906 21 -12.453125 C 22.050781 -11.160156 22.578125 -9.535156 22.578125 -7.578125 C 22.578125 -5.984375 22.195312 -4.578125 21.4375 -3.359375 C 20.6875 -2.140625 19.546875 -1.1875 18.015625 -0.5 C 16.484375 0.175781 14.613281 0.515625 12.40625 0.515625 Z M 12.40625 0.515625 "/></g></g></g><g fill="#ffffff" fill-opacity="1"><g transform="translate(188.976129, 55.019846)"><g/></g></g><g fill="#ffffff" fill-opacity="1"><g transform="translate(201.362301, 55.019846)"><g><path d="M 11.21875 0.515625 C 8.539062 0.515625 6.445312 -0.179688 4.9375 -1.578125 C 3.4375 -2.972656 2.6875 -4.972656 2.6875 -7.578125 C 2.6875 -9.191406 3.019531 -10.550781 3.6875 -11.65625 C 4.351562 -12.769531 5.382812 -13.675781 6.78125 -14.375 C 8.175781 -15.070312 10.003906 -15.609375 12.265625 -15.984375 C 14.234375 -16.316406 15.734375 -16.6875 16.765625 -17.09375 C 17.796875 -17.507812 18.488281 -17.972656 18.84375 -18.484375 C 19.195312 -18.992188 19.375 -19.632812 19.375 -20.40625 C 19.375 -21.632812 18.945312 -22.578125 18.09375 -23.234375 C 17.25 -23.898438 15.890625 -24.234375 14.015625 -24.234375 C 12.253906 -24.234375 10.742188 -23.890625 9.484375 -23.203125 C 8.222656 -22.523438 7.066406 -21.507812 6.015625 -20.15625 L 5.53125 -20.15625 L 3.546875 -22.953125 C 4.703125 -24.410156 6.164062 -25.570312 7.9375 -26.4375 C 9.71875 -27.300781 11.742188 -27.734375 14.015625 -27.734375 C 17.222656 -27.734375 19.585938 -27.03125 21.109375 -25.625 C 22.628906 -24.21875 23.390625 -22.269531 23.390625 -19.78125 L 23.390625 -5.359375 C 23.390625 -3.835938 24.03125 -3.078125 25.3125 -3.078125 C 25.738281 -3.078125 26.148438 -3.15625 26.546875 -3.3125 L 26.890625 -3.203125 L 27.359375 -0.421875 C 27.066406 -0.222656 26.675781 -0.0703125 26.1875 0.03125 C 25.707031 0.144531 25.210938 0.203125 24.703125 0.203125 C 23.203125 0.203125 22.066406 -0.125 21.296875 -0.78125 C 20.535156 -1.445312 20.050781 -2.421875 19.84375 -3.703125 L 19.3125 -3.75 C 18.539062 -2.320312 17.5 -1.253906 16.1875 -0.546875 C 14.875 0.160156 13.21875 0.515625 11.21875 0.515625 Z M 12.109375 -2.6875 C 13.628906 -2.6875 14.941406 -3.035156 16.046875 -3.734375 C 17.160156 -4.429688 18.007812 -5.414062 18.59375 -6.6875 C 19.1875 -7.957031 19.484375 -9.421875 19.484375 -11.078125 L 19.484375 -14.53125 L 19.015625 -14.625 C 18.410156 -14.195312 17.671875 -13.835938 16.796875 -13.546875 C 15.929688 -13.265625 14.71875 -13.007812 13.15625 -12.78125 C 11.570312 -12.5625 10.316406 -12.226562 9.390625 -11.78125 C 8.460938 -11.34375 7.800781 -10.78125 7.40625 -10.09375 C 7.007812 -9.414062 6.8125 -8.578125 6.8125 -7.578125 C 6.8125 -5.984375 7.28125 -4.769531 8.21875 -3.9375 C 9.15625 -3.101562 10.453125 -2.6875 12.109375 -2.6875 Z M 12.109375 -2.6875 "/></g></g></g><g fill="#ffffff" fill-opacity="1"><g transform="translate(229.514929, 55.019846)"><g><path d="M 4.734375 11.03125 L 4.734375 -27.21875 L 8.765625 -27.21875 L 8.765625 -23.140625 L 9.28125 -23.046875 C 11.300781 -26.171875 14.269531 -27.734375 18.1875 -27.734375 C 20.457031 -27.734375 22.4375 -27.210938 24.125 -26.171875 C 25.820312 -25.140625 27.140625 -23.566406 28.078125 -21.453125 C 29.015625 -19.335938 29.484375 -16.71875 29.484375 -13.59375 C 29.484375 -10.488281 28.988281 -7.878906 28 -5.765625 C 27.019531 -3.660156 25.65625 -2.085938 23.90625 -1.046875 C 22.164062 -0.00390625 20.160156 0.515625 17.890625 0.515625 C 16.046875 0.515625 14.40625 0.195312 12.96875 -0.4375 C 11.539062 -1.082031 10.3125 -2.140625 9.28125 -3.609375 L 8.765625 -3.5 L 8.765625 11.03125 Z M 17 -3.078125 C 22.507812 -3.078125 25.265625 -6.582031 25.265625 -13.59375 C 25.265625 -20.613281 22.507812 -24.125 17 -24.125 C 15.382812 -24.125 13.957031 -23.753906 12.71875 -23.015625 C 11.488281 -22.273438 10.519531 -21.117188 9.8125 -19.546875 C 9.113281 -17.984375 8.765625 -16 8.765625 -13.59375 C 8.765625 -11.207031 9.113281 -9.226562 9.8125 -7.65625 C 10.519531 -6.09375 11.488281 -4.9375 12.71875 -4.1875 C 13.957031 -3.445312 15.382812 -3.078125 17 -3.078125 Z M 17 -3.078125 "/></g></g></g><g fill="#ffffff" fill-opacity="1"><g transform="translate(261.985478, 55.019846)"><g><path d="M 4.734375 11.03125 L 4.734375 -27.21875 L 8.765625 -27.21875 L 8.765625 -23.140625 L 9.28125 -23.046875 C 11.300781 -26.171875 14.269531 -27.734375 18.1875 -27.734375 C 20.457031 -27.734375 22.4375 -27.210938 24.125 -26.171875 C 25.820312 -25.140625 27.140625 -23.566406 28.078125 -21.453125 C 29.015625 -19.335938 29.484375 -16.71875 29.484375 -13.59375 C 29.484375 -10.488281 28.988281 -7.878906 28 -5.765625 C 27.019531 -3.660156 25.65625 -2.085938 23.90625 -1.046875 C 22.164062 -0.00390625 20.160156 0.515625 17.890625 0.515625 C 16.046875 0.515625 14.40625 0.195312 12.96875 -0.4375 C 11.539062 -1.082031 10.3125 -2.140625 9.28125 -3.609375 L 8.765625 -3.5 L 8.765625 11.03125 Z M 17 -3.078125 C 22.507812 -3.078125 25.265625 -6.582031 25.265625 -13.59375 C 25.265625 -20.613281 22.507812 -24.125 17 -24.125 C 15.382812 -24.125 13.957031 -23.753906 12.71875 -23.015625 C 11.488281 -22.273438 10.519531 -21.117188 9.8125 -19.546875 C 9.113281 -17.984375 8.765625 -16 8.765625 -13.59375 C 8.765625 -11.207031 9.113281 -9.226562 9.8125 -7.65625 C 10.519531 -6.09375 11.488281 -4.9375 12.71875 -4.1875 C 13.957031 -3.445312 15.382812 -3.078125 17 -3.078125 Z M 17 -3.078125 "/></g></g></g></g></g><g clip-path="url(#7a6a8d2c35)"><path stroke-linecap="round" transform="matrix(0.0336538, 0, 0, 0.0336816, -177.103256, -120.47291)" fill-opacity="1" fill="#ffffff" fill-rule="nonzero" stroke-linejoin="miter" d="M 11200.943269 5446.005158 C 12100.961134 5446.005158 12862.041497 6037.018488 13117.050428 6851.981335 C 13252.970072 6811.041833 13395.970073 6787.962623 13545.005789 6787.962623 C 14354.952224 6787.962623 15012.032587 7444.966256 15012.032587 8255.985921 C 15012.032587 8975.964483 14494.005797 9574.052345 13811.041505 9698.958419 L 7672.952168 9698.958419 C 7233.04145 9616.963438 6900.032518 9230.995549 6900.032518 8766.975861 C 6900.032518 8249.027366 7314.987879 7828.962554 7831.041455 7820.032407 C 7829.996812 7812.030068 7829.996812 7802.983946 7829.996812 7794.981607 C 7829.996812 7168.943547 8336.996816 6663.056548 8960.996821 6663.056548 C 9089.95218 6663.056548 9214.032538 6684.975999 9329.987896 6723.94391 C 9620.97897 5976.01515 10348.978976 5446.005158 11200.943269 5446.005158 Z M 11200.943269 5446.005158 " stroke="#000000" stroke-width="4" stroke-opacity="1" stroke-miterlimit="5"/></g><path fill="#000000" d="M 103.535156 156.085938 C 103.535156 166.964844 110.636719 177.304688 124.703125 177.304688 C 139.175781 177.304688 146.746094 165.28125 146.746094 152.785156 C 146.746094 142.578125 139.613281 132.777344 125.546875 132.777344 C 111.074219 132.777344 103.535156 144.027344 103.535156 156.085938 Z M 103.535156 156.085938 Z M 111.378906 154.605469 C 111.378906 145.375 115.921875 136.113281 124.636719 136.113281 C 133.960938 136.113281 138.871094 145.207031 138.871094 154.234375 C 138.871094 164 134.261719 173.902344 125.546875 173.902344 C 116.359375 173.902344 111.378906 164.339844 111.378906 154.605469 Z M 111.378906 154.605469 Z M 155.464844 185.828125 C 155.464844 189.597656 156.945312 190.507812 159.199219 190.507812 C 160.476562 190.507812 161.925781 190.171875 163.441406 189.902344 C 163.441406 189.902344 162.363281 186.667969 162.363281 179.664062 C 162.363281 178.753906 162.363281 177.777344 162.398438 176.765625 C 163.441406 176.933594 164.28125 177.070312 165.460938 177.070312 C 177.574219 177.070312 183.363281 169.289062 183.363281 158.882812 C 183.363281 151.136719 179.089844 144.9375 172.15625 144.9375 C 164.71875 144.9375 162.363281 149.789062 162.363281 149.789062 L 162.058594 149.6875 C 162.09375 149.417969 162.160156 149.082031 162.160156 148.644531 C 162.160156 146.757812 160.039062 145.242188 157.246094 145.242188 C 156.273438 145.242188 155.296875 145.511719 154.253906 145.8125 C 155.464844 149.082031 155.664062 155.953125 155.664062 161.675781 C 155.664062 173.804688 155.464844 179.867188 155.464844 185.828125 Z M 155.464844 185.828125 Z M 162.226562 172.21875 L 162.226562 164.609375 C 162.226562 161.746094 162.226562 158.882812 162.53125 156.253906 C 163.070312 151.605469 165.828125 148.878906 169.464844 148.878906 C 173.671875 148.878906 176.058594 154.671875 176.058594 160.261719 C 176.058594 167.167969 172.863281 174.171875 166.300781 174.171875 C 164.046875 174.171875 162.226562 173.804688 162.226562 172.21875 Z M 162.226562 172.21875 Z M 191.203125 165.449219 C 191.203125 172.289062 193.257812 177.304688 200.390625 177.304688 C 207.828125 177.304688 209.816406 170.265625 209.816406 170.265625 L 209.511719 170.03125 C 209.511719 170.03125 206.046875 172.894531 203.085938 172.894531 C 198.371094 172.894531 197.835938 167.773438 197.835938 161.746094 C 197.835938 157.097656 198.003906 149.921875 198.003906 149.921875 C 198.003906 149.921875 202.277344 150.023438 202.949219 150.023438 C 205.136719 150.023438 206.347656 149.484375 206.347656 146.925781 C 206.347656 146.621094 206.347656 145.613281 206.28125 145.242188 C 206.28125 145.242188 205.507812 145.847656 203.015625 145.847656 L 198.003906 145.847656 L 199.246094 139.210938 L 197.835938 138.742188 C 197.027344 140.761719 191.273438 145.847656 188.648438 145.847656 L 188.648438 148.441406 C 191.003906 149.183594 191.441406 149.417969 191.441406 154.605469 C 191.441406 156.929688 191.203125 161.476562 191.203125 165.449219 Z M 191.203125 165.449219 Z M 217.925781 140.085938 C 220.179688 140.085938 222.066406 138.203125 222.066406 135.976562 C 222.066406 133.753906 220.179688 131.871094 217.925781 131.871094 C 215.738281 131.871094 213.851562 133.753906 213.851562 135.976562 C 213.851562 138.203125 215.738281 140.085938 217.925781 140.085938 Z M 217.925781 140.085938 Z M 214.558594 172.019531 C 214.558594 175.6875 217.386719 177.003906 220.046875 177.003906 C 225.296875 177.003906 226.808594 173.195312 226.808594 173.195312 L 226.574219 172.996094 C 226.574219 172.996094 225.464844 173.871094 224.253906 173.871094 C 221.257812 173.871094 221.222656 170.199219 221.222656 167.472656 C 221.222656 162.957031 221.527344 155.648438 221.527344 149.183594 C 221.527344 146.757812 219.070312 145.242188 216.34375 145.242188 C 215.367188 145.242188 214.390625 145.511719 213.347656 145.8125 C 213.414062 145.8125 214.828125 147.734375 214.828125 161.609375 C 214.828125 165.011719 214.558594 168.546875 214.558594 172.019531 Z M 214.558594 172.019531 Z M 229.804688 182.191406 C 229.804688 185.589844 234.046875 190.40625 242.257812 190.40625 C 250.773438 190.40625 256.863281 186.128906 256.863281 180.335938 C 256.863281 169.761719 238.386719 173.601562 238.386719 169.054688 C 238.386719 168.617188 238.722656 167.707031 239.296875 166.898438 C 240.136719 167.03125 241.046875 167.03125 242.089844 167.03125 C 250.03125 167.03125 255.683594 162.148438 255.683594 155.515625 C 255.683594 152.113281 254.472656 149.484375 252.152344 147.734375 C 255.078125 147.058594 258.378906 145.308594 258.378906 142.277344 C 258.378906 139.886719 255.921875 139.953125 253.800781 139.71875 C 253.496094 143.320312 252.65625 146.117188 249.492188 146.21875 C 247.777344 145.613281 245.65625 145.242188 243.234375 145.242188 C 235.324219 145.242188 229.671875 150.226562 229.671875 156.792969 C 229.671875 161.914062 232.226562 165.214844 237.109375 166.492188 C 235.929688 167.539062 234.246094 169.523438 234.246094 172.019531 C 234.246094 180.941406 251.175781 177.375 251.175781 182.660156 C 251.175781 186.128906 247.339844 187.714844 243.738281 187.714844 C 236.972656 187.714844 235.15625 182.359375 234.953125 179.425781 C 232.902344 179.425781 229.804688 179.359375 229.804688 182.191406 Z M 229.804688 182.191406 Z M 242.863281 164.304688 C 238.253906 164.304688 236.433594 160.195312 236.433594 155.515625 C 236.433594 151.4375 239.027344 148.035156 242.390625 148.035156 C 247.035156 148.035156 248.886719 152.113281 248.886719 156.792969 C 248.886719 160.871094 246.328125 164.304688 242.863281 164.304688 Z M 242.863281 164.304688 Z M 261.304688 161.847656 C 261.304688 169.761719 266.523438 177.304688 276.753906 177.304688 C 287.21875 177.304688 292.804688 168.546875 292.804688 159.488281 C 292.804688 152.113281 287.589844 144.9375 277.359375 144.9375 C 266.824219 144.9375 261.304688 153.15625 261.304688 161.847656 Z M 261.304688 161.847656 Z M 268.710938 160.835938 C 268.710938 154.300781 271.265625 147.800781 276.683594 147.800781 C 282.539062 147.800781 285.402344 154.167969 285.402344 160.566406 C 285.402344 167.539062 282.777344 174.476562 277.359375 174.476562 C 271.570312 174.476562 268.710938 167.707031 268.710938 160.835938 Z M 268.710938 160.835938 " fill-opacity="1" fill-rule="nonzero"/><path fill="#000000" d="M 296.808594 148.914062 C 294.488281 148.914062 292.671875 147.09375 292.671875 144.835938 C 292.671875 142.511719 294.488281 140.695312 296.808594 140.695312 C 299.066406 140.695312 300.882812 142.511719 300.882812 144.835938 C 300.882812 147.09375 299.066406 148.914062 296.808594 148.914062 Z M 296.808594 148.914062 Z M 296.808594 140.085938 C 294.152344 140.085938 292.066406 142.175781 292.066406 144.835938 C 292.066406 147.429688 294.152344 149.550781 296.808594 149.550781 C 299.402344 149.550781 301.523438 147.429688 301.523438 144.835938 C 301.523438 142.175781 299.402344 140.085938 296.808594 140.085938 Z M 296.808594 140.085938 " fill-opacity="1" fill-rule="nonzero"/><path fill="#000000" d="M 295.867188 143.1875 L 295.867188 144.703125 L 297.246094 144.703125 C 297.785156 144.703125 298.054688 144.332031 298.054688 143.925781 C 298.054688 143.558594 297.785156 143.1875 297.246094 143.1875 Z M 295.867188 143.1875 Z M 299.164062 147.09375 L 298.121094 147.09375 L 296.710938 145.511719 L 295.867188 145.511719 L 295.867188 147.09375 L 294.992188 147.09375 L 294.992188 142.378906 C 295.734375 142.378906 296.472656 142.378906 297.246094 142.378906 C 298.359375 142.378906 298.929688 143.117188 298.929688 143.925781 C 298.929688 144.566406 298.628906 145.242188 297.753906 145.441406 L 299.164062 147.027344 Z M 299.164062 147.09375 " fill-opacity="1" fill-rule="nonzero"/></svg>