<?xml version="1.0" encoding="UTF-8"?>
<svg version="1.1" xmlns="http://www.w3.org/2000/svg" width="300" height="250">
<path d="M0 0 C99 0 198 0 300 0 C300 82.5 300 165 300 250 C201 250 102 250 0 250 C0 167.5 0 85 0 0 Z " fill="#7508AE" transform="translate(0,0)"/>
<path d="M0 0 C2.36619498 1.27410499 4.69555701 2.6173342 7 4 C10.96 4 14.92 4 19 4 C19 16.87 19 29.74 19 43 C-1.79 43 -22.58 43 -44 43 C-44 30.46 -44 17.92 -44 5 C-38.06 4.505 -38.06 4.505 -32 4 C-30.68 3.01 -29.36 2.02 -28 1 C-25.33111669 1.20016625 -23.50203915 1.71787116 -21.171875 3.02734375 C-17.0041174 4.89383951 -12.46143482 4.55767935 -8 4 C-5.74956769 3.01149942 -5.74956769 3.01149942 -3.75 1.75 C-1.8125 0.625 -1.8125 0.625 0 0 Z " fill="#FBF9FD" transform="translate(163,112)"/>
<path d="M0 0 C17.16 0 34.32 0 52 0 C63 20 63 20 63 26 C61.36564595 29.03522895 59.944447 31.28352297 57.1875 33.375 C53.38008834 34.4628319 49.86119978 35.00538024 46.25 33.0546875 C43.57970943 31.01345577 42.12680143 29.40757602 41.125 26.1875 C41.08375 25.465625 41.0425 24.74375 41 24 C40.34 24 39.68 24 39 24 C38.9071875 24.8353125 38.9071875 24.8353125 38.8125 25.6875 C37.47882921 29.48333226 34.57659173 32.21170413 31 34 C26.47478998 34.74018305 22.58138344 34.94528209 18.5625 32.54296875 C16.49144195 30.78626772 14.65301091 29.15630194 13 27 C13 26.01 13 25.02 13 24 C12.34 24 11.68 24 11 24 C10.95875 24.9075 10.9175 25.815 10.875 26.75 C10 30 10 30 7.4375 32.375 C2.98237889 34.48105725 0.88696305 34.69813758 -4 34 C-6.69105198 31.82425584 -8.45532928 30.08934144 -10 27 C-10 19 -10 19 0 0 Z " fill="#FDFCFE" transform="translate(124,78)"/>
<path d="M0 0 C10.56 0 21.12 0 32 0 C32 5.61 32 11.22 32 17 C21.44 17 10.88 17 0 17 C0 11.39 0 5.78 0 0 Z " fill="#760EB1" transform="translate(134,128)"/>
<path d="M0 0 C0.27560214 6.20104812 -0.77100654 11.93184478 -2 18 C-5 18 -5 18 -6.6875 16.5 C-7.120625 16.005 -7.55375 15.51 -8 15 C-12.10248591 16.60794521 -14.74541225 19.57533114 -17.71875 22.69921875 C-18.82639468 23.8370056 -19.93448086 24.97436276 -21.04296875 26.11132812 C-22.77961149 27.90392005 -24.5120604 29.70011477 -26.23681641 31.50415039 C-27.90727753 33.24692072 -29.59284832 34.97384902 -31.28125 36.69921875 C-31.79490112 37.24495041 -32.30855225 37.79068207 -32.83776855 38.35295105 C-34.31445312 39.8503418 -34.31445312 39.8503418 -37 42 C-39.35742188 41.83129883 -39.35742188 41.83129883 -41 41 C-41 37 -41 37 -38.59741211 34.22265625 C-37.49995916 33.15965136 -36.39255412 32.10686019 -35.27734375 31.0625 C-34.08781488 29.90893226 -32.89836412 28.75528399 -31.70898438 27.6015625 C-29.82050728 25.79410105 -27.92801679 23.99098968 -26.03295898 22.19042969 C-24.20821765 20.4498707 -22.39868267 18.69455615 -20.58984375 16.9375 C-20.0159642 16.4019751 -19.44208466 15.8664502 -18.85081482 15.31469727 C-17.077325 13.64398155 -17.077325 13.64398155 -15 11 C-15.08109037 7.58598347 -16.87062995 5.59227659 -19 3 C-16.96040523 2.49161436 -14.91820862 1.99366114 -12.875 1.5 C-11.73804688 1.2215625 -10.60109375 0.943125 -9.4296875 0.65625 C-6.18533302 0.03546235 -3.29185543 -0.12006768 0 0 Z " fill="#F7F0FA" transform="translate(230,36)"/>
<path d="M0 0 C6.49850211 0.51553879 12.66226532 1.46667709 19 3 C17.66666667 5.66666667 16.33333333 8.33333333 15 11 C23.91 19.91 32.82 28.82 42 38 C41.34 39.32 40.68 40.64 40 42 C36.60360053 41.41729578 34.97550484 40.34349662 32.57421875 37.90234375 C31.94563965 37.2690918 31.31706055 36.63583984 30.66943359 35.98339844 C30.01539551 35.30825195 29.36135742 34.63310547 28.6875 33.9375 C28.01541504 33.2559082 27.34333008 32.57431641 26.65087891 31.87207031 C22.7223281 27.86225233 18.97749853 23.74909386 15.36328125 19.453125 C13.50175154 17.46891568 11.43664145 16.18140192 9 15 C7.02 16.65 5.04 18.3 3 20 C2.49550598 17.41747107 1.99625699 14.83411297 1.5 12.25 C1.35691406 11.52039062 1.21382813 10.79078125 1.06640625 10.0390625 C0.41111121 6.60656468 0 3.50830509 0 0 Z " fill="#F9F1FA" transform="translate(70,36)"/>
<path d="M0 0 C0.66 1.65 1.32 3.3 2 5 C-6.25 13.25 -14.5 21.5 -23 30 C-22.34 31.32 -21.68 32.64 -21 34 C-20.34 35.32 -19.68 36.64 -19 38 C-25.27 38.99 -31.54 39.98 -38 41 C-38 35.20799946 -37.93958665 31.77848437 -36.5 26.5 C-36.2215625 25.4584375 -35.943125 24.416875 -35.65625 23.34375 C-35.4396875 22.5703125 -35.223125 21.796875 -35 21 C-32.69 22.65 -30.38 24.3 -28 26 C-27.22285645 25.21238281 -26.44571289 24.42476562 -25.64501953 23.61328125 C-22.76888327 20.70102919 -19.88620196 17.79533221 -17.00146484 14.89160156 C-15.75226298 13.63232287 -14.50485944 12.37125764 -13.25927734 11.10839844 C-11.47178925 9.29673588 -9.67799773 7.49153161 -7.8828125 5.6875 C-7.04521896 4.83442261 -7.04521896 4.83442261 -6.19070435 3.96411133 C-2.22774341 0 -2.22774341 0 0 0 Z " fill="#F6EFF9" transform="translate(108,156)"/>
<path d="M0 0 C6.18134869 5.10448822 11.79822878 10.68294942 17.4375 16.375 C18.35982422 17.30183594 19.28214844 18.22867188 20.23242188 19.18359375 C22.49058625 21.45345846 24.74636942 23.72563538 27 26 C28.423125 24.7625 28.423125 24.7625 29.875 23.5 C32.75 21 32.75 21 35 21 C35.34192668 22.83175008 35.67306214 24.66551537 36 26.5 C36.185625 27.5209375 36.37125 28.541875 36.5625 29.59375 C37 33 37 33 37 41 C30.73 40.01 24.46 39.02 18 38 C20 34 20 34 22 32 C21.83171188 27.8177285 18.99308646 25.63566487 16.16015625 22.83203125 C15.67800156 22.35174973 15.19584686 21.8714682 14.69908142 21.37663269 C13.68121901 20.36547819 12.65977221 19.35792073 11.63500977 18.35375977 C10.06457554 16.81453429 8.50511424 15.26484296 6.94726562 13.71289062 C2.38845631 8.80013847 2.38845631 8.80013847 -3 5 C-1.125 1.125 -1.125 1.125 0 0 Z " fill="#F8F4FC" transform="translate(193,156)"/>
<path d="M0 0 C1.98 0 3.96 0 6 0 C6 5.94 6 11.88 6 18 C8.64 18 11.28 18 14 18 C12.56007449 22.10228779 10.55506592 25.30398117 8 28.8125 C7.29875 29.78832031 6.5975 30.76414063 5.875 31.76953125 C5.25625 32.50558594 4.6375 33.24164063 4 34 C3.34 34 2.68 34 2 34 C0.19931985 31.57350969 -1.47836549 29.15260703 -3.125 26.625 C-3.59292969 25.92632812 -4.06085938 25.22765625 -4.54296875 24.5078125 C-8 19.26683218 -8 19.26683218 -8 17 C-5.36 17 -2.72 17 0 17 C0 11.39 0 5.78 0 0 Z " fill="#F3EBF8" transform="translate(147,164)"/>
<path d="M0 0 C4.04356581 1.34785527 5.41250936 4.0449701 7.6875 7.4375 C8.10322266 8.03626953 8.51894531 8.63503906 8.94726562 9.25195312 C12 13.72829433 12 13.72829433 12 16 C9.36 16 6.72 16 4 16 C4 21.94 4 27.88 4 34 C2.02 34 0.04 34 -2 34 C-2 28.06 -2 22.12 -2 16 C-4.64 16 -7.28 16 -10 16 C-8.55797524 11.84848662 -6.4989562 8.70021555 -3.875 5.1875 C-3.15054688 4.21167969 -2.42609375 3.23585937 -1.6796875 2.23046875 C-0.84824219 1.12638672 -0.84824219 1.12638672 0 0 Z " fill="#F6EDF8" transform="translate(149,35)"/>
<path d="M0 0 C4.3573226 1.47130373 7.71934134 3.83080615 11.3125 6.625 C11.86228516 7.04523438 12.41207031 7.46546875 12.97851562 7.8984375 C14.32292168 8.92720039 15.66201413 9.9629009 17 11 C14.02196083 14.1332924 10.86843394 16.70760872 7.375 19.25 C6.41335937 19.95640625 5.45171875 20.6628125 4.4609375 21.390625 C2 23 2 23 0 23 C0 20.03 0 17.06 0 14 C-5.61 14 -11.22 14 -17 14 C-17 12.35 -17 10.7 -17 9 C-11.39 9 -5.78 9 0 9 C0 6.03 0 3.06 0 0 Z " fill="#F8F3FB" transform="translate(215,105)"/>
<path d="M0 0 C0 2.97 0 5.94 0 9 C5.61 9 11.22 9 17 9 C17 10.65 17 12.3 17 14 C11.39 14 5.78 14 0 14 C0 16.97 0 19.94 0 23 C-5.97842675 19.75085503 -11.47131676 15.96018357 -17 12 C-13.0637025 7.67007275 -6.06457203 0 0 0 Z " fill="#FAF6FC" transform="translate(85,105)"/>
<path d="M0 0 C5.61 0 11.22 0 17 0 C17 0.33 17 0.66 17 1 C12.38 1.33 7.76 1.66 3 2 C2.34 4.31 1.68 6.62 1 9 C0.67 9 0.34 9 0 9 C0 6.03 0 3.06 0 0 Z " fill="#8913AD" transform="translate(85,119)"/>
</svg>
