<?xml version="1.0" encoding="UTF-8"?>
<svg version="1.1" xmlns="http://www.w3.org/2000/svg" width="512" height="512">
<path d="M0 0 C1.01790619 0.00215515 2.03581238 0.0043103 3.08456421 0.00653076 C17.69363523 0.05620146 32.02575853 0.30709809 46.375 3.3125 C47.34985352 3.51117676 48.32470703 3.70985352 49.32910156 3.91455078 C97.7109774 14.03517194 141.69928269 35.9516877 177.375 70.3125 C178.3640332 71.26068604 178.3640332 71.26068604 179.37304688 72.22802734 C188.86130305 81.37247479 197.6012044 90.66984009 205.375 101.3125 C206.23306152 102.46355017 207.09113451 103.61459177 207.94921875 104.765625 C213.98736829 112.95680614 219.34595521 121.47054105 224.375 130.3125 C224.73948242 130.94430176 225.10396484 131.57610352 225.47949219 132.22705078 C247.08534998 169.97532572 256.85198095 212.74189997 256.6875 255.9375 C256.68534485 256.95540619 256.6831897 257.97331238 256.68096924 259.02206421 C256.63129854 273.63113523 256.38040191 287.96325853 253.375 302.3125 C253.07698486 303.77478027 253.07698486 303.77478027 252.77294922 305.26660156 C242.65232806 353.6484774 220.7358123 397.63678269 186.375 433.3125 C185.74287598 433.97185547 185.11075195 434.63121094 184.45947266 435.31054688 C175.31502521 444.79880305 166.01765991 453.5387044 155.375 461.3125 C154.22394983 462.17056152 153.07290823 463.02863451 151.921875 463.88671875 C143.73224019 469.92427396 135.22961724 475.30707302 126.375 480.3125 C125.66778809 480.7146875 124.96057617 481.116875 124.23193359 481.53125 C101.09654164 494.5566741 75.92537591 503.30551461 49.9375 508.625 C49.21860596 508.77235596 48.49971191 508.91971191 47.7590332 509.0715332 C33.08339502 511.86090125 18.55831162 512.66142619 3.64770508 512.62817383 C0.70811513 512.6250221 -2.2304558 512.64854926 -5.16992188 512.67382812 C-18.54306192 512.71848737 -31.43916711 511.51301542 -44.625 509.3125 C-46.33055054 509.03031616 -46.33055054 509.03031616 -48.07055664 508.74243164 C-91.33802759 500.97044532 -132.38793216 480.98345309 -165.625 452.3125 C-166.37007813 451.67828125 -167.11515625 451.0440625 -167.8828125 450.390625 C-181.38779833 438.57948485 -194.05918743 425.82889772 -204.625 411.3125 C-205.48149066 410.16255169 -206.33826433 409.01281411 -207.1953125 407.86328125 C-213.23534209 399.67315742 -218.61867614 391.16870382 -223.625 382.3125 C-224.0271875 381.60528809 -224.429375 380.89807617 -224.84375 380.16943359 C-237.8691741 357.03404164 -246.61801461 331.86287591 -251.9375 305.875 C-252.08485596 305.15610596 -252.23221191 304.43721191 -252.3840332 303.6965332 C-255.35789088 288.05024391 -255.99800362 272.57681954 -255.9375 256.6875 C-255.93534485 255.66959381 -255.9331897 254.65168762 -255.93096924 253.60293579 C-255.88129854 238.99386477 -255.63040191 224.66174147 -252.625 210.3125 C-252.42632324 209.33764648 -252.22764648 208.36279297 -252.02294922 207.35839844 C-241.90232806 158.9765226 -219.9858123 114.98821731 -185.625 79.3125 C-184.99287598 78.65314453 -184.36075195 77.99378906 -183.70947266 77.31445312 C-174.56502521 67.82619695 -165.26765991 59.0862956 -154.625 51.3125 C-153.47394983 50.45443848 -152.32290823 49.59636549 -151.171875 48.73828125 C-142.98224019 42.70072604 -134.47961724 37.31792698 -125.625 32.3125 C-124.91778809 31.9103125 -124.21057617 31.508125 -123.48193359 31.09375 C-100.34654164 18.0683259 -75.17537591 9.31948539 -49.1875 4 C-48.46860596 3.85264404 -47.74971191 3.70528809 -47.0090332 3.5534668 C-31.36274391 0.57960912 -15.88931954 -0.06050362 0 0 Z " fill="#178FEB" transform="translate(255.625,-0.3125)"/>
<path d="M0 0 C0.88816406 0.40605469 1.77632813 0.81210938 2.69140625 1.23046875 C23.26808959 11.44393166 37.4444724 30.73157534 45.0390625 52.01171875 C46.98000772 58.04758498 48.03522418 63.49500206 48.01953125 69.85546875 C47.57000609 79.08145155 47.57000609 79.08145155 50.74609375 87.30859375 C52.98505585 88.73992848 52.98505585 88.73992848 55.46484375 89.81640625 C66.1516957 94.80579938 73.63276944 108.10577379 77.875 118.5625 C84.32692075 136.81035667 83.22092546 154.74535524 74.9921875 172.15625 C66.63270724 188.85870612 53.02275938 200.08390941 35.421875 205.9921875 C28.18665281 208.1231091 22.04030391 209.29483562 14.51437378 209.26742554 C13.12848798 209.27422221 13.12848798 209.27422221 11.7146045 209.28115618 C8.63504279 209.29376269 5.55565879 209.29218222 2.47607422 209.29052734 C0.26118239 209.29651503 -1.95370735 209.30332112 -4.16859436 209.31088257 C-10.17507863 209.32852769 -16.18150588 209.3332374 -22.18801355 209.33451414 C-25.94507976 209.33593741 -29.70213156 209.34021041 -33.45919418 209.34550858 C-45.90263426 209.36305171 -58.34604667 209.37234943 -70.78949763 209.37084763 C-71.79426759 209.37072776 -71.79426759 209.37072776 -72.81933594 209.37060547 C-73.82534573 209.37048283 -73.82534573 209.37048283 -74.85167895 209.37035771 C-85.70876988 209.36954566 -96.56572179 209.38866547 -107.42277254 209.4168822 C-118.59439893 209.44568521 -129.76597458 209.45905301 -140.93764293 209.45769465 C-147.2001009 209.45718605 -153.46240156 209.46281245 -159.72482681 209.48405075 C-165.61988686 209.50349756 -171.51464062 209.50351346 -177.40971184 209.48901749 C-179.56466942 209.48693612 -181.7196465 209.49158984 -183.87457085 209.5037384 C-206.63896654 209.62368865 -224.26810549 204.67434615 -241.33984375 188.828125 C-254.5715648 175.34760236 -260.44122159 156.65094673 -260.27734375 138.078125 C-259.41094967 120.02609307 -249.92206201 104.19816768 -237.21875 91.91015625 C-227.29634556 83.36780454 -215.20035183 77.3212475 -202 77 C-201.86464844 76.22398437 -201.72929687 75.44796875 -201.58984375 74.6484375 C-197.66259987 54.94166881 -186.9355854 40.50354004 -170.53125 29.31640625 C-155.72797075 19.92381926 -136.94371956 16.33786961 -119.64453125 19.640625 C-117.85013851 20.13462786 -116.06447851 20.66346011 -114.296875 21.24609375 C-110.71683519 22.4453162 -110.71683519 22.4453162 -107 23 C-105.08944356 21.48274317 -105.08944356 21.48274317 -103.5 19.1875 C-78.32098082 -11.06490364 -34.29176266 -16.30421815 0 0 Z " fill="#FEFEFE" transform="translate(345,156)"/>
</svg>
