<svg xmlns="http://www.w3.org/2000/svg" xmlns:xlink="http://www.w3.org/1999/xlink" width="512" zoomAndPan="magnify" viewBox="0 0 384 383.999986" height="512" preserveAspectRatio="xMidYMid meet" version="1.0"><defs><g/><clipPath id="ccfaec13fd"><path d="M 0.296875 0.296875 L 371.703125 0.296875 L 371.703125 371.703125 L 0.296875 371.703125 Z M 0.296875 0.296875 " clip-rule="nonzero"/></clipPath><clipPath id="f34b0a586e"><path d="M 24.296875 0.296875 L 347.703125 0.296875 C 360.957031 0.296875 371.703125 11.042969 371.703125 24.296875 L 371.703125 347.703125 C 371.703125 360.957031 360.957031 371.703125 347.703125 371.703125 L 24.296875 371.703125 C 11.042969 371.703125 0.296875 360.957031 0.296875 347.703125 L 0.296875 24.296875 C 0.296875 11.042969 11.042969 0.296875 24.296875 0.296875 Z M 24.296875 0.296875 " clip-rule="nonzero"/></clipPath><clipPath id="578a985168"><path d="M 0.296875 0.296875 L 371.703125 0.296875 L 371.703125 371.703125 L 0.296875 371.703125 Z M 0.296875 0.296875 " clip-rule="nonzero"/></clipPath><clipPath id="3f8ae79e9f"><path d="M 24.296875 0.296875 L 347.703125 0.296875 C 360.957031 0.296875 371.703125 11.042969 371.703125 24.296875 L 371.703125 347.703125 C 371.703125 360.957031 360.957031 371.703125 347.703125 371.703125 L 24.296875 371.703125 C 11.042969 371.703125 0.296875 360.957031 0.296875 347.703125 L 0.296875 24.296875 C 0.296875 11.042969 11.042969 0.296875 24.296875 0.296875 Z M 24.296875 0.296875 " clip-rule="nonzero"/></clipPath><linearGradient x1="0" gradientTransform="matrix(1.450793, 0, 0, 1.450793, 0.298448, 0.298476)" y1="0" x2="255.999999" gradientUnits="userSpaceOnUse" y2="255.999999" id="89dd18105e"><stop stop-opacity="1" stop-color="rgb(69.799805%, 2.349854%, 60.778809%)" offset="0"/><stop stop-opacity="1" stop-color="rgb(69.613647%, 2.354431%, 60.838318%)" offset="0.0078125"/><stop stop-opacity="1" stop-color="rgb(69.242859%, 2.363586%, 60.958862%)" offset="0.015625"/><stop stop-opacity="1" stop-color="rgb(68.87207%, 2.372742%, 61.077881%)" offset="0.0234375"/><stop stop-opacity="1" stop-color="rgb(68.501282%, 2.381897%, 61.196899%)" offset="0.03125"/><stop stop-opacity="1" stop-color="rgb(68.130493%, 2.391052%, 61.317444%)" offset="0.0390625"/><stop stop-opacity="1" stop-color="rgb(67.759705%, 2.400208%, 61.436462%)" offset="0.046875"/><stop stop-opacity="1" stop-color="rgb(67.388916%, 2.409363%, 61.555481%)" offset="0.0546875"/><stop stop-opacity="1" stop-color="rgb(67.018127%, 2.418518%, 61.676025%)" offset="0.0625"/><stop stop-opacity="1" stop-color="rgb(66.647339%, 2.427673%, 61.795044%)" offset="0.0703125"/><stop stop-opacity="1" stop-color="rgb(66.27655%, 2.436829%, 61.914062%)" offset="0.078125"/><stop stop-opacity="1" stop-color="rgb(65.905762%, 2.445984%, 62.034607%)" offset="0.0859375"/><stop stop-opacity="1" stop-color="rgb(65.534973%, 2.455139%, 62.153625%)" offset="0.09375"/><stop stop-opacity="1" stop-color="rgb(65.164185%, 2.464294%, 62.272644%)" offset="0.101563"/><stop stop-opacity="1" stop-color="rgb(64.793396%, 2.47345%, 62.393188%)" offset="0.109375"/><stop stop-opacity="1" stop-color="rgb(64.422607%, 2.482605%, 62.512207%)" offset="0.117187"/><stop stop-opacity="1" stop-color="rgb(64.053345%, 2.49176%, 62.631226%)" offset="0.125"/><stop stop-opacity="1" stop-color="rgb(63.682556%, 2.500916%, 62.75177%)" offset="0.132812"/><stop stop-opacity="1" stop-color="rgb(63.311768%, 2.510071%, 62.870789%)" offset="0.140625"/><stop stop-opacity="1" stop-color="rgb(62.940979%, 2.519226%, 62.989807%)" offset="0.148438"/><stop stop-opacity="1" stop-color="rgb(62.57019%, 2.528381%, 63.110352%)" offset="0.15625"/><stop stop-opacity="1" stop-color="rgb(62.199402%, 2.537537%, 63.22937%)" offset="0.164062"/><stop stop-opacity="1" stop-color="rgb(61.828613%, 2.546692%, 63.348389%)" offset="0.171875"/><stop stop-opacity="1" stop-color="rgb(61.457825%, 2.557373%, 63.468933%)" offset="0.179688"/><stop stop-opacity="1" stop-color="rgb(61.087036%, 2.566528%, 63.587952%)" offset="0.1875"/><stop stop-opacity="1" stop-color="rgb(60.716248%, 2.575684%, 63.70697%)" offset="0.195312"/><stop stop-opacity="1" stop-color="rgb(60.345459%, 2.584839%, 63.827515%)" offset="0.203125"/><stop stop-opacity="1" stop-color="rgb(59.97467%, 2.593994%, 63.946533%)" offset="0.210938"/><stop stop-opacity="1" stop-color="rgb(59.603882%, 2.603149%, 64.065552%)" offset="0.21875"/><stop stop-opacity="1" stop-color="rgb(59.233093%, 2.612305%, 64.186096%)" offset="0.226562"/><stop stop-opacity="1" stop-color="rgb(58.862305%, 2.62146%, 64.305115%)" offset="0.234375"/><stop stop-opacity="1" stop-color="rgb(58.491516%, 2.630615%, 64.424133%)" offset="0.242188"/><stop stop-opacity="1" stop-color="rgb(58.120728%, 2.639771%, 64.544678%)" offset="0.25"/><stop stop-opacity="1" stop-color="rgb(57.749939%, 2.648926%, 64.663696%)" offset="0.257812"/><stop stop-opacity="1" stop-color="rgb(57.380676%, 2.658081%, 64.782715%)" offset="0.265625"/><stop stop-opacity="1" stop-color="rgb(57.009888%, 2.667236%, 64.903259%)" offset="0.273438"/><stop stop-opacity="1" stop-color="rgb(56.639099%, 2.676392%, 65.022278%)" offset="0.28125"/><stop stop-opacity="1" stop-color="rgb(56.268311%, 2.685547%, 65.141296%)" offset="0.289063"/><stop stop-opacity="1" stop-color="rgb(55.897522%, 2.694702%, 65.261841%)" offset="0.296875"/><stop stop-opacity="1" stop-color="rgb(55.526733%, 2.703857%, 65.380859%)" offset="0.304688"/><stop stop-opacity="1" stop-color="rgb(55.155945%, 2.713013%, 65.499878%)" offset="0.3125"/><stop stop-opacity="1" stop-color="rgb(54.785156%, 2.722168%, 65.620422%)" offset="0.320312"/><stop stop-opacity="1" stop-color="rgb(54.414368%, 2.731323%, 65.739441%)" offset="0.328125"/><stop stop-opacity="1" stop-color="rgb(54.043579%, 2.740479%, 65.858459%)" offset="0.335937"/><stop stop-opacity="1" stop-color="rgb(53.672791%, 2.749634%, 65.979004%)" offset="0.34375"/><stop stop-opacity="1" stop-color="rgb(53.302002%, 2.758789%, 66.098022%)" offset="0.351562"/><stop stop-opacity="1" stop-color="rgb(52.931213%, 2.767944%, 66.217041%)" offset="0.359375"/><stop stop-opacity="1" stop-color="rgb(52.560425%, 2.778625%, 66.337585%)" offset="0.367188"/><stop stop-opacity="1" stop-color="rgb(52.189636%, 2.787781%, 66.456604%)" offset="0.375"/><stop stop-opacity="1" stop-color="rgb(51.818848%, 2.796936%, 66.575623%)" offset="0.382812"/><stop stop-opacity="1" stop-color="rgb(51.448059%, 2.806091%, 66.696167%)" offset="0.390625"/><stop stop-opacity="1" stop-color="rgb(51.077271%, 2.815247%, 66.815186%)" offset="0.398438"/><stop stop-opacity="1" stop-color="rgb(50.708008%, 2.824402%, 66.934204%)" offset="0.40625"/><stop stop-opacity="1" stop-color="rgb(50.337219%, 2.833557%, 67.054749%)" offset="0.414063"/><stop stop-opacity="1" stop-color="rgb(49.966431%, 2.842712%, 67.173767%)" offset="0.421875"/><stop stop-opacity="1" stop-color="rgb(49.595642%, 2.851868%, 67.292786%)" offset="0.429688"/><stop stop-opacity="1" stop-color="rgb(49.224854%, 2.861023%, 67.41333%)" offset="0.4375"/><stop stop-opacity="1" stop-color="rgb(48.854065%, 2.870178%, 67.532349%)" offset="0.445312"/><stop stop-opacity="1" stop-color="rgb(48.483276%, 2.879333%, 67.651367%)" offset="0.453125"/><stop stop-opacity="1" stop-color="rgb(48.112488%, 2.888489%, 67.771912%)" offset="0.460937"/><stop stop-opacity="1" stop-color="rgb(47.741699%, 2.897644%, 67.89093%)" offset="0.46875"/><stop stop-opacity="1" stop-color="rgb(47.370911%, 2.906799%, 68.009949%)" offset="0.476562"/><stop stop-opacity="1" stop-color="rgb(47.000122%, 2.915955%, 68.130493%)" offset="0.484375"/><stop stop-opacity="1" stop-color="rgb(46.629333%, 2.92511%, 68.249512%)" offset="0.492188"/><stop stop-opacity="1" stop-color="rgb(46.258545%, 2.934265%, 68.36853%)" offset="0.5"/><stop stop-opacity="1" stop-color="rgb(46.073914%, 2.938843%, 68.429565%)" offset="0.5"/><stop stop-opacity="1" stop-color="rgb(45.887756%, 2.94342%, 68.489075%)" offset="0.5"/><stop stop-opacity="1" stop-color="rgb(45.703125%, 2.947998%, 68.548584%)" offset="0.507812"/><stop stop-opacity="1" stop-color="rgb(45.516968%, 2.952576%, 68.608093%)" offset="0.515625"/><stop stop-opacity="1" stop-color="rgb(45.146179%, 2.961731%, 68.727112%)" offset="0.523438"/><stop stop-opacity="1" stop-color="rgb(44.775391%, 2.970886%, 68.847656%)" offset="0.53125"/><stop stop-opacity="1" stop-color="rgb(44.404602%, 2.980042%, 68.966675%)" offset="0.539062"/><stop stop-opacity="1" stop-color="rgb(44.035339%, 2.989197%, 69.085693%)" offset="0.546875"/><stop stop-opacity="1" stop-color="rgb(43.664551%, 2.999878%, 69.206238%)" offset="0.554688"/><stop stop-opacity="1" stop-color="rgb(43.293762%, 3.009033%, 69.325256%)" offset="0.5625"/><stop stop-opacity="1" stop-color="rgb(42.922974%, 3.018188%, 69.444275%)" offset="0.570312"/><stop stop-opacity="1" stop-color="rgb(42.552185%, 3.027344%, 69.564819%)" offset="0.578125"/><stop stop-opacity="1" stop-color="rgb(42.181396%, 3.036499%, 69.683838%)" offset="0.585938"/><stop stop-opacity="1" stop-color="rgb(41.810608%, 3.045654%, 69.802856%)" offset="0.59375"/><stop stop-opacity="1" stop-color="rgb(41.439819%, 3.05481%, 69.923401%)" offset="0.601562"/><stop stop-opacity="1" stop-color="rgb(41.069031%, 3.063965%, 70.042419%)" offset="0.609375"/><stop stop-opacity="1" stop-color="rgb(40.698242%, 3.07312%, 70.161438%)" offset="0.617187"/><stop stop-opacity="1" stop-color="rgb(40.327454%, 3.082275%, 70.281982%)" offset="0.625"/><stop stop-opacity="1" stop-color="rgb(39.956665%, 3.091431%, 70.401001%)" offset="0.632813"/><stop stop-opacity="1" stop-color="rgb(39.585876%, 3.100586%, 70.52002%)" offset="0.640625"/><stop stop-opacity="1" stop-color="rgb(39.215088%, 3.109741%, 70.640564%)" offset="0.648438"/><stop stop-opacity="1" stop-color="rgb(38.844299%, 3.118896%, 70.759583%)" offset="0.65625"/><stop stop-opacity="1" stop-color="rgb(38.473511%, 3.128052%, 70.880127%)" offset="0.664062"/><stop stop-opacity="1" stop-color="rgb(38.102722%, 3.137207%, 70.999146%)" offset="0.671875"/><stop stop-opacity="1" stop-color="rgb(37.733459%, 3.146362%, 71.118164%)" offset="0.679688"/><stop stop-opacity="1" stop-color="rgb(37.362671%, 3.155518%, 71.238708%)" offset="0.6875"/><stop stop-opacity="1" stop-color="rgb(36.991882%, 3.164673%, 71.357727%)" offset="0.695312"/><stop stop-opacity="1" stop-color="rgb(36.621094%, 3.173828%, 71.476746%)" offset="0.703125"/><stop stop-opacity="1" stop-color="rgb(36.250305%, 3.182983%, 71.59729%)" offset="0.710938"/><stop stop-opacity="1" stop-color="rgb(35.879517%, 3.192139%, 71.716309%)" offset="0.71875"/><stop stop-opacity="1" stop-color="rgb(35.508728%, 3.201294%, 71.835327%)" offset="0.726562"/><stop stop-opacity="1" stop-color="rgb(35.137939%, 3.210449%, 71.955872%)" offset="0.734375"/><stop stop-opacity="1" stop-color="rgb(34.767151%, 3.22113%, 72.07489%)" offset="0.742188"/><stop stop-opacity="1" stop-color="rgb(34.396362%, 3.230286%, 72.193909%)" offset="0.75"/><stop stop-opacity="1" stop-color="rgb(34.025574%, 3.239441%, 72.314453%)" offset="0.757812"/><stop stop-opacity="1" stop-color="rgb(33.654785%, 3.248596%, 72.433472%)" offset="0.765625"/><stop stop-opacity="1" stop-color="rgb(33.283997%, 3.257751%, 72.55249%)" offset="0.773438"/><stop stop-opacity="1" stop-color="rgb(32.913208%, 3.266907%, 72.673035%)" offset="0.78125"/><stop stop-opacity="1" stop-color="rgb(32.542419%, 3.276062%, 72.792053%)" offset="0.789062"/><stop stop-opacity="1" stop-color="rgb(32.171631%, 3.285217%, 72.911072%)" offset="0.796875"/><stop stop-opacity="1" stop-color="rgb(31.800842%, 3.294373%, 73.031616%)" offset="0.804688"/><stop stop-opacity="1" stop-color="rgb(31.430054%, 3.303528%, 73.150635%)" offset="0.8125"/><stop stop-opacity="1" stop-color="rgb(31.060791%, 3.312683%, 73.269653%)" offset="0.820312"/><stop stop-opacity="1" stop-color="rgb(30.690002%, 3.321838%, 73.390198%)" offset="0.828125"/><stop stop-opacity="1" stop-color="rgb(30.319214%, 3.330994%, 73.509216%)" offset="0.835938"/><stop stop-opacity="1" stop-color="rgb(29.948425%, 3.340149%, 73.628235%)" offset="0.84375"/><stop stop-opacity="1" stop-color="rgb(29.577637%, 3.349304%, 73.748779%)" offset="0.851562"/><stop stop-opacity="1" stop-color="rgb(29.206848%, 3.358459%, 73.867798%)" offset="0.859375"/><stop stop-opacity="1" stop-color="rgb(28.83606%, 3.367615%, 73.986816%)" offset="0.867187"/><stop stop-opacity="1" stop-color="rgb(28.465271%, 3.37677%, 74.107361%)" offset="0.875"/><stop stop-opacity="1" stop-color="rgb(28.094482%, 3.385925%, 74.226379%)" offset="0.882813"/><stop stop-opacity="1" stop-color="rgb(27.723694%, 3.395081%, 74.345398%)" offset="0.890625"/><stop stop-opacity="1" stop-color="rgb(27.352905%, 3.404236%, 74.465942%)" offset="0.898438"/><stop stop-opacity="1" stop-color="rgb(26.982117%, 3.413391%, 74.584961%)" offset="0.90625"/><stop stop-opacity="1" stop-color="rgb(26.611328%, 3.422546%, 74.703979%)" offset="0.914062"/><stop stop-opacity="1" stop-color="rgb(26.24054%, 3.431702%, 74.824524%)" offset="0.921875"/><stop stop-opacity="1" stop-color="rgb(25.869751%, 3.442383%, 74.943542%)" offset="0.929688"/><stop stop-opacity="1" stop-color="rgb(25.498962%, 3.451538%, 75.062561%)" offset="0.9375"/><stop stop-opacity="1" stop-color="rgb(25.128174%, 3.460693%, 75.183105%)" offset="0.945312"/><stop stop-opacity="1" stop-color="rgb(24.757385%, 3.469849%, 75.302124%)" offset="0.953125"/><stop stop-opacity="1" stop-color="rgb(24.388123%, 3.479004%, 75.421143%)" offset="0.960938"/><stop stop-opacity="1" stop-color="rgb(24.017334%, 3.488159%, 75.541687%)" offset="0.96875"/><stop stop-opacity="1" stop-color="rgb(23.646545%, 3.497314%, 75.660706%)" offset="0.976562"/><stop stop-opacity="1" stop-color="rgb(23.275757%, 3.50647%, 75.779724%)" offset="0.984375"/><stop stop-opacity="1" stop-color="rgb(22.904968%, 3.515625%, 75.900269%)" offset="0.992188"/><stop stop-opacity="1" stop-color="rgb(22.53418%, 3.52478%, 76.019287%)" offset="1"/></linearGradient><clipPath id="4f10295efe"><rect x="0" width="372" y="0" height="372"/></clipPath><clipPath id="6ca50d3d94"><path d="M 80.574219 90.3125 L 286.328125 90.3125 L 286.328125 296.066406 L 80.574219 296.066406 Z M 80.574219 90.3125 " clip-rule="nonzero"/></clipPath><clipPath id="6885d91f09"><path d="M 183.449219 90.3125 C 126.632812 90.3125 80.574219 136.371094 80.574219 193.1875 C 80.574219 250.007812 126.632812 296.066406 183.449219 296.066406 C 240.269531 296.066406 286.328125 250.007812 286.328125 193.1875 C 286.328125 136.371094 240.269531 90.3125 183.449219 90.3125 Z M 183.449219 90.3125 " clip-rule="nonzero"/></clipPath><clipPath id="695bab7c0f"><path d="M 0.574219 0.3125 L 206.328125 0.3125 L 206.328125 206.066406 L 0.574219 206.066406 Z M 0.574219 0.3125 " clip-rule="nonzero"/></clipPath><clipPath id="0b480976a8"><path d="M 103.449219 0.3125 C 46.632812 0.3125 0.574219 46.371094 0.574219 103.1875 C 0.574219 160.007812 46.632812 206.066406 103.449219 206.066406 C 160.269531 206.066406 206.328125 160.007812 206.328125 103.1875 C 206.328125 46.371094 160.269531 0.3125 103.449219 0.3125 Z M 103.449219 0.3125 " clip-rule="nonzero"/></clipPath><clipPath id="32808c0833"><rect x="0" width="207" y="0" height="207"/></clipPath><clipPath id="a960af3059"><path d="M 0.746094 0.746094 L 303.253906 0.746094 L 303.253906 303.253906 L 0.746094 303.253906 Z M 0.746094 0.746094 " clip-rule="nonzero"/></clipPath><clipPath id="e6ec7509b3"><path d="M 152 0.746094 C 235.535156 0.746094 303.253906 68.464844 303.253906 152 C 303.253906 235.535156 235.535156 303.253906 152 303.253906 C 68.464844 303.253906 0.746094 235.535156 0.746094 152 C 0.746094 68.464844 68.464844 0.746094 152 0.746094 L 152 61.246094 C 101.878906 61.246094 61.246094 101.878906 61.246094 152 C 61.246094 202.121094 101.878906 242.753906 152 242.753906 C 202.121094 242.753906 242.753906 202.121094 242.753906 152 C 242.753906 101.878906 202.121094 61.246094 152 61.246094 Z M 152 0.746094 " clip-rule="nonzero"/></clipPath><clipPath id="6f851ea9ef"><path d="M 0.746094 0.746094 L 303.253906 0.746094 L 303.253906 303.253906 L 0.746094 303.253906 Z M 0.746094 0.746094 " clip-rule="nonzero"/></clipPath><clipPath id="b496bac074"><path d="M 152 0.746094 C 235.535156 0.746094 303.253906 68.464844 303.253906 152 C 303.253906 235.535156 235.535156 303.253906 152 303.253906 C 68.464844 303.253906 0.746094 235.535156 0.746094 152 C 0.746094 68.464844 68.464844 0.746094 152 0.746094 L 152 61.246094 C 101.878906 61.246094 61.246094 101.878906 61.246094 152 C 61.246094 202.121094 101.878906 242.753906 152 242.753906 C 202.121094 242.753906 242.753906 202.121094 242.753906 152 C 242.753906 101.878906 202.121094 61.246094 152 61.246094 Z M 152 0.746094 " clip-rule="nonzero"/></clipPath><clipPath id="b71d134adb"><rect x="0" width="304" y="0" height="304"/></clipPath><clipPath id="d9e20eac71"><path d="M 33 4.289062 L 303.441406 4.289062 L 303.441406 303.441406 L 33 303.441406 Z M 33 4.289062 " clip-rule="nonzero"/></clipPath><clipPath id="15b2b6984a"><path d="M 189.8125 5.546875 C 252.082031 21.625 297.378906 75.324219 302.730469 139.410156 C 308.082031 203.5 272.324219 263.964844 213.582031 290.148438 C 154.84375 316.335938 85.96875 302.511719 41.878906 255.691406 C 30.425781 243.527344 31.003906 224.382812 43.167969 212.929688 C 55.328125 201.476562 74.476562 202.050781 85.929688 214.214844 C 112.382812 242.308594 153.707031 250.601562 188.949219 234.890625 C 224.195312 219.179688 245.648438 182.898438 242.4375 144.445312 C 239.226562 105.992188 212.050781 73.777344 174.6875 64.128906 C 164.222656 61.425781 155.996094 53.347656 153.101562 42.933594 C 150.210938 32.519531 153.09375 21.355469 160.667969 13.644531 C 168.238281 5.933594 179.347656 2.847656 189.8125 5.546875 Z M 189.8125 5.546875 " clip-rule="nonzero"/></clipPath><clipPath id="6300f0bd25"><path d="M 0 0.289062 L 270.441406 0.289062 L 270.441406 299.441406 L 0 299.441406 Z M 0 0.289062 " clip-rule="nonzero"/></clipPath><clipPath id="c6e700e38e"><path d="M 156.8125 1.546875 C 219.082031 17.625 264.378906 71.324219 269.730469 135.410156 C 275.082031 199.5 239.324219 259.964844 180.582031 286.148438 C 121.84375 312.335938 52.96875 298.511719 8.878906 251.691406 C -2.574219 239.527344 -1.996094 220.382812 10.167969 208.929688 C 22.328125 197.476562 41.476562 198.050781 52.929688 210.214844 C 79.382812 238.308594 120.707031 246.601562 155.949219 230.890625 C 191.195312 215.179688 212.648438 178.898438 209.4375 140.445312 C 206.226562 101.992188 179.050781 69.777344 141.6875 60.128906 C 131.222656 57.425781 122.996094 49.347656 120.101562 38.933594 C 117.210938 28.519531 120.09375 17.355469 127.667969 9.644531 C 135.238281 1.933594 146.347656 -1.152344 156.8125 1.546875 Z M 156.8125 1.546875 " clip-rule="nonzero"/></clipPath><clipPath id="6d172aaf51"><rect x="0" width="271" y="0" height="300"/></clipPath><clipPath id="b5dfff81ca"><rect x="0" width="304" y="0" height="304"/></clipPath><clipPath id="e632c942f1"><rect x="0" width="248" y="0" height="148"/></clipPath><clipPath id="4ed1562af8"><rect x="0" width="372" y="0" height="372"/></clipPath></defs><rect x="-38.4" width="460.8" fill="#ffffff" y="-38.399999" height="460.799983" fill-opacity="1"/><rect x="-38.4" width="460.8" fill="#ffffff" y="-38.399999" height="460.799983" fill-opacity="1"/><g transform="matrix(1, 0, 0, 1, 6, 6)"><g clip-path="url(#4ed1562af8)"><g clip-path="url(#ccfaec13fd)"><g clip-path="url(#f34b0a586e)"><g><g clip-path="url(#4f10295efe)"><g clip-path="url(#578a985168)"><g clip-path="url(#3f8ae79e9f)"><path fill="url(#89dd18105e)" d="M 0.296875 0.296875 L 0.296875 371.703125 L 371.703125 371.703125 L 371.703125 0.296875 Z M 0.296875 0.296875 " fill-rule="nonzero"/></g></g></g></g></g></g><g clip-path="url(#6ca50d3d94)"><g clip-path="url(#6885d91f09)"><g transform="matrix(1, 0, 0, 1, 80, 90)"><g clip-path="url(#32808c0833)"><g clip-path="url(#695bab7c0f)"><g clip-path="url(#0b480976a8)"><path fill="#b8b8b8" d="M 0.574219 0.3125 L 206.328125 0.3125 L 206.328125 206.066406 L 0.574219 206.066406 Z M 0.574219 0.3125 " fill-opacity="1" fill-rule="nonzero"/></g></g></g></g></g></g><g transform="matrix(1, 0, 0, 1, 34, 34)"><g clip-path="url(#b5dfff81ca)"><g clip-path="url(#a960af3059)"><g clip-path="url(#e6ec7509b3)"><g transform="matrix(1, 0, 0, 1, -0.000000000000007105, -0.000000000000007105)"><g clip-path="url(#b71d134adb)"><g clip-path="url(#6f851ea9ef)"><g clip-path="url(#b496bac074)"><path fill="#fffc01" d="M 0.746094 0.746094 L 303.253906 0.746094 L 303.253906 303.253906 L 0.746094 303.253906 Z M 0.746094 0.746094 " fill-opacity="1" fill-rule="nonzero"/></g></g></g></g></g></g><g clip-path="url(#d9e20eac71)"><g clip-path="url(#15b2b6984a)"><g transform="matrix(1, 0, 0, 1, 33, 4)"><g clip-path="url(#6d172aaf51)"><g clip-path="url(#6300f0bd25)"><g clip-path="url(#c6e700e38e)"><path fill="#6ce5e8" d="M -32.253906 -3.253906 L 270.253906 -3.253906 L 270.253906 299.253906 L -32.253906 299.253906 Z M -32.253906 -3.253906 " fill-opacity="1" fill-rule="nonzero"/></g></g></g></g></g></g></g></g><g transform="matrix(1, 0, 0, 1, 61, 116)"><g clip-path="url(#e632c942f1)"><g fill="#000000" fill-opacity="1"><g transform="translate(19.763015, 127.320653)"><g><path d="M 31.734375 -23.5 C 32.492188 -20.613281 32.4375 -17.851562 31.5625 -15.21875 C 30.695312 -12.59375 29.046875 -10.296875 26.609375 -8.328125 C 24.179688 -6.359375 21.109375 -4.882812 17.390625 -3.90625 C 14.285156 -3.082031 11.625 -2.613281 9.40625 -2.5 C 7.195312 -2.382812 4.816406 -2.566406 2.265625 -3.046875 L -0.6875 -14.25 C 2.03125 -13.644531 4.773438 -13.335938 7.546875 -13.328125 C 10.316406 -13.328125 12.785156 -13.613281 14.953125 -14.1875 C 16.816406 -14.675781 18.097656 -15.359375 18.796875 -16.234375 C 19.492188 -17.117188 19.710938 -18.066406 19.453125 -19.078125 C 19.285156 -19.710938 18.960938 -20.222656 18.484375 -20.609375 C 18.003906 -21.003906 17.3125 -21.34375 16.40625 -21.625 C 15.507812 -21.914062 13.179688 -22.375 9.421875 -23 C 6.023438 -23.570312 3.394531 -24.304688 1.53125 -25.203125 C -0.320312 -26.097656 -1.832031 -27.285156 -3 -28.765625 C -4.175781 -30.253906 -5.066406 -32.140625 -5.671875 -34.421875 C -6.804688 -38.710938 -6.128906 -42.46875 -3.640625 -45.6875 C -1.148438 -48.914062 2.820312 -51.25 8.28125 -52.6875 C 13.09375 -53.957031 18.296875 -54.140625 23.890625 -53.234375 L 22.609375 -42.5 C 17.734375 -43.351562 13.710938 -43.363281 10.546875 -42.53125 C 8.910156 -42.09375 7.796875 -41.488281 7.203125 -40.71875 C 6.617188 -39.945312 6.4375 -39.132812 6.65625 -38.28125 C 6.894531 -37.375 7.582031 -36.679688 8.71875 -36.203125 C 9.851562 -35.734375 12.765625 -35.097656 17.453125 -34.296875 C 21.941406 -33.554688 25.238281 -32.359375 27.34375 -30.703125 C 29.445312 -29.046875 30.910156 -26.644531 31.734375 -23.5 Z M 31.734375 -23.5 "/></g></g></g><g fill="#000000" fill-opacity="1"><g transform="translate(57.393299, 117.394708)"><g><path d="M 16.03125 -43.703125 C 13.03125 -42.910156 11.015625 -41.066406 9.984375 -38.171875 C 8.953125 -35.273438 9.003906 -31.671875 10.140625 -27.359375 C 12.503906 -18.410156 17.09375 -14.835938 23.90625 -16.640625 C 25.96875 -17.179688 27.890625 -17.988281 29.671875 -19.0625 C 31.453125 -20.144531 33.210938 -21.34375 34.953125 -22.65625 L 37.75 -12.046875 C 34.320312 -9.296875 30.160156 -7.273438 25.265625 -5.984375 C 18.234375 -4.128906 12.304688 -4.742188 7.484375 -7.828125 C 2.660156 -10.921875 -0.765625 -16.316406 -2.796875 -24.015625 C -4.066406 -28.835938 -4.273438 -33.3125 -3.421875 -37.4375 C -2.566406 -41.570312 -0.695312 -45.066406 2.1875 -47.921875 C 5.070312 -50.785156 8.816406 -52.828125 13.421875 -54.046875 C 18.460938 -55.367188 23.5625 -55.539062 28.71875 -54.5625 L 27.46875 -43.640625 C 25.539062 -44.003906 23.644531 -44.234375 21.78125 -44.328125 C 19.914062 -44.429688 18 -44.222656 16.03125 -43.703125 Z M 16.03125 -43.703125 "/></g></g></g><g fill="#000000" fill-opacity="1"><g transform="translate(99.703497, 106.234317)"><g><path d="M 33.578125 -8.859375 L 29 -16.96875 L 13.890625 -12.984375 L 13.828125 -3.640625 L 0 0 L 2.859375 -50.75 L 19.640625 -55.1875 L 47.34375 -12.484375 Z M 23.671875 -26.59375 L 19.65625 -33.71875 C 18.726562 -35.300781 17.578125 -37.347656 16.203125 -39.859375 C 14.828125 -42.378906 13.875 -44.191406 13.34375 -45.296875 C 13.445312 -44.171875 13.546875 -42.289062 13.640625 -39.65625 C 13.734375 -37.019531 13.773438 -31.796875 13.765625 -23.984375 Z M 23.671875 -26.59375 "/></g></g></g><g fill="#000000" fill-opacity="1"><g transform="translate(147.043802, 93.747107)"><g><path d="M 18.890625 -54.765625 L 32.96875 -58.484375 L 29.984375 -7.90625 L 15.1875 -4 L -12.28125 -46.546875 L 1.859375 -50.28125 L 14.421875 -28.359375 C 17.117188 -23.460938 18.796875 -20 19.453125 -17.96875 C 19.222656 -19.5 19.035156 -21.4375 18.890625 -23.78125 C 18.753906 -26.132812 18.6875 -27.988281 18.6875 -29.34375 Z M 18.890625 -54.765625 "/></g></g></g><g fill="#000000" fill-opacity="1"><g transform="translate(192.282923, 81.814137)"><g><path d="M 32.3125 -58.3125 L 39.703125 -30.296875 C 41.304688 -24.203125 40.828125 -19.023438 38.265625 -14.765625 C 35.710938 -10.515625 31.1875 -7.535156 24.6875 -5.828125 C 18.34375 -4.148438 13.035156 -4.488281 8.765625 -6.84375 C 4.503906 -9.195312 1.570312 -13.421875 -0.03125 -19.515625 L -7.5 -47.8125 L 5.140625 -51.140625 L 12.34375 -23.828125 C 13.21875 -20.535156 14.460938 -18.304688 16.078125 -17.140625 C 17.703125 -15.972656 19.710938 -15.707031 22.109375 -16.34375 C 24.671875 -17.019531 26.335938 -18.25 27.109375 -20.03125 C 27.878906 -21.820312 27.820312 -24.394531 26.9375 -27.75 L 19.75 -55 Z M 32.3125 -58.3125 "/></g></g></g></g></g></g></g></svg>