<?xml version="1.0" encoding="UTF-8"?>
<svg version="1.1" xmlns="http://www.w3.org/2000/svg" width="240" height="240">
<path d="M0 0 C1.5077583 -0.00543353 3.01551128 -0.01256304 4.52325439 -0.02124023 C8.58333933 -0.03933212 12.64301347 -0.03246482 16.70310473 -0.01972389 C20.97444856 -0.00952039 25.24575973 -0.01900998 29.5171051 -0.02526855 C36.68806196 -0.03252452 43.85885347 -0.02301221 51.02978516 -0.00390625 C59.29030923 0.01785026 67.55043812 0.0108118 75.8109526 -0.01121187 C82.93409053 -0.02943457 90.05711032 -0.03189056 97.18026406 -0.0214572 C101.42104276 -0.01525876 105.66163647 -0.0142848 109.90240288 -0.02760315 C113.89257941 -0.03926143 117.88225264 -0.03095665 121.87237549 -0.00802612 C123.32628105 -0.00279138 124.78022986 -0.00416157 126.23411751 -0.01307678 C142.93038015 -0.10592317 156.19349167 4.26961142 168.42797852 15.83007812 C179.92134951 27.98021317 183.23330383 41.52877762 183.13305664 57.90209961 C183.13849017 59.40985791 183.14561968 60.91761088 183.15429688 62.425354 C183.17238876 66.48543894 183.16552146 70.54511308 183.15278053 74.60520434 C183.14257703 78.87654817 183.15206662 83.14785934 183.1583252 87.41920471 C183.16558116 94.59016156 183.15606885 101.76095308 183.13696289 108.93188477 C183.11520638 117.19240884 183.12224484 125.45253773 183.14426851 133.71305221 C183.16249121 140.83619014 183.1649472 147.95920993 183.15451384 155.08236367 C183.1483154 159.32314236 183.14734144 163.56373608 183.16065979 167.80450249 C183.17231807 171.79467902 183.16401329 175.78435225 183.14108276 179.7744751 C183.13584802 181.22838066 183.13721821 182.68232947 183.14613342 184.13621712 C183.23897981 200.83247976 178.86344522 214.09559128 167.30297852 226.33007812 C155.15284347 237.82344912 141.60427902 241.13540344 125.23095703 241.03515625 C123.72319873 241.04058978 122.21544576 241.04771929 120.70770264 241.05639648 C116.64761771 241.07448837 112.58794356 241.06762107 108.5278523 241.05488014 C104.25650847 241.04467664 99.9851973 241.05416623 95.71385193 241.0604248 C88.54289508 241.06768077 81.37210356 241.05816846 74.20117188 241.0390625 C65.9406478 241.01730599 57.68051891 241.02434445 49.42000443 241.04636812 C42.2968665 241.06459082 35.17384671 241.06704681 28.05069298 241.05661345 C23.80991428 241.05041501 19.56932056 241.04944105 15.32855415 241.0627594 C11.33837762 241.07441768 7.34870439 241.0661129 3.35858154 241.04318237 C1.90467599 241.03794763 0.45072717 241.03931782 -1.00316048 241.04823303 C-17.69942312 241.14107942 -30.96253464 236.76554483 -43.19702148 225.20507812 C-54.69039248 213.05494308 -58.0023468 199.50637863 -57.90209961 183.13305664 C-57.90753314 181.62529834 -57.91466265 180.11754537 -57.92333984 178.60980225 C-57.94143173 174.54971731 -57.93456443 170.49004317 -57.9218235 166.42995191 C-57.91162 162.15860808 -57.92110959 157.88729691 -57.92736816 153.61595154 C-57.93462413 146.44499469 -57.92511182 139.27420317 -57.90600586 132.10327148 C-57.88424934 123.84274741 -57.89128781 115.58261852 -57.91331148 107.32210404 C-57.93153418 100.19896611 -57.93399017 93.07594632 -57.9235568 85.95279258 C-57.91735836 81.71201389 -57.91638441 77.47142017 -57.92970276 73.23065376 C-57.94136103 69.24047723 -57.93305626 65.250804 -57.91012573 61.26068115 C-57.90489099 59.80677559 -57.90626118 58.35282678 -57.91517639 56.89893913 C-58.00802278 40.20267649 -53.63248819 26.93956497 -42.07202148 14.70507812 C-29.92188644 3.21170713 -16.37332199 -0.10024719 0 0 Z M11.15063477 69.75195312 C-2.48901578 84.6315719 -9.38452148 102.36662186 -9.38452148 122.51757812 C-8.08168259 142.69122408 -0.37649117 160.77493925 14.61547852 174.51757812 C30.23913692 187.34704349 48.25076473 193.57443149 68.48657227 192.26757812 C87.56716637 190.08024288 105.49648143 182.05823686 117.87768555 166.98046875 C130.72892374 150.38453237 136.32901354 131.77482113 133.92797852 110.83007812 C130.87740494 91.64934756 121.64427517 74.44995932 105.83837891 62.80834961 C76.27807903 42.05398527 37.30833057 44.63440134 11.15063477 69.75195312 Z " fill="#FF3B2F" transform="translate(57.384521484375,-0.517578125)"/>
<path d="M0 0 C12.86718815 9.49670559 21.82985979 21.4819705 24.45556641 37.4921875 C26.74940489 53.83819619 22.60104217 68.77635916 12.7265625 82.01953125 C12.27925781 82.59058594 11.83195312 83.16164063 11.37109375 83.75 C7.42794044 82.47840948 3.56943439 81.06015971 -0.28491211 79.54150391 C-22.39043152 70.92882587 -43.72751113 72.13087238 -65.484375 81.4453125 C-67.89969361 82.44744469 -70.08023759 83.23141233 -72.62890625 83.75 C-83.88632438 69.37813766 -87.14966477 54.60015891 -85.62890625 36.75 C-83.21176174 22.17300719 -74.45217857 9.36116944 -62.62890625 0.75 C-58.74761195 -1.59109815 -54.80718913 -3.50016878 -50.62890625 -5.25 C-49.86449219 -5.5903125 -49.10007813 -5.930625 -48.3125 -6.28125 C-33.07195734 -12.00639298 -13.33210142 -8.75671686 0 0 Z M-50.19140625 21.8125 C-54.42229986 27.86519483 -54.29209128 34.5747064 -53.62890625 41.75 C-51.57840673 48.5589957 -47.13893348 53.45418672 -41.06640625 57.0625 C-35.17307635 59.791925 -28.43798241 59.92347157 -22.2578125 58.01953125 C-15.89377974 55.07210587 -11.30680038 50.48512651 -8.359375 44.12109375 C-6.45543468 37.94092384 -6.58698125 31.2058299 -9.31640625 25.3125 C-12.94601445 19.20413498 -17.81701085 14.86675427 -24.62890625 12.75 C-34.80515883 11.23408927 -43.6922644 13.55349552 -50.19140625 21.8125 Z " fill="#FF3B2F" transform="translate(150.62890625,73.25)"/>
</svg>
