<?xml version="1.0" encoding="UTF-8"?>
<svg version="1.1" xmlns="http://www.w3.org/2000/svg" width="300" height="300">
<path d="M0 0 C99 0 198 0 300 0 C300 99 300 198 300 300 C201 300 102 300 0 300 C0 201 0 102 0 0 Z " fill="#5292F1" transform="translate(0,0)"/>
<path d="M0 0 C18.81 0 37.62 0 57 0 C57 8.91 57 17.82 57 27 C58.98 27.33 60.96 27.66 63 28 C64.32912749 28.40296856 65.64722683 28.84594381 66.9453125 29.33984375 C67.62980469 29.59830078 68.31429687 29.85675781 69.01953125 30.12304688 C69.71433594 30.39181641 70.40914062 30.66058594 71.125 30.9375 C72.17880859 31.33485352 72.17880859 31.33485352 73.25390625 31.74023438 C76.6069379 33.01742885 79.78602064 34.39301032 83 36 C88.94 30.06 94.88 24.12 101 18 C104.459251 19.7296255 106.19517165 20.92890405 108.86645508 23.54418945 C109.61014847 24.26866776 110.35384186 24.99314606 111.12007141 25.73957825 C111.91189316 26.52290024 112.7037149 27.30622223 113.51953125 28.11328125 C114.3374968 28.91984665 115.15546234 29.72641205 115.99821472 30.55741882 C117.72322113 32.26354849 119.44534819 33.97259357 121.16479492 35.68432617 C123.8061204 38.30616746 126.46798255 40.90593356 129.13085938 43.50585938 C130.80339702 45.16534369 132.47466538 46.82610847 134.14453125 48.48828125 C134.94647415 49.26553055 135.74841705 50.04277985 136.57466125 50.84358215 C137.30259384 51.57751694 138.03052643 52.31145172 138.78051758 53.06762695 C139.7517028 54.02787529 139.7517028 54.02787529 140.74250793 55.00752258 C142 57 142 57 141.79238892 59.62423706 C140.86824302 62.39503751 139.76330546 63.72552351 137.69140625 65.76953125 C137.02689453 66.43017578 136.36238281 67.09082031 135.67773438 67.77148438 C134.63069336 68.78178711 134.63069336 68.78178711 133.5625 69.8125 C132.52125977 70.85180664 132.52125977 70.85180664 131.45898438 71.91210938 C126.28086515 77 126.28086515 77 124 77 C124.47050781 77.97839844 124.94101563 78.95679687 125.42578125 79.96484375 C134 97.95578146 134 97.95578146 134 103 C142.91 103 151.82 103 161 103 C161 119.83 161 136.66 161 154 C157.04 154 153.08 154 149 154 C149 141.46 149 128.92 149 116 C141.08 116 133.16 116 125 116 C124.01 113.03 123.02 110.06 122 107 C119.40056847 99.38505483 116.38855895 92.20292587 112.578125 85.11523438 C110.77495614 81.73609593 109.30489772 78.83956248 109 75 C110.26342773 73.05541992 110.26342773 73.05541992 112.18359375 71.23046875 C112.86357422 70.56982422 113.54355469 69.90917969 114.24414062 69.22851562 C114.96794922 68.55498047 115.69175781 67.88144531 116.4375 67.1875 C117.51741211 66.14819336 117.51741211 66.14819336 118.61914062 65.08789062 C120.40007996 63.37771709 122.19346102 61.68304201 124 60 C119.61557474 54.74825074 114.99157907 49.86777527 110.125 45.0625 C109.09246094 44.03672852 109.09246094 44.03672852 108.0390625 42.99023438 C106.36166489 41.32448536 104.68196209 39.6611378 103 38 C96.81965738 40.99258695 93.00219694 45.0380152 88.94140625 50.48828125 C87 52 87 52 84.1953125 51.92578125 C80.66055849 50.90165325 77.60559928 49.5197058 74.3125 47.875 C67.39951794 44.50259774 60.32774817 41.79542193 53.08325195 39.22216797 C47.08630204 37.08630204 47.08630204 37.08630204 46 36 C45.84259395 34.29436222 45.74906608 32.58272756 45.68359375 30.87109375 C45.64548584 29.93966553 45.60737793 29.0082373 45.56811523 28.04858398 C45.52501221 26.85692627 45.48190918 25.66526855 45.4375 24.4375 C45.2209375 18.7759375 45.2209375 18.7759375 45 13 C34.11 12.67 23.22 12.34 12 12 C12 19.92 12 27.84 12 36 C9.36 36.99 6.72 37.98 4 39 C0.70016712 40.25044659 -2.59015694 41.5231866 -5.875 42.8125 C-6.75542969 43.15780762 -7.63585937 43.50311523 -8.54296875 43.85888672 C-14.14358539 46.10846774 -19.21435588 48.60745628 -24.125 52.1640625 C-24.74375 52.43992188 -25.3625 52.71578125 -26 53 C-29.00223836 51.82082136 -30.92485546 50.27880736 -33.09375 47.92578125 C-33.64933594 47.34119141 -34.20492187 46.75660156 -34.77734375 46.15429688 C-35.9316405 44.92016781 -37.08004407 43.68050187 -38.22265625 42.43554688 C-38.77824219 41.85482422 -39.33382812 41.27410156 -39.90625 40.67578125 C-40.40447266 40.13864502 -40.90269531 39.60150879 -41.41601562 39.0480957 C-42.97488739 37.77372813 -42.97488739 37.77372813 -45.07055664 38.22827148 C-47.64293187 39.25715648 -49.03507759 40.74586392 -50.9375 42.75 C-51.63488281 43.47445312 -52.33226562 44.19890625 -53.05078125 44.9453125 C-54.01564453 45.96238281 -54.01564453 45.96238281 -55 47 C-60 52 -60 52 -61.63671875 53.53125 C-63.14528883 54.965974 -64.57831897 56.47913192 -66 58 C-66.34493943 61.00136375 -66.34493943 61.00136375 -64.49609375 62.578125 C-63.81675781 63.12984375 -63.13742188 63.6815625 -62.4375 64.25 C-61.715625 64.86101562 -60.99375 65.47203125 -60.25 66.1015625 C-59.5075 66.72804688 -58.765 67.35453125 -58 68 C-56.62667426 69.18651305 -55.27088352 70.39377086 -53.9375 71.625 C-53.05384766 72.41777344 -53.05384766 72.41777344 -52.15234375 73.2265625 C-51 75 -51 75 -51.08203125 77.28125 C-52.24338226 80.72082576 -53.94930629 83.74246626 -55.75 86.875 C-59.3346148 93.32024337 -61.8275565 99.71897743 -63.9921875 106.7578125 C-64.86031234 109.55061723 -65.9138236 112.284559 -67 115 C-74.92 115 -82.84 115 -91 115 C-91 127.87 -91 140.74 -91 154 C-95.29 154 -99.58 154 -104 154 C-104 137.17 -104 120.34 -104 103 C-94.76 103 -85.52 103 -76 103 C-75.67 101.02 -75.34 99.04 -75 97 C-72.52777535 90.10718036 -69.37147056 83.49320255 -66 77 C-66.58426758 76.7417041 -67.16853516 76.4834082 -67.77050781 76.21728516 C-70.17716622 74.90326864 -71.75319337 73.47519985 -73.671875 71.5234375 C-74.33574219 70.853125 -74.99960938 70.1828125 -75.68359375 69.4921875 C-76.36550781 68.79351562 -77.04742187 68.09484375 -77.75 67.375 C-78.44738281 66.66859375 -79.14476563 65.9621875 -79.86328125 65.234375 C-81.58012488 63.49401297 -83.29211832 61.74915019 -85 60 C-83.56741228 56.72803548 -81.81174684 54.56796044 -79.28466797 52.05761719 C-78.52403046 51.29713074 -77.76339294 50.53664429 -76.97970581 49.75311279 C-76.15882477 48.94255432 -75.33794373 48.13199585 -74.4921875 47.296875 C-73.65156769 46.45908508 -72.81094788 45.62129517 -71.94485474 44.75811768 C-69.25955999 42.08401569 -66.56739345 39.41695276 -63.875 36.75 C-62.05292845 34.93795938 -60.23130823 33.12546482 -58.41015625 31.3125 C-53.94532748 26.86971964 -49.47483717 22.43269835 -45 18 C-41.86770245 19.48910351 -39.86361044 20.95253782 -37.50390625 23.51171875 C-36.54194336 24.52395508 -36.54194336 24.52395508 -35.56054688 25.55664062 C-34.2244753 26.98152243 -32.89635773 28.41390292 -31.57617188 29.85351562 C-30.93357422 30.52447266 -30.29097656 31.19542969 -29.62890625 31.88671875 C-29.05213135 32.50764404 -28.47535645 33.12856934 -27.88110352 33.76831055 C-26.01701986 35.26771512 -26.01701986 35.26771512 -23.45678711 34.76464844 C-20.55148616 33.86040491 -17.79574264 32.76424141 -15 31.5625 C-13.00015359 30.70797379 -11.00016008 29.85379174 -9 29 C-8.13375 28.61714844 -7.2675 28.23429687 -6.375 27.83984375 C-4 27 -4 27 0 27 C0 18.09 0 9.18 0 0 Z " fill="#05070B" transform="translate(121,18)"/>
<path d="M0 0 C6.52060651 5.15415588 9.23590839 10.24570723 10.23046875 18.4609375 C10.78354336 27.03841171 10.01478652 33.25190917 4.67578125 40.32421875 C2.12614883 43.19449459 -0.04694804 45.33503006 -3.25 47.4921875 C-3.78625 47.88148438 -4.3225 48.27078125 -4.875 48.671875 C-11.37150188 52.73218868 -18.86277676 52.40390176 -26.25 51.4921875 C-29.95195523 50.27898197 -33.01581145 48.6441184 -36.25 46.4921875 C-37.1575 45.9559375 -38.065 45.4196875 -39 44.8671875 C-45.04133392 38.49022392 -47.8216067 32.02586817 -47.8125 23.3046875 C-47.57265189 14.75076854 -45.8696989 8.4985676 -39.99609375 2.09765625 C-28.7222102 -8.26826353 -12.5581151 -8.4156813 0 0 Z " fill="#040508" transform="translate(260.25,184.5078125)"/>
<path d="M0 0 C1.20269531 -0.01417969 2.40539062 -0.02835938 3.64453125 -0.04296875 C13.447489 0.59470987 20.44709413 5.89778452 26.7421875 13.02734375 C31.20865247 19.70289815 30.98112898 27.46841391 30.1875 35.1875 C27.74781373 44.22001289 22.82758782 49.4643772 15.19921875 54.5 C8.3471801 58.21635994 0.77357601 58.12751377 -6.8125 57.1875 C-14.58208854 54.66461636 -21.03213045 48.52696835 -25.25 41.625 C-28.64525749 34.13503284 -27.67276714 23.93567519 -25.55078125 16.140625 C-22.62437913 8.39882045 -17.01963146 4.82771216 -9.8125 1.1875 C-6.37168729 0.04056243 -3.62503288 0.01930262 0 0 Z " fill="#05060B" transform="translate(56.8125,178.8125)"/>
<path d="M0 0 C6.22448723 3.68001779 11.62448338 9.38792653 14.5 16.0625 C14.95876255 19.30125391 14.91606204 22.54440136 14.9375 25.8125 C14.97037109 26.68132812 15.00324219 27.55015625 15.03710938 28.4453125 C15.10055173 36.12760493 12.6169104 40.72716974 7.4375 46.26953125 C-0.22942371 52.62256683 -7.09068806 56.95985448 -17.5 56.0625 C-26.37883957 54.15186364 -32.85846197 49.83431346 -37.9375 42.3125 C-42.9626059 34.26137665 -42.48914793 25.38081025 -41.5 16.0625 C-39.2235627 8.17893638 -33.84635529 4.37121507 -26.98828125 0.33984375 C-19.3523776 -3.58000004 -7.84125752 -3.55975966 0 0 Z " fill="#040508" transform="translate(163.5,157.9375)"/>
<path d="M0 0 C0.87881836 0.00757324 1.75763672 0.01514648 2.66308594 0.02294922 C14.47977997 0.32352239 21.85872584 5.00919761 30.5625 12.625 C32.0625 14.4375 32.0625 14.4375 32.0625 17.4375 C33.5475 17.9325 33.5475 17.9325 35.0625 18.4375 C39.32284339 24.40198075 40.3620487 30.26375821 40.2578125 37.4609375 C40.2549826 38.20711334 40.25215271 38.95328918 40.24923706 39.72207642 C40.23811687 42.08571988 40.21302821 44.44897268 40.1875 46.8125 C40.17745962 48.42317158 40.16833562 50.03384915 40.16015625 51.64453125 C40.1382044 55.57566944 40.10373185 59.50651867 40.0625 63.4375 C36.1025 63.4375 32.1425 63.4375 28.0625 63.4375 C28.03671875 61.46007812 28.0109375 59.48265625 27.984375 57.4453125 C27.94259842 55.49573872 27.9006789 53.54616548 27.85498047 51.59667969 C27.81341573 49.60634998 27.79125456 47.61564514 27.76953125 45.625 C27.52813713 36.0657927 26.42212826 28.02341625 20 20.625 C14.66533523 15.80438216 7.82250384 12.26532279 0.5625 11.875 C-7.6542658 12.40606565 -15.14606555 15.64606555 -20.9375 21.4375 C-21.2675 22.0975 -21.5975 22.7575 -21.9375 23.4375 C-22.5975 23.4375 -23.2575 23.4375 -23.9375 23.4375 C-27.3843105 31.70799704 -27.48527664 39.69340752 -27.625 48.5 C-27.65823621 49.95250355 -27.69273151 51.40497886 -27.72851562 52.85742188 C-27.81269179 56.38390739 -27.87983651 59.91046962 -27.9375 63.4375 C-31.8975 63.4375 -35.8575 63.4375 -39.9375 63.4375 C-40.08759884 58.67282397 -40.19552072 53.90957005 -40.26708984 49.14306641 C-40.29697049 47.52726221 -40.33769207 45.911616 -40.39013672 44.29638672 C-40.80220965 31.26357038 -38.92509668 20.89072823 -29.625 10.9609375 C-20.90499212 3.08870817 -11.65018325 -0.14098378 0 0 Z " fill="#050609" transform="translate(149.9375,224.5625)"/>
<path d="M0 0 C2.45700259 2.16772807 4.77955779 4.39702585 7.05859375 6.75 C7.5690625 7.25144531 8.07953125 7.75289062 8.60546875 8.26953125 C16.7288785 16.9696028 19.41737999 29.26884025 19.05859375 40.75 C14.76859375 40.75 10.47859375 40.75 6.05859375 40.75 C5.74921875 37.8728125 5.74921875 37.8728125 5.43359375 34.9375 C3.82516152 24.73227481 -0.38395587 17.13421919 -8.36328125 10.5390625 C-18.83133766 3.27486578 -29.30999004 0.06641138 -41.94140625 1.75 C-46.35320787 3.19723118 -50.06186519 5.21936326 -53.94140625 7.75 C-54.73675781 8.26433594 -55.53210938 8.77867188 -56.3515625 9.30859375 C-60.26790019 12.04505475 -62.67590269 14.47071549 -64.94140625 18.75 C-65.60140625 18.75 -66.26140625 18.75 -66.94140625 18.75 C-67.20953125 19.575 -67.47765625 20.4 -67.75390625 21.25 C-68.36874864 23.06216703 -68.99129283 24.87369835 -69.70703125 26.6484375 C-71.62013996 31.39369735 -72.48599321 35.64937397 -72.94140625 40.75 C-76.90140625 40.75 -80.86140625 40.75 -84.94140625 40.75 C-85.5074404 27.54253655 -81.42800432 16.42991314 -73.19140625 6 C-53.94469833 -14.95084352 -22.32584365 -17.07793618 0 0 Z " fill="#05060B" transform="translate(182.94140625,109.25)"/>
<path d="M0 0 C10.20970292 5.90041273 18.76871723 14.65926031 22.0625 26.1875 C22.72293864 30.28221959 22.83519041 33.92716847 22.6875 38.0625 C18.7275 38.0625 14.7675 38.0625 10.6875 38.0625 C10.64625 37.134375 10.605 36.20625 10.5625 35.25 C9.41887526 27.43523091 4.73060663 19.9108583 -1.55859375 15.2109375 C-9.1182369 10.26097071 -16.36498908 10.07977129 -25.3125 11.0625 C-32.27830902 13.11394899 -37.36998985 16.99207874 -41.3125 23.0625 C-43.97225033 28.10685408 -44.82179113 32.46841889 -45.3125 38.0625 C-49.6025 38.0625 -53.8925 38.0625 -58.3125 38.0625 C-59.10686117 27.53721448 -54.96106101 18.12597216 -48.3125 10.0625 C-36.04721046 -2.32327372 -16.61004661 -6.94079758 0 0 Z " fill="#050609" transform="translate(259.3125,249.9375)"/>
<path d="M0 0 C1.59557739 0.0158313 1.59557739 0.0158313 3.22338867 0.03198242 C14.75520225 0.3831468 21.79567177 3.9013749 30.125 11.8125 C38.40713476 20.65633798 40.76574416 28.67525125 41.1875 40.625 C36.8975 40.625 32.6075 40.625 28.1875 40.625 C28.14625 39.34625 28.105 38.0675 28.0625 36.75 C27.26954613 29.66925699 23.52736243 23.37925248 18.1875 18.6875 C12.1771271 14.55536863 7.85459305 13.13663649 0.6875 13.25 C-0.41271484 13.23259766 -0.41271484 13.23259766 -1.53515625 13.21484375 C-9.6867612 13.25859118 -15.18871318 16.98753 -20.8125 22.625 C-25.21723574 28.45829868 -26.962155 33.39706748 -27.8125 40.625 C-32.1025 40.625 -36.3925 40.625 -40.8125 40.625 C-39.71712277 28.7949259 -36.35520019 18.07218632 -27.671875 9.515625 C-19.0626562 2.47171871 -11.07590113 -0.12138692 0 0 Z " fill="#05070A" transform="translate(57.8125,247.375)"/>
<path d="M0 0 C3.37326423 2.77798231 6.79396613 6.13428973 7.36328125 10.6328125 C7.55777676 16.50862411 6.76005827 21.01309687 3.125 25.75 C-0.95972907 29.70978441 -4.91353143 31.07649188 -10.5625 31.3125 C-14.09636997 31.13678271 -15.69563017 30.85304224 -18.8125 29.0625 C-19.493125 28.299375 -20.17375 27.53625 -20.875 26.75 C-21.6175 26.04875 -22.36 25.3475 -23.125 24.625 C-26.32273729 19.37157446 -26.22564283 13.88892126 -25.25 7.9375 C-23.22453002 3.24209233 -20.72992115 0.69902943 -16.1875 -1.625 C-10.59083198 -2.6809751 -5.241596 -2.27895478 0 0 Z " fill="#4C8DED" transform="translate(250.875,193.25)"/>
<path d="M0 0 C3.77819519 3.88314505 5.77558064 7.64617738 6.140625 13.1015625 C5.93737375 19.0161738 3.80491316 22.14163401 -0.2109375 26.37109375 C-4.49308646 30.26990623 -7.54489809 30.54900189 -13.13671875 30.4453125 C-19.03173894 29.52848808 -22.54883023 25.95000937 -26 21.3125 C-27.47775573 16.41743414 -27.99291467 12.05029262 -27 7 C-24.42754345 2.30280057 -21.40207231 -0.39911187 -16.5 -2.5 C-10.0549695 -3.42071864 -5.61487054 -3.61847213 0 0 Z " fill="#4D8EEF" transform="translate(69,194)"/>
<path d="M0 0 C3.5 1.8125 3.5 1.8125 6 4 C6.5775 4.474375 7.155 4.94875 7.75 5.4375 C10.98088818 9.47611023 11.46356916 13.70463992 11.296875 18.73046875 C10.6306754 23.82338936 8.6291173 26.69387291 4.75390625 29.80078125 C0.82441366 32.40250009 -1.92597032 33.96359221 -6.6875 34.125 C-12.60939894 32.11378904 -17.38386616 30.11615788 -20.33984375 24.19140625 C-22.1400304 18.21563873 -21.99242662 12.13753425 -19.375 6.5 C-13.44323928 0.25604135 -8.47303471 -1.27347694 0 0 Z " fill="#5093F7" transform="translate(155,168)"/>
<path d="M0 0 C0.33 0.99 0.66 1.98 1 3 C1.66 3 2.32 3 3 3 C3.3125 5.8125 3.3125 5.8125 3 9 C-2 12 -2 12 -19 13 C-19.33 25.21 -19.66 37.42 -20 50 C-23.3 50 -26.6 50 -30 50 C-30.33 33.83 -30.66 17.66 -31 1 C-22.09 1 -13.18 1 -4 1 C-3.67 1.66 -3.34 2.32 -3 3 C-2.01 2.01 -1.02 1.02 0 0 Z " fill="#040203" transform="translate(49,121)"/>
<path d="M0 0 C7.16556266 4.22553945 12.89065282 11.04544467 15.5 19 C15.7832683 21.44725234 15.70604276 23.52748692 15.5 26 C19.46 26 23.42 26 27.5 26 C27.190625 23.710625 27.190625 23.710625 26.875 21.375 C26.42837446 17.06781674 26.70088103 14.02156004 28.5 10 C30.15 10 31.8 10 33.5 10 C33.20703125 11.98567708 32.9140625 13.97135417 32.62109375 15.95703125 C32.36095201 18.2025342 32.36095201 18.2025342 33.5 21 C32.68821074 24.02575997 32.19580903 25.56511936 29.5 27.25 C28.51 27.62125 28.51 27.62125 27.5 28 C26.84 28.33 26.18 28.66 25.5 29 C23.62620395 29.07033769 21.74998898 29.0843022 19.875 29.0625 C18.87210937 29.05347656 17.86921875 29.04445313 16.8359375 29.03515625 C16.06507813 29.02355469 15.29421875 29.01195312 14.5 29 C14.005 27.02 14.005 27.02 13.5 25 C12.18 25.33 10.86 25.66 9.5 26 C9.54640625 25.43152344 9.5928125 24.86304688 9.640625 24.27734375 C9.92349971 18.2258455 8.90589234 15.00240438 5.5 10 C4.51 10.33 3.52 10.66 2.5 11 C2.005 8.03 2.005 8.03 1.5 5 C0.18 4.67 -1.14 4.34 -2.5 4 C-2.5 3.34 -2.5 2.68 -2.5 2 C-5.25105422 1.89187997 -7.99785087 1.81265055 -10.75 1.75 C-11.52730469 1.71648437 -12.30460937 1.68296875 -13.10546875 1.6484375 C-17.92139937 1.50977788 -17.92139937 1.50977788 -21.921875 4.015625 C-22.44265625 4.67046875 -22.9634375 5.3253125 -23.5 6 C-24.16 6 -24.82 6 -25.5 6 C-25.5 6.66 -25.5 7.32 -25.5 8 C-27.15 8.33 -28.8 8.66 -30.5 9 C-30.5825 9.928125 -30.665 10.85625 -30.75 11.8125 C-31.5 15 -31.5 15 -33.3125 16.9375 C-35.5 18 -35.5 18 -37.75 17.6875 C-38.3275 17.460625 -38.905 17.23375 -39.5 17 C-37.95703362 10.14237165 -33.85335994 5.52109488 -28.34375 1.37890625 C-19.81773522 -3.63723245 -9.02659298 -4.04545478 0 0 Z " fill="#4F8DE4" transform="translate(254.5,262)"/>
<path d="M0 0 C0.8353125 0.32484375 1.670625 0.6496875 2.53125 0.984375 C6.3490258 2.10219224 9.52808392 2.266146 13.5 2.25 C14.7684375 2.25515625 16.036875 2.2603125 17.34375 2.265625 C20.90390317 2.00698139 23.68745385 1.28821239 27 0 C27.33 1.32 27.66 2.64 28 4 C27.030625 4.4125 26.06125 4.825 25.0625 5.25 C21.87739901 6.64899168 21.87739901 6.64899168 21.125 9.1875 C21.08375 9.785625 21.0425 10.38375 21 11 C21.66 11.33 22.32 11.66 23 12 C19.23699626 13.25433458 15.72789091 13.10695422 11.8125 13.0625 C11.06291016 13.05798828 10.31332031 13.05347656 9.54101562 13.04882812 C7.69397617 13.03706354 5.84697787 13.01912865 4 13 C4 11.35 4 9.7 4 8 C3.01 7.67 2.02 7.34 1 7 C1 6.34 1 5.68 1 5 C-0.32 5 -1.64 5 -3 5 C-3 3 -3 3 -1.5 1.375 C-1.005 0.92125 -0.51 0.4675 0 0 Z " fill="#4A8BED" transform="translate(228,233)"/>
<path d="M0 0 C0.33 0 0.66 0 1 0 C2.05728087 6.85983809 2.11639843 13.56783224 2.0625 20.5 C2.05798828 21.60859375 2.05347656 22.7171875 2.04882812 23.859375 C2.03713158 26.57297399 2.02074086 29.28645761 2 32 C0.0085944 32.38133299 -1.99279077 32.71325582 -4 33 C-4.33 32.67 -4.66 32.34 -5 32 C-5.556875 32.66 -6.11375 33.32 -6.6875 34 C-9 36 -9 36 -11.75 36.25 C-12.4925 36.1675 -13.235 36.085 -14 36 C-14 36.66 -14 37.32 -14 38 C-14.66 38 -15.32 38 -16 38 C-16 37.34 -16 36.68 -16 36 C-17.32 35.67 -18.64 35.34 -20 35 C-20 34.01 -20 33.02 -20 32 C-15.71 32 -11.42 32 -7 32 C-7.185625 30.7625 -7.37125 29.525 -7.5625 28.25 C-7.95907624 25.16974342 -7.88682969 22.99305019 -7 20 C-7.33 19.01 -7.66 18.02 -8 17 C-6.35 17.33 -4.7 17.66 -3 18 C-3 17.34 -3 16.68 -3 16 C-2.34 16 -1.68 16 -1 16 C-1.01160156 15.01257813 -1.02320312 14.02515625 -1.03515625 13.0078125 C-1.04417969 11.72648437 -1.05320312 10.44515625 -1.0625 9.125 C-1.07410156 7.84882813 -1.08570312 6.57265625 -1.09765625 5.2578125 C-1 2 -1 2 0 0 Z " fill="#4389EA" transform="translate(106,256)"/>
<path d="M0 0 C5.62633997 0.76722818 5.62633997 0.76722818 7.66796875 2.0390625 C11.24893052 3.51463469 14.73630375 3.1291543 18.5625 3 C26.59532374 2.73021583 26.59532374 2.73021583 30 5 C30 5.66 30 6.32 30 7 C28.02 7.33 26.04 7.66 24 8 C24.33 8.66 24.66 9.32 25 10 C25.66 10 26.32 10 27 10 C27.33 10.99 27.66 11.98 28 13 C27 14 27 14 24.671875 14.1328125 C23.70765625 14.13023437 22.7434375 14.12765625 21.75 14.125 C20.79609375 14.12757813 19.8421875 14.13015625 18.859375 14.1328125 C14.45069049 13.92803754 11.70751627 13.47167752 8 11 C8.99 10.67 9.98 10.34 11 10 C10.236875 9.566875 9.47375 9.13375 8.6875 8.6875 C6.39663894 7.24905236 4.88228122 5.88228122 3 4 C2.01 3.67 1.02 3.34 0 3 C0 2.01 0 1.02 0 0 Z " fill="#4A8BEB" transform="translate(40,232)"/>
<path d="M0 0 C0.33 0 0.66 0 1 0 C1 4.95 1 9.9 1 15 C1.99 15 2.98 15 4 15 C3.67 25.56 3.34 36.12 3 47 C4.485 47.495 4.485 47.495 6 48 C5.34 48.99 4.68 49.98 4 51 C3.34 50.67 2.68 50.34 2 50 C2 50.66 2 51.32 2 52 C-2.95 52 -7.9 52 -13 52 C-13 39.13 -13 26.26 -13 13 C-12.67 13 -12.34 13 -12 13 C-12 25.54 -12 38.08 -12 51 C-8.04 51 -4.08 51 0 51 C0 34.17 0 17.34 0 0 Z " fill="#427ACD" transform="translate(282,121)"/>
<path d="M0 0 C1.32 0 2.64 0 4 0 C4 0.66 4 1.32 4 2 C4.556875 2.20625 5.11375 2.4125 5.6875 2.625 C8.3034983 4.18045845 9.88860337 6.10320611 11.765625 8.47265625 C13.37280693 10.46128959 15.16104608 12.226723 17 14 C17.33 14.33 17.66 14.66 18 15 C18.66 14.67 19.32 14.34 20 14 C20.66 14.33 21.32 14.66 22 15 C20.763289 20.52809819 18.91765366 25.60534279 14.25 29 C13.5075 29.33 12.765 29.66 12 30 C12.875 24.125 12.875 24.125 14 23 C14.04092937 20.66702567 14.04241723 18.33294775 14 16 C13.071875 15.7834375 13.071875 15.7834375 12.125 15.5625 C10 15 10 15 8 14 C8 13.34 8 12.68 8 12 C7.67 11.01 7.34 10.02 7 9 C7.33 8.34 7.66 7.68 8 7 C5.36 7 2.72 7 0 7 C0.66 6.67 1.32 6.34 2 6 C2 5.34 2 4.68 2 4 C1.34 4 0.68 4 0 4 C0 2.68 0 1.36 0 0 Z " fill="#468AEC" transform="translate(33,80)"/>
<path d="M0 0 C0.98753178 9.14606357 0.89191731 17.84755626 0 27 C-0.66 27 -1.32 27 -2 27 C-2.33 27.66 -2.66 28.32 -3 29 C-3 20.09 -3 11.18 -3 2 C-21.81 2 -40.62 2 -60 2 C-60 1.67 -60 1.34 -60 1 C-52.32462765 0.86951694 -44.64925377 0.73912434 -36.97387791 0.60884857 C-33.4102375 0.54835928 -29.84659764 0.48783834 -26.28295898 0.42724609 C-22.18994298 0.35765426 -18.09692469 0.28819823 -14.00390625 0.21875 C-12.71851456 0.19687622 -11.43312286 0.17500244 -10.10877991 0.15246582 C-8.92763107 0.13244507 -7.74648224 0.11242432 -6.52954102 0.09179688 C-5.48363297 0.07403198 -4.43772491 0.05626709 -3.36012268 0.03796387 C-1 0 -1 0 0 0 Z " fill="#4576BF" transform="translate(181,16)"/>
<path d="M0 0 C0.66 0.33 1.32 0.66 2 1 C2.02686553 2.97909398 2.04633375 4.95828971 2.0625 6.9375 C2.07410156 8.03964844 2.08570312 9.14179688 2.09765625 10.27734375 C2 13 2 13 1 14 C0.92851801 15.35243917 0.91600546 16.70834367 0.9375 18.0625 C0.958125 19.361875 0.97875 20.66125 1 22 C1.33 22 1.66 22 2 22 C2 25.63 2 29.26 2 33 C1.01 32.01 0.02 31.02 -1 30 C-1.33 32.64 -1.66 35.28 -2 38 C-2.33 38 -2.66 38 -3 38 C-3.07462728 33.71333264 -3.12882508 29.42701793 -3.16479492 25.13989258 C-3.17980313 23.68409632 -3.20021633 22.22834468 -3.22631836 20.77270508 C-3.26305676 18.66997211 -3.2798056 16.56784115 -3.29296875 14.46484375 C-3.3086792 13.202771 -3.32438965 11.94069824 -3.34057617 10.64038086 C-2.94747859 6.4386045 -1.83923582 3.76544819 0 0 Z " fill="#4D89E2" transform="translate(125,250)"/>
<path d="M0 0 C4.68145711 -0.02291088 9.36272102 -0.04283732 14.04418945 -0.05493164 C15.63794614 -0.05997157 17.23169819 -0.0668035 18.82543945 -0.07543945 C21.11150253 -0.08751999 23.39750467 -0.09323155 25.68359375 -0.09765625 C26.40026718 -0.10281754 27.11694061 -0.10797882 27.85533142 -0.11329651 C29.57063672 -0.11349263 31.28581266 -0.06192007 33 0 C34 1 34 1 34.11352539 3.22485352 C34.10828857 4.18319092 34.10305176 5.14152832 34.09765625 6.12890625 C34.09443359 7.16337891 34.09121094 8.19785156 34.08789062 9.26367188 C34.07532227 10.8965918 34.07532227 10.8965918 34.0625 12.5625 C34.05798828 13.65498047 34.05347656 14.74746094 34.04882812 15.87304688 C34.03699826 18.58208495 34.02051543 21.29101599 34 24 C33.67 24 33.34 24 33 24 C32.93941406 22.92878906 32.87882812 21.85757813 32.81640625 20.75390625 C32.73201463 19.35675609 32.64736594 17.95962143 32.5625 16.5625 C32.52318359 15.85544922 32.48386719 15.14839844 32.44335938 14.41992188 C32.52375562 10.91309581 32.52375562 10.91309581 31 8 C30.67 8.66 30.34 9.32 30 10 C29.34 10 28.68 10 28 10 C27.87625 8.865625 27.7525 7.73125 27.625 6.5625 C27.41875 5.386875 27.2125 4.21125 27 3 C24.42788678 1.71394339 22.43093034 1.78956059 19.5546875 1.68359375 C18.47832031 1.64169922 17.40195313 1.59980469 16.29296875 1.55664062 C14.60107422 1.49766602 14.60107422 1.49766602 12.875 1.4375 C11.73933594 1.39431641 10.60367188 1.35113281 9.43359375 1.30664062 C6.62254739 1.20034055 3.8112901 1.09964603 1 1 C1 6.61 1 12.22 1 18 C0.67 18 0.34 18 0 18 C0 12.06 0 6.12 0 0 Z " fill="#3E74CC" transform="translate(133,30)"/>
<path d="M0 0 C2.70732002 0.07962706 4.47568002 0.53870569 6.52734375 2.34375 C10.99282525 7.34327127 14.7638754 12.69425565 15.25 19.5 C15.1675 20.325 15.085 21.15 15 22 C13.02 22.33 11.04 22.66 9 23 C9.06960938 22.14728516 9.06960938 22.14728516 9.140625 21.27734375 C9.42349971 15.2258455 8.40589234 12.00240438 5 7 C4.01 7.33 3.02 7.66 2 8 C1 5 1 5 2 2 C1.34 1.34 0.68 0.68 0 0 Z " fill="#4382D9" transform="translate(255,265)"/>
<path d="M0 0 C2.31 0 4.62 0 7 0 C7.144375 1.093125 7.28875 2.18625 7.4375 3.3125 C7.88288104 6.93122987 7.88288104 6.93122987 9 10 C9.66 10.33 10.32 10.66 11 11 C11 11.66 11 12.32 11 13 C11.66 13 12.32 13 13 13 C13.66 13.66 14.32 14.32 15 15 C15.66 14.67 16.32 14.34 17 14 C18.61949011 16.57213134 19.04408751 17.67669159 18.625 20.75 C18.315625 21.86375 18.315625 21.86375 18 23 C14.55234658 21.85078219 14.45241576 21.46275975 12.8125 18.4375 C9.90568143 13.5311426 6.11615598 9.89520924 2 6 C0.66318388 4.67015857 -0.67111354 3.33776543 -2 2 C-1.34 2 -0.68 2 0 2 C0 1.34 0 0.68 0 0 Z " fill="#5FA0F6" transform="translate(181,104)"/>
<path d="M0 0 C0.33 0.66 0.66 1.32 1 2 C1.56203125 2.2578125 2.1240625 2.515625 2.703125 2.78125 C5.90468875 4.48003893 8.23274015 6.94309826 10.75 9.5 C11.25660156 9.99886719 11.76320313 10.49773437 12.28515625 11.01171875 C16 14.74658861 16 14.74658861 16 17 C14.68 16.67 13.36 16.34 12 16 C11.67 14.68 11.34 13.36 11 12 C10.34 12 9.68 12 9 12 C8.67 11.34 8.34 10.68 8 10 C5.69034152 8.94647157 3.3570226 7.94280904 1 7 C-0.175625 8.2065625 -0.175625 8.2065625 -1.375 9.4375 C-4 12 -4 12 -6 13 C-5.67 11.35 -5.34 9.7 -5 8 C-5.66 7.67 -6.32 7.34 -7 7 C-4.69 4.69 -2.38 2.38 0 0 Z " fill="#4885DE" transform="translate(75,55)"/>
<path d="M0 0 C1.28282164 3.84846491 0.48702089 5.28244777 -1 9 C-2.80630066 12.53049675 -4.44269706 15.11672197 -8 17 C-10.75 16.6875 -10.75 16.6875 -13 16 C-12.44040477 12.17753412 -10.78682643 10.41028259 -8.0625 7.75 C-7.35222656 7.04359375 -6.64195313 6.3371875 -5.91015625 5.609375 C-4 4 -4 4 -2 4 C-1.34 2.68 -0.68 1.36 0 0 Z " fill="#498CE7" transform="translate(67,63)"/>
<path d="M0 0 C0.99 0 1.98 0 3 0 C3.75 1.75 3.75 1.75 4 4 C2.66666667 5.33333333 1.33333333 6.66666667 0 8 C-0.144375 9.010625 -0.28875 10.02125 -0.4375 11.0625 C-1 14 -1 14 -3.5 15.75 C-4.325 16.1625 -5.15 16.575 -6 17 C-6.33 17.66 -6.66 18.32 -7 19 C-7.66 19 -8.32 19 -9 19 C-9 18.34 -9 17.68 -9 17 C-9.99 17 -10.98 17 -12 17 C-12 16.34 -12 15.68 -12 15 C-13.65 15.33 -15.3 15.66 -17 16 C-17 14.35 -17 12.7 -17 11 C-16.67 11.66 -16.34 12.32 -16 13 C-11.71 13 -7.42 13 -3 13 C-3.061875 11.96875 -3.12375 10.9375 -3.1875 9.875 C-2.98864405 5.76531027 -2.05532197 3.51117504 0 0 Z " fill="#548BDB" transform="translate(33,275)"/>
<path d="M0 0 C-0.33 0.99 -0.66 1.98 -1 3 C-1.969375 3.12375 -2.93875 3.2475 -3.9375 3.375 C-4.948125 3.58125 -5.95875 3.7875 -7 4 C-7.33 4.66 -7.66 5.32 -8 6 C-10.0625 6.625 -10.0625 6.625 -12 7 C-12 7.66 -12 8.32 -12 9 C-14.31 9 -16.62 9 -19 9 C-17.5019913 5.18688695 -15.37351976 3.27516449 -12 1 C-8.03911328 -0.25080633 -4.12896821 -0.08096016 0 0 Z " fill="#4787DF" transform="translate(63,191)"/>
<path d="M0 0 C4.45845711 0.50953796 6.6230172 2.12956462 10 5 C10.845625 5.4125 11.69125 5.825 12.5625 6.25 C16.0782976 8.77416238 17.33637661 12.08723214 19 16 C16 16 16 16 13 15 C12.87625 13.8553125 12.87625 13.8553125 12.75 12.6875 C12.20637683 9.91571012 12.20637683 9.91571012 10.1875 8.125 C8.06939033 6.770449 8.06939033 6.770449 5.75 7.3125 C5.1725 7.539375 4.595 7.76625 4 8 C2 5 2 5 2 2 C1.34 2 0.68 2 0 2 C0 1.34 0 0.68 0 0 Z " fill="#4489E9" transform="translate(158,240)"/>
<path d="M0 0 C1.23076923 5.41538462 1.23076923 5.41538462 0.0625 8.375 C-0.288125 8.91125 -0.63875 9.4475 -1 10 C-3.31 10 -5.62 10 -8 10 C-8 9.34 -8 8.68 -8 8 C-8.33 8 -8.66 8 -9 8 C-10.66666667 8 -12.33333333 8 -14 8 C-14 7.34 -14 6.68 -14 6 C-11.03 5.34 -8.06 4.68 -5 4 C-5.33 3.01 -5.66 2.02 -6 1 C-4 0 -4 0 0 0 Z " fill="#050203" transform="translate(163,227)"/>
<path d="M0 0 C0.76376953 -0.01224609 1.52753906 -0.02449219 2.31445312 -0.03710938 C9.23835851 -0.05518746 9.23835851 -0.05518746 12.5625 2.1875 C10.5625 4.1875 10.5625 4.1875 8.13232422 4.32275391 C6.63983154 4.24420166 6.63983154 4.24420166 5.1171875 4.1640625 C3.50263672 4.08671875 3.50263672 4.08671875 1.85546875 4.0078125 C0.16357422 3.91113281 0.16357422 3.91113281 -1.5625 3.8125 C-3.26599609 3.72742188 -3.26599609 3.72742188 -5.00390625 3.640625 C-7.8157163 3.49885306 -10.62667281 3.34741439 -13.4375 3.1875 C-9.61540778 -0.63459222 -5.07364728 0.00425999 0 0 Z " fill="#4F8ADF" transform="translate(58.4375,259.8125)"/>
<path d="M0 0 C1.50433594 0.01353516 1.50433594 0.01353516 3.0390625 0.02734375 C3.80992187 0.03894531 4.58078125 0.05054688 5.375 0.0625 C5.375 0.3925 5.375 0.7225 5.375 1.0625 C2.735 1.3925 0.095 1.7225 -2.625 2.0625 C-0.645 2.7225 1.335 3.3825 3.375 4.0625 C3.045 5.0525 2.715 6.0425 2.375 7.0625 C0.725 7.3925 -0.925 7.7225 -2.625 8.0625 C-2.625 7.4025 -2.625 6.7425 -2.625 6.0625 C-4.605 6.7225 -6.585 7.3825 -8.625 8.0625 C-9.615 7.0725 -10.605 6.0825 -11.625 5.0625 C-7.56381029 0.8659373 -5.84464408 -0.06796098 0 0 Z " fill="#468BEA" transform="translate(149.625,167.9375)"/>
<path d="M0 0 C0.33 1.32 0.66 2.64 1 4 C-11.58839779 10.13720074 -11.58839779 10.13720074 -18 8 C-16.5459375 7.5978125 -16.5459375 7.5978125 -15.0625 7.1875 C-13.5465625 6.5996875 -13.5465625 6.5996875 -12 6 C-11.67 5.01 -11.34 4.02 -11 3 C-9.00390625 2.05078125 -9.00390625 2.05078125 -6.5625 1.3125 C-5.75941406 1.06113281 -4.95632812 0.80976562 -4.12890625 0.55078125 C-2 0 -2 0 0 0 Z " fill="#498DEF" transform="translate(130,55)"/>
<path d="M0 0 C2.97 0.495 2.97 0.495 6 1 C6 1.66 6 2.32 6 3 C5.01 3 4.02 3 3 3 C2.67 3.99 2.34 4.98 2 6 C-0.14453125 7.53515625 -0.14453125 7.53515625 -2.8125 9.0625 C-3.68519531 9.56910156 -4.55789062 10.07570313 -5.45703125 10.59765625 C-7.61552742 11.78797902 -9.78444398 12.92062656 -12 14 C-12 12.68 -12 11.36 -12 10 C-11.34 10 -10.68 10 -10 10 C-10 9.34 -10 8.68 -10 8 C-8.35 7.67 -6.7 7.34 -5 7 C-5 6.34 -5 5.68 -5 5 C-4.01 4.67 -3.02 4.34 -2 4 C-0.79117904 1.99983534 -0.79117904 1.99983534 0 0 Z " fill="#4E96FB" transform="translate(125,96)"/>
<path d="M0 0 C0.33 0 0.66 0 1 0 C1 9.24 1 18.48 1 28 C1.66 28.33 2.32 28.66 3 29 C2.34 29.66 1.68 30.32 1 31 C0.01 31 -0.98 31 -2 31 C-3.68236471 31.62599617 -5.3523962 32.28752268 -7 33 C-7.66 32.34 -8.32 31.68 -9 31 C-9 30.01 -9 29.02 -9 28 C-6.03 28 -3.06 28 0 28 C0 18.76 0 9.52 0 0 Z " fill="#4578C1" transform="translate(190,260)"/>
<path d="M0 0 C3.01563895 2.74148996 4.85210625 5.21344355 5.1953125 9.359375 C5.16050781 10.54273438 5.16050781 10.54273438 5.125 11.75 C5.10695313 12.54921875 5.08890625 13.3484375 5.0703125 14.171875 C5.03550781 15.07679688 5.03550781 15.07679688 5 16 C3.02 16 1.04 16 -1 16 C-0.8246875 15.45730469 -0.649375 14.91460937 -0.46875 14.35546875 C0.09596032 11.51779939 -0.16292247 9.18148941 -0.5 6.3125 C-0.70591989 4.54580097 -0.88265889 2.77478436 -1 1 C-0.67 0.67 -0.34 0.34 0 0 Z " fill="#4785DD" transform="translate(81,272)"/>
<path d="M0 0 C2.48922675 3.23599478 4.73596244 6.60394366 7 10 C7.98866506 11.34175973 8.9838154 12.67896002 10 14 C9.34 14.66 8.68 15.32 8 16 C6 16 4 16 2 16 C2.20625 15.4225 2.4125 14.845 2.625 14.25 C3.09239476 11.44563145 2.53712084 10.34613181 1 8 C0.34 7.67 -0.32 7.34 -1 7 C-0.67 4.69 -0.34 2.38 0 0 Z " fill="#4C85DE" transform="translate(30,216)"/>
<path d="M0 0 C1.65 0 3.3 0 5 0 C4.71125 0.59167969 4.4225 1.18335938 4.125 1.79296875 C1.24613824 7.62525653 1.24613824 7.62525653 1 14 C1.33 14.66 1.66 15.32 2 16 C1.34 16.99 0.68 17.98 0 19 C-0.33 18.67 -0.66 18.34 -1 18 C-1.33 19.98 -1.66 21.96 -2 24 C-4 21 -4 21 -3.75 19.125 C-2.90092985 16.71930124 -1.98118661 14.35484786 -1 12 C-1.66 12 -2.32 12 -3 12 C-2.43697449 9.56022281 -1.74517329 7.25050967 -0.9375 4.875 C0.1033402 2.18708882 0.1033402 2.18708882 0 0 Z " fill="#4685E1" transform="translate(17,264)"/>
<path d="M0 0 C-0.33 8.58 -0.66 17.16 -1 26 C-1.33 26 -1.66 26 -2 26 C-2.66 18.08 -3.32 10.16 -4 2 C-6.64 2 -9.28 2 -12 2 C-12 1.67 -12 1.34 -12 1 C-7.89864774 0.35665063 -4.17263102 0 0 0 Z " fill="#418AED" transform="translate(269,134)"/>
<path d="M0 0 C0.33 0 0.66 0 1 0 C1.1875 3.375 1.1875 3.375 1 7 C-2.22791555 9.1519437 -3.28400809 9.20086443 -7 9 C-7 9.66 -7 10.32 -7 11 C-7.66 11 -8.32 11 -9 11 C-9 10.34 -9 9.68 -9 9 C-10.32 8.67 -11.64 8.34 -13 8 C-13 7.01 -13 6.02 -13 5 C-8.71 5 -4.42 5 0 5 C0 3.35 0 1.7 0 0 Z " fill="#538BDC" transform="translate(99,283)"/>
<path d="M0 0 C2.64 0.33 5.28 0.66 8 1 C8.33 1.99 8.66 2.98 9 4 C9.66 4.33 10.32 4.66 11 5 C11.5625 6.9375 11.5625 6.9375 12 9 C13.25541557 11.51083114 14.50063488 11.87125446 17 13 C16.67 13.66 16.34 14.32 16 15 C11.69422496 13.33830526 8.90988145 10.16919694 5.75 6.9375 C5.19570312 6.38255859 4.64140625 5.82761719 4.0703125 5.25585938 C0 1.14043257 0 1.14043257 0 0 Z " fill="#4992F9" transform="translate(245,55)"/>
<path d="M0 0 C0.66 0 1.32 0 2 0 C0.6489735 3.01015294 -0.86335687 5.11967466 -3.1875 7.453125 C-3.80367187 8.071875 -4.41984375 8.690625 -5.0546875 9.328125 C-6.01761719 10.27945313 -6.01761719 10.27945313 -7 11.25 C-7.64195313 11.8996875 -8.28390625 12.549375 -8.9453125 13.21875 C-9.86957031 14.13914062 -9.86957031 14.13914062 -10.8125 15.078125 C-11.37582031 15.63918945 -11.93914063 16.20025391 -12.51953125 16.77832031 C-14 18 -14 18 -16 18 C-15.34 16.02 -14.68 14.04 -14 12 C-13.01 12.33 -12.02 12.66 -11 13 C-10.938125 12.236875 -10.87625 11.47375 -10.8125 10.6875 C-10 8 -10 8 -7.625 6.375 C-6.75875 5.92125 -5.8925 5.4675 -5 5 C-4.1646875 4.1646875 -4.1646875 4.1646875 -3.3125 3.3125 C-2.6628125 2.6628125 -2.6628125 2.6628125 -2 2 C-1.34 2 -0.68 2 0 2 C0 1.34 0 0.68 0 0 Z " fill="#6299E8" transform="translate(56,53)"/>
<path d="M0 0 C0.58007812 0.20496094 1.16015625 0.40992188 1.7578125 0.62109375 C5.29693958 1.84168378 8.60014951 2.93964521 12.3125 3.5 C15.28704333 4.05340341 16.75696957 5.01578077 19 7 C18.67 7.66 18.34 8.32 18 9 C17.34 9 16.68 9 16 9 C16 9.66 16 10.32 16 11 C15.34 11 14.68 11 14 11 C13.835 10.401875 13.67 9.80375 13.5 9.1875 C10.71584719 5.12727715 5.61236931 4.3695013 1 3.3125 C0.34 3.209375 -0.32 3.10625 -1 3 C-0.67 2.01 -0.34 1.02 0 0 Z " fill="#458AED" transform="translate(179,60)"/>
<path d="M0 0 C0.33 0 0.66 0 1 0 C1.19441368 2.2910905 1.38033135 4.58290337 1.5625 6.875 C1.66691406 8.15117187 1.77132813 9.42734375 1.87890625 10.7421875 C2 14 2 14 1 16 C0.9603287 17.66619446 0.95615553 19.33391013 1 21 C0.360625 21.103125 -0.27875 21.20625 -0.9375 21.3125 C-1.9584375 21.6528125 -1.9584375 21.6528125 -3 22 C-3.33 22.99 -3.66 23.98 -4 25 C-4.99 24.67 -5.98 24.34 -7 24 C-6.57847656 23.44054687 -6.15695312 22.88109375 -5.72265625 22.3046875 C-0.74815483 15.02435837 -0.02510212 8.71043401 0 0 Z " fill="#4B80D0" transform="translate(270,202)"/>
<path d="M0 0 C10.4 1.4 10.4 1.4 13 4 C14.98356483 4.71408334 16.98315437 5.38617742 19 6 C19.33 8.64 19.66 11.28 20 14 C19.360625 13.29875 18.72125 12.5975 18.0625 11.875 C13.00297081 6.82984448 6.9565091 2.78372028 0 1 C0 0.67 0 0.34 0 0 Z " fill="#548DE2" transform="translate(248,179)"/>
<path d="M0 0 C1.98 0.495 1.98 0.495 4 1 C4.33 3.31 4.66 5.62 5 8 C4.01 8.495 4.01 8.495 3 9 C2.59270772 11.32156597 2.25561323 13.6568787 2 16 C1.34 16 0.68 16 0 16 C-0.71033431 10.47032059 -1.30267176 5.50016964 0 0 Z " fill="#5195FC" transform="translate(179,168)"/>
<path d="M0 0 C4.28973106 -0.07149552 7.85066638 -0.03733341 12 1 C14.18703385 0.62092718 14.18703385 0.62092718 16 0 C16 1.98 16 3.96 16 6 C14.68 6.33 13.36 6.66 12 7 C12 6.34 12 5.68 12 5 C11.30132812 4.80664062 10.60265625 4.61328125 9.8828125 4.4140625 C8.51769531 4.02347656 8.51769531 4.02347656 7.125 3.625 C5.76761719 3.24214844 5.76761719 3.24214844 4.3828125 2.8515625 C2 2 2 2 0 0 Z " fill="#559BFC" transform="translate(160,96)"/>
<path d="M0 0 C2.475 0.99 2.475 0.99 5 2 C1.32167983 6.52615993 -2.41086363 10.39424999 -7 14 C-6.125 9.25 -6.125 9.25 -5 7 C-4.34 7 -3.68 7 -3 7 C-3 6.34 -3 5.68 -3 5 C-2.34 5 -1.68 5 -1 5 C-0.67 3.35 -0.34 1.7 0 0 Z " fill="#0B121F" transform="translate(256,78)"/>
<path d="M0 0 C-0.33 0.66 -0.66 1.32 -1 2 C-1.66 2 -2.32 2 -3 2 C-3.33 2.99 -3.66 3.98 -4 5 C-5.32 5 -6.64 5 -8 5 C-8.33 5.66 -8.66 6.32 -9 7 C-9.99 6.01 -10.98 5.02 -12 4 C-7.64885496 -0.71374046 -7.64885496 -0.71374046 -4.875 -1.9375 C-3 -2 -3 -2 0 0 Z " fill="#4A86D8" transform="translate(48,266)"/>
<path d="M0 0 C0.99 0 1.98 0 3 0 C4.33583899 4.84241633 5.25328119 8.93437617 5 14 C3.35 14.66 1.7 15.32 0 16 C0 10.72 0 5.44 0 0 Z " fill="#5598F1" transform="translate(201,136)"/>
<path d="M0 0 C0.33 0 0.66 0 1 0 C1 2.64 1 5.28 1 8 C1.66 8 2.32 8 3 8 C3.08333357 12.8333472 2.95261487 17.23692563 2 22 C0.68 21.67 -0.64 21.34 -2 21 C-1.505 19.515 -1.505 19.515 -1 18 C-0.85507877 16.59335074 -0.75371069 15.1818867 -0.68359375 13.76953125 C-0.64169922 12.96708984 -0.59980469 12.16464844 -0.55664062 11.33789062 C-0.51732422 10.50451172 -0.47800781 9.67113281 -0.4375 8.8125 C-0.39431641 7.96751953 -0.35113281 7.12253906 -0.30664062 6.25195312 C-0.20068482 4.16815567 -0.0998498 2.08409897 0 0 Z " fill="#437FD4" transform="translate(178,176)"/>
<path d="M0 0 C1.485 0.99 1.485 0.99 3 2 C3.96246715 7.17455456 2.97702107 12.18101113 1 17 C-1.24666134 13.63000798 -1.2457371 12.43894538 -1.1875 8.5 C-1.18105469 7.5409375 -1.17460937 6.581875 -1.16796875 5.59375 C-1 3 -1 3 0 0 Z " fill="#4A8BED" transform="translate(163,37)"/>
<path d="M0 0 C5.16568917 2.93187764 8.34129195 5.13072537 10 11 C10.15673908 14.00837909 10.11800861 16.99078037 10 20 C9.34 20.33 8.68 20.66 8 21 C7.34 19.68 6.68 18.36 6 17 C6.66 17 7.32 17 8 17 C7.34 13.7 6.68 10.4 6 7 C4.68 6.67 3.36 6.34 2 6 C0.75 2.9375 0.75 2.9375 0 0 Z " fill="#508DE2" transform="translate(156,169)"/>
<path d="M0 0 C0 0.66 0 1.32 0 2 C0.886875 2.226875 1.77375 2.45375 2.6875 2.6875 C6.43380532 4.17188513 8.33729434 6.02403485 11 9 C7.27566618 7.7874262 3.62197194 6.49140021 0 5 C0 4.67 0 4.34 0 4 C-1.0725 3.71125 -2.145 3.4225 -3.25 3.125 C-6.09400364 2.27179891 -8.43508983 1.4363497 -11 0 C-3.57142857 -1.28571429 -3.57142857 -1.28571429 0 0 Z " fill="#438CF1" transform="translate(162,112)"/>
<path d="M0 0 C4.32504836 1.65863505 7.09418825 4.871041 10.25 8.125 C10.80429688 8.68832031 11.35859375 9.25164062 11.9296875 9.83203125 C13.29104485 11.21686028 14.64614859 12.60783204 16 14 C15.67 14.66 15.34 15.32 15 16 C10.29521038 12.57833482 6.72346836 8.42094803 3 4 C-0.81583379 4.65179251 -3.02881405 5.46898975 -6 8 C-4.55746343 4.63408134 -2.66735273 2.48952921 0 0 Z " fill="#639EF7" transform="translate(222,55)"/>
<path d="M0 0 C0.99 0.33 1.98 0.66 3 1 C4.1875 3.5625 4.1875 3.5625 5 6 C6.98 5.67 8.96 5.34 11 5 C11 5.99 11 6.98 11 8 C9.58566794 8.2236337 8.16832382 8.42826476 6.75 8.625 C5.96109375 8.74101563 5.1721875 8.85703125 4.359375 8.9765625 C1.67847541 9.00319395 0.27305911 8.36592084 -2 7 C-1.34 4.69 -0.68 2.38 0 0 Z " fill="#468EF6" transform="translate(181,36)"/>
<path d="M0 0 C0 0.66 0 1.32 0 2 C0.99 2.33 1.98 2.66 3 3 C2.01 3.495 2.01 3.495 1 4 C-0.33412103 3.42258999 -1.64230599 2.78511645 -2.9375 2.125 C-10.83573698 -1.25829206 -19.54165432 -0.82631734 -28 -1 C-28 -1.33 -28 -1.66 -28 -2 C-18.10042711 -2.96326442 -9.50094688 -3.63211144 0 0 Z " fill="#477AC9" transform="translate(262,249)"/>
<path d="M0 0 C1.51953125 1.01953125 1.51953125 1.01953125 3 3 C3.05546517 5.67108574 2.96547069 8.05292823 2.6875 10.6875 C2.62626953 11.38939453 2.56503906 12.09128906 2.50195312 12.81445312 C2.34897376 14.5442967 2.17637398 16.27238497 2 18 C0.51171875 16.73046875 0.51171875 16.73046875 -1 15 C-1.1875 11.3125 -1.1875 11.3125 -1 8 C-1.66 7.67 -2.32 7.34 -3 7 C-1.125 1.125 -1.125 1.125 0 0 Z " fill="#4078CB" transform="translate(28,195)"/>
<path d="M0 0 C4.3845105 1.33971154 6.6161966 3.05755591 9 7 C8.75 9.8125 8.75 9.8125 8 12 C7.67 11.34 7.34 10.68 7 10 C6.34 10 5.68 10 5 10 C5 9.01 5 8.02 5 7 C3.68 6.67 2.36 6.34 1 6 C0.67 4.02 0.34 2.04 0 0 Z " fill="#4584D9" transform="translate(64,192)"/>
<path d="M0 0 C0.66 0 1.32 0 2 0 C2.36024218 6.36427851 2.36024218 6.36427851 0.9375 8.875 C-1.92113133 10.53485045 -4.74739303 10.69315029 -8 11 C-7.38511719 10.31164062 -7.38511719 10.31164062 -6.7578125 9.609375 C-6.21898437 8.99578125 -5.68015625 8.3821875 -5.125 7.75 C-4.59132812 7.14671875 -4.05765625 6.5434375 -3.5078125 5.921875 C-2.0202513 4.02581254 -0.99677564 2.18709995 0 0 Z " fill="#081021" transform="translate(245,76)"/>
<path d="M0 0 C2.12493141 -0.02693575 4.24995912 -0.04636628 6.375 -0.0625 C7.55835938 -0.07410156 8.74171875 -0.08570313 9.9609375 -0.09765625 C13 0 13 0 15 1 C15 1.66 15 2.32 15 3 C13.25181409 3.22304441 11.50129677 3.4278645 9.75 3.625 C8.77546875 3.74101562 7.8009375 3.85703125 6.796875 3.9765625 C3.86570607 4.00112537 2.45471036 3.5312717 0 2 C0 1.34 0 0.68 0 0 Z " fill="#579BFC" transform="translate(139,152)"/>
<path d="M0 0 C0.66 0.99 1.32 1.98 2 3 C1.34 3 0.68 3 0 3 C-0.33 4.65 -0.66 6.3 -1 8 C-0.34 8 0.32 8 1 8 C1 9.65 1 11.3 1 13 C-0.32 12.67 -1.64 12.34 -3 12 C-3.12375 12.639375 -3.2475 13.27875 -3.375 13.9375 C-3.58125 14.618125 -3.7875 15.29875 -4 16 C-4.66 16.33 -5.32 16.66 -6 17 C-4.33846988 11.14340094 -2.52958084 5.5409866 0 0 Z " fill="#4E8BE1" transform="translate(62,109)"/>
<path d="M0 0 C0.99 0 1.98 0 3 0 C3.75 1.75 3.75 1.75 4 4 C2.71182656 5.37701298 1.37195574 6.70644173 0 8 C-1.25436187 10.63222962 -1.25436187 10.63222962 -2 13 C-2.33 13 -2.66 13 -3 13 C-3.31563182 7.73946963 -2.66590937 4.55426184 0 0 Z " fill="#4580D1" transform="translate(33,275)"/>
<path d="M0 0 C0.7940625 -0.01417969 1.588125 -0.02835938 2.40625 -0.04296875 C4.5 0.1875 4.5 0.1875 6.5 2.1875 C4.60630916 2.55294911 2.70991218 2.90439175 0.8125 3.25 C-0.77111328 3.54583984 -0.77111328 3.54583984 -2.38671875 3.84765625 C-5.41159216 4.17784946 -7.57980511 3.96224558 -10.5 3.1875 C-4.19306931 0.03403465 -4.19306931 0.03403465 0 0 Z " fill="#3E73C7" transform="translate(150.5,235.8125)"/>
<path d="M0 0 C0.99 0.33 1.98 0.66 3 1 C3.20086443 4.71599191 3.1519437 5.77208445 1 9 C0.29835358 10.98799818 -0.37372872 12.98698517 -1 15 C-1.33 15 -1.66 15 -2 15 C-2 10.71 -2 6.42 -2 2 C-1.34 1.67 -0.68 1.34 0 1 C0 0.67 0 0.34 0 0 Z " fill="#4989E9" transform="translate(285,120)"/>
<path d="M0 0 C2.31 0.66 4.62 1.32 7 2 C3 4.66666667 -1 7.33333333 -5 10 C-3.99480361 5.83561496 -3.22782646 2.9471459 0 0 Z " fill="#070D19" transform="translate(43,258)"/>
<path d="M0 0 C0 0.66 0 1.32 0 2 C-0.9075 2.556875 -1.815 3.11375 -2.75 3.6875 C-6.68097051 6.48453671 -7.87138564 8.74277128 -10 13 C-11.2380014 9.42355152 -10.74926071 6.66305234 -10 3 C-8.02 3.495 -8.02 3.495 -6 4 C-5.67 3.01 -5.34 2.02 -5 1 C-2 0 -2 0 0 0 Z " fill="#5A9AF2" transform="translate(134,159)"/>
<path d="M0 0 C1 3 1 3 0 6 C-2.0625 6.6875 -2.0625 6.6875 -4 7 C-4.33 8.32 -4.66 9.64 -5 11 C-6.98 11.33 -8.96 11.66 -11 12 C-10.07038578 10.84775972 -9.1309875 9.70340824 -8.1875 8.5625 C-7.40439453 7.60537109 -7.40439453 7.60537109 -6.60546875 6.62890625 C-5 5 -5 5 -2 4 C-0.79117904 1.99983534 -0.79117904 1.99983534 0 0 Z " fill="#5289D7" transform="translate(67,63)"/>
<path d="M0 0 C0.99 0.495 0.99 0.495 2 1 C3.47554162 8.33010996 3.02115035 14.86652817 1 22 C0.67 22 0.34 22 0 22 C0 14.74 0 7.48 0 0 Z " fill="#4186EB" transform="translate(191,264)"/>
<path d="M0 0 C0 2.67884659 -0.11409459 4.50335747 -1 7 C-4.20380017 9.13586678 -5.01939967 9.23132175 -8.6875 9.125 C-9.89986328 9.09792969 -9.89986328 9.09792969 -11.13671875 9.0703125 C-12.05904297 9.03550781 -12.05904297 9.03550781 -13 9 C-11.25961328 7.83974219 -9.51805053 6.68123693 -7.7734375 5.52734375 C-6.98195313 5.00269531 -6.19046875 4.47804687 -5.375 3.9375 C-4.57835938 3.41027344 -3.78171875 2.88304687 -2.9609375 2.33984375 C-1.08527994 1.1469201 -1.08527994 1.1469201 0 0 Z " fill="#497FD9" transform="translate(80,226)"/>
<path d="M0 0 C0.33 0 0.66 0 1 0 C1 4.66666667 1 9.33333333 1 14 C1.66 14.66 2.32 15.32 3 16 C0.13275314 15.42655063 -0.8614515 15.1385485 -3 13 C-3 10 -3 10 -2 9 C-2.33 8.01 -2.66 7.02 -3 6 C-2.125 3.9375 -2.125 3.9375 -1 2 C-0.67 1.34 -0.34 0.68 0 0 Z " fill="#4E93FB" transform="translate(230,203)"/>
<path d="M0 0 C2.31 0 4.62 0 7 0 C7.33 2.31 7.66 4.62 8 7 C7.01 7.495 7.01 7.495 6 8 C5.4225 7.360625 4.845 6.72125 4.25 6.0625 C2.01937599 4.01776132 0.92563609 3.41794801 -2 3 C-1.34 2.67 -0.68 2.34 0 2 C0 1.34 0 0.68 0 0 Z " fill="#559EFB" transform="translate(181,104)"/>
<path d="M0 0 C0.33 0.66 0.66 1.32 1 2 C1.99 2 2.98 2 4 2 C4 2.66 4 3.32 4 4 C3.34 4 2.68 4 2 4 C1.34 5.98 0.68 7.96 0 10 C-1.32 9.34 -2.64 8.68 -4 8 C-2.87548273 5.0280615 -1.77706209 2.66559313 0 0 Z " fill="#070B15" transform="translate(119,237)"/>
<path d="M0 0 C1.5 1.375 1.5 1.375 3 3 C3 3.66 3 4.32 3 5 C0.37204724 6.40783184 -2.04634002 7.50772334 -5 8 C-5.66 7.67 -6.32 7.34 -7 7 C-6.25 5.0625 -6.25 5.0625 -5 3 C-2.9375 2.375 -2.9375 2.375 -1 2 C-0.67 1.34 -0.34 0.68 0 0 Z " fill="#498CE7" transform="translate(267,224)"/>
<path d="M0 0 C4.29 0 8.58 0 13 0 C13 0.66 13 1.32 13 2 C13.66 2.33 14.32 2.66 15 3 C8.375 4 8.375 4 5 4 C5 3.34 5 2.68 5 2 C3.35 2 1.7 2 0 2 C0 1.34 0 0.68 0 0 Z " fill="#4677C4" transform="translate(17,172)"/>
<path d="M0 0 C-0.125 1.875 -0.125 1.875 -1 4 C-4.01427603 5.40666215 -6.05977053 6.14845728 -9.375 5.625 C-9.91125 5.41875 -10.4475 5.2125 -11 5 C-10.67 4.01 -10.34 3.02 -10 2 C-6.3962102 0.47839986 -3.94779314 0 0 0 Z " fill="#4792F6" transform="translate(144,113)"/>
<path d="M0 0 C0.33 1.32 0.66 2.64 1 4 C-2.42094242 6.28062828 -3.68187222 6.21925007 -7.6875 6.125 C-9.17830078 6.09792969 -9.17830078 6.09792969 -10.69921875 6.0703125 C-11.45847656 6.04710937 -12.21773438 6.02390625 -13 6 C-13.33 4.68 -13.66 3.36 -14 2 C-7.07 2.495 -7.07 2.495 0 3 C0 2.01 0 1.02 0 0 Z " fill="#5189D5" transform="translate(282,285)"/>
<path d="M0 0 C0.33 0.66 0.66 1.32 1 2 C1.721875 2.268125 2.44375 2.53625 3.1875 2.8125 C6.7868931 4.33224375 9.07750315 6.41732837 12 9 C11.67 9.99 11.34 10.98 11 12 C10.57589844 11.61328125 10.15179688 11.2265625 9.71484375 10.828125 C5.69695194 7.2605903 1.74596229 4.51826571 -3 2 C-2.01 1.34 -1.02 0.68 0 0 Z " fill="#5387DB" transform="translate(79,250)"/>
<path d="M0 0 C0.66 0.33 1.32 0.66 2 1 C1.38125 1.2475 0.7625 1.495 0.125 1.75 C-2.41660951 3.24506442 -2.95986881 4.27965687 -4 7 C-4.12375 7.66 -4.2475 8.32 -4.375 9 C-5.24544353 11.78541931 -6.80356402 13.13635735 -9 15 C-9.66 15 -10.32 15 -11 15 C-9.37956629 8.3562218 -5.62049485 3.74699657 0 0 Z " fill="#071628" transform="translate(225,183)"/>
<path d="M0 0 C3.11956076 1.03985359 3.84927828 1.67722054 6 4 C6.8971875 4.8353125 6.8971875 4.8353125 7.8125 5.6875 C10.85006818 8.89864351 13.40086405 12.43051996 16 16 C11.71357676 14.33536962 8.91382783 11.20924163 5.75 8 C5.19570312 7.4534375 4.64140625 6.906875 4.0703125 6.34375 C0 2.2533867 0 2.2533867 0 0 Z " fill="#619DF0" transform="translate(81,38)"/>
<path d="M0 0 C0.33 0 0.66 0 1 0 C1 3.3 1 6.6 1 10 C-2 10 -5 10 -8 10 C-6.1875 7.5 -6.1875 7.5 -4 5 C-3.01 5 -2.02 5 -1 5 C-0.67 3.35 -0.34 1.7 0 0 Z " fill="#4589EC" transform="translate(120,35)"/>
<path d="M0 0 C1.32 0.66 2.64 1.32 4 2 C4 4.31 4 6.62 4 9 C1.00470711 8.00156904 -0.15840327 7.48615558 -2 5 C-1.74853421 2.86254078 -1.54074221 1.54074221 0 0 Z M4 0 C4.99 0.495 4.99 0.495 6 1 C5.01 1.495 5.01 1.495 4 2 C4 1.34 4 0.68 4 0 Z " fill="#4F8BE5" transform="translate(36,271)"/>
<path d="M0 0 C0.95310059 0.01047363 1.90620117 0.02094727 2.88818359 0.03173828 C4.43505859 0.04140625 4.43505859 0.04140625 6.01318359 0.05126953 C7.63353516 0.07640625 7.63353516 0.07640625 9.28662109 0.10205078 C10.37458984 0.11107422 11.46255859 0.12009766 12.58349609 0.12939453 C15.27642261 0.15301669 17.96891365 0.18595522 20.66162109 0.22705078 C20.99162109 0.88705078 21.32162109 1.54705078 21.66162109 2.22705078 C18.18462646 3.0357175 15.13999666 3.30254391 11.57958984 3.10595703 C10.64824219 3.05761719 9.71689453 3.00927734 8.75732422 2.95947266 C7.79761719 2.90339844 6.83791016 2.84732422 5.84912109 2.78955078 C4.87007812 2.73734375 3.89103516 2.68513672 2.88232422 2.63134766 C0.47506019 2.50217739 -1.93173529 2.36723435 -4.33837891 2.22705078 C-2.33837891 0.22705078 -2.33837891 0.22705078 0 0 Z " fill="#417ED9" transform="translate(49.33837890625,260.77294921875)"/>
<path d="M0 0 C0.99 0.33 1.98 0.66 3 1 C2.8125 2.875 2.8125 2.875 2 5 C-0.3125 6.375 -0.3125 6.375 -3 7 C-5.3125 6.125 -5.3125 6.125 -7 5 C-6.01 4.34 -5.02 3.68 -4 3 C-3.01 2.1646875 -3.01 2.1646875 -2 1.3125 C-1.34 0.879375 -0.68 0.44625 0 0 Z " fill="#4884DD" transform="translate(253,233)"/>
<path d="M0 0 C2 2 2 2 2.25 5.875 C2.18064077 9.05396475 1.80254921 11.29617618 0 14 C-1.31164842 11.37670316 -1.13262846 9.36301375 -1.125 6.4375 C-1.12757812 5.44621094 -1.13015625 4.45492187 -1.1328125 3.43359375 C-1 1 -1 1 0 0 Z " fill="#4886E1" transform="translate(43,200)"/>
<path d="M0 0 C5.66153846 1.47692308 5.66153846 1.47692308 7.375 4.125 C7.684375 5.053125 7.684375 5.053125 8 6 C7.01 6.495 7.01 6.495 6 7 C6.33 7.33 6.66 7.66 7 8 C7.04063832 9.66617115 7.042721 11.33388095 7 13 C3.67006966 9.17058011 1.94675475 4.62477778 0 0 Z " fill="#060D20" transform="translate(232,99)"/>
<path d="M0 0 C1.46484375 1.23697917 2.9296875 2.47395833 4.39453125 3.7109375 C5.8655046 4.89201099 7.43037794 5.95358529 9 7 C5.66666667 7 2.33333333 7 -1 7 C-1.04254356 5.00045254 -1.04080783 2.99958364 -1 1 C-0.67 0.67 -0.34 0.34 0 0 Z " fill="#080E1A" transform="translate(89,48)"/>
<path d="M0 0 C1.85776765 3.13498292 2.20140476 5.37471432 2 9 C4.475 9.99 4.475 9.99 7 11 C7 11.33 7 11.66 7 12 C4.36 12 1.72 12 -1 12 C-1.14285714 3.42857143 -1.14285714 3.42857143 0 0 Z " fill="#0F1E33" transform="translate(202,276)"/>
<path d="M0 0 C0.66 0 1.32 0 2 0 C2 0.66 2 1.32 2 2 C3.98 2.66 5.96 3.32 8 4 C7.67 4.99 7.34 5.98 7 7 C4.69 6.67 2.38 6.34 0 6 C0 4.02 0 2.04 0 0 Z " fill="#3F85E7" transform="translate(72,265)"/>
<path d="M0 0 C0.66 0.33 1.32 0.66 2 1 C2 1.66 2 2.32 2 3 C2.99 3.33 3.98 3.66 5 4 C4.67 4.66 4.34 5.32 4 6 C0.37 6 -3.26 6 -7 6 C-7 5.01 -7 4.02 -7 3 C-4.69631264 1.93347808 -2.35981813 0.93578995 0 0 Z " fill="#4D88E2" transform="translate(163,209)"/>
<path d="M0 0 C0.556875 0.309375 1.11375 0.61875 1.6875 0.9375 C4.12540433 2.05761821 6.36224186 2.56037364 9 3 C8.625 5.9375 8.625 5.9375 8 9 C7.01 9.495 7.01 9.495 6 10 C5.38125 8.88625 5.38125 8.88625 4.75 7.75 C3.06254382 5.09828315 1.29127911 3.13325986 -1 1 C-0.67 0.67 -0.34 0.34 0 0 Z " fill="#0A0D1A" transform="translate(158,168)"/>
<path d="M0 0 C5.61 0 11.22 0 17 0 C17.33 0.66 17.66 1.32 18 2 C11.68709584 3.38575945 6.23330701 2.32221664 0 1 C0 0.67 0 0.34 0 0 Z " fill="#4586EE" transform="translate(31,134)"/>
<path d="M0 0 C1 3 1 3 0.1875 4.9375 C-0.204375 5.618125 -0.59625 6.29875 -1 7 C-1.37125 7.7425 -1.7425 8.485 -2.125 9.25 C-2.41375 9.8275 -2.7025 10.405 -3 11 C-3.66 11 -4.32 11 -5 11 C-5.875 8.875 -5.875 8.875 -6 6 C-4.2531134 3.70485976 -2.19996058 1.85561893 0 0 Z " fill="#080F20" transform="translate(236,87)"/>
<path d="M0 0 C0.66 0 1.32 0 2 0 C1.34580901 5.06998019 -0.8546409 9.41990777 -3 14 C-3.33 14 -3.66 14 -4 14 C-4.56561146 8.34388537 -2.71391278 4.77357872 0 0 Z " fill="#5D9BEF" transform="translate(21,265)"/>
<path d="M0 0 C1.98 0.495 1.98 0.495 4 1 C4.144375 2.0725 4.28875 3.145 4.4375 4.25 C4.83749442 6.91662949 5.27591924 9.41399729 6 12 C3.38774841 9.51836099 1.03495023 6.97974855 -1 4 C-0.75 1.6875 -0.75 1.6875 0 0 Z " fill="#478DEC" transform="translate(234,108)"/>
<path d="M0 0 C0.33 0.66 0.66 1.32 1 2 C0.319375 2.7425 -0.36125 3.485 -1.0625 4.25 C-3.30777819 6.74978478 -3.30777819 6.74978478 -2.625 9.1875 C-2.41875 9.785625 -2.2125 10.38375 -2 11 C-2.66 11.66 -3.32 12.32 -4 13 C-7 7.375 -7 7.375 -7 4 C-5.824375 3.566875 -5.824375 3.566875 -4.625 3.125 C-1.90328368 2.15087746 -1.90328368 2.15087746 0 0 Z " fill="#4A8EE7" transform="translate(252,91)"/>
<path d="M0 0 C1.1055189 0.93590504 2.20935453 1.87379858 3.3125 2.8125 C3.92738281 3.33457031 4.54226562 3.85664062 5.17578125 4.39453125 C8.51952278 7.3373102 8.51952278 7.3373102 10 9 C10 9.66 10 10.32 10 11 C8.68 10.67 7.36 10.34 6 10 C5.67 8.68 5.34 7.36 5 6 C4.34 6 3.68 6 3 6 C2.67 5.34 2.34 4.68 2 4 C-0.02463255 3.34786708 -0.02463255 3.34786708 -2 3 C-2 2.34 -2 1.68 -2 1 C-1.34 0.67 -0.68 0.34 0 0 Z " fill="#4487EC" transform="translate(81,61)"/>
<path d="M0 0 C1.98 0 3.96 0 6 0 C4.87548273 2.9719385 3.77706209 5.33440687 2 8 C1.34 8 0.68 8 0 8 C0 5.36 0 2.72 0 0 Z " fill="#448AEC" transform="translate(200,264)"/>
<path d="M0 0 C1.17881287 3.68379022 1.21358801 7.15541573 1 11 C0.34 11.66 -0.32 12.32 -1 13 C-3.28964059 8.05919662 -3.28964059 8.05919662 -2.46484375 5.04296875 C-1.71434788 3.32904563 -0.86320768 1.66001476 0 0 Z " fill="#4986DC" transform="translate(86,214)"/>
<path d="M0 0 C0 2 0 2 -2.3125 4.625 C-5 7 -5 7 -8 7 C-8 5.35 -8 3.7 -8 2 C-4.91190305 0.23537317 -3.76687864 0 0 0 Z " fill="#468BF0" transform="translate(110,65)"/>
<path d="M0 0 C-0.33 0.99 -0.66 1.98 -1 3 C-1.9075 3.12375 -2.815 3.2475 -3.75 3.375 C-6.91690676 3.80754006 -6.91690676 3.80754006 -9.125 5.1875 C-9.74375 5.455625 -10.3625 5.72375 -11 6 C-13.1171875 5.05078125 -13.1171875 5.05078125 -15 4 C-13.25307205 3.32532438 -11.50231475 2.66055844 -9.75 2 C-8.77546875 1.62875 -7.8009375 1.2575 -6.796875 0.875 C-4 0 -4 0 0 0 Z " fill="#0E1E32" transform="translate(121,45)"/>
<path d="M0 0 C0.99 0.33 1.98 0.66 3 1 C1.40907948 5.13639336 -1.60474918 8.23213248 -5 11 C-5.66 11 -6.32 11 -7 11 C-6.1875 9.0625 -6.1875 9.0625 -5 7 C-4.01 6.67 -3.02 6.34 -2 6 C-0.77479736 2.99152582 -0.77479736 2.99152582 0 0 Z " fill="#6198E3" transform="translate(66,41)"/>
<path d="M0 0 C0.66 0.99 1.32 1.98 2 3 C1.01 3.66 0.02 4.32 -1 5 C-2.20450304 7.55183404 -2.20450304 7.55183404 -3 10 C-3.66 10 -4.32 10 -5 10 C-5 10.99 -5 11.98 -5 13 C-5.66 13 -6.32 13 -7 13 C-5.58832253 7.73829306 -3.25149768 4.27828642 0 0 Z " fill="#0B162C" transform="translate(28,259)"/>
<path d="M0 0 C0.89203125 0.29648438 1.7840625 0.59296875 2.703125 0.8984375 C3.37859375 1.13820312 4.0540625 1.37796875 4.75 1.625 C4.75 2.285 4.75 2.945 4.75 3.625 C5.41 3.955 6.07 4.285 6.75 4.625 C5.76 4.955 4.77 5.285 3.75 5.625 C3.42 4.635 3.09 3.645 2.75 2.625 C1.698125 2.480625 0.64625 2.33625 -0.4375 2.1875 C-3.40460549 1.74973034 -6.31794366 1.24695134 -9.25 0.625 C-5.71808845 -1.66909208 -3.91045087 -1.33778582 0 0 Z " fill="#5499F9" transform="translate(256.25,178.375)"/>
<path d="M0 0 C0.66 0 1.32 0 2 0 C2 0.66 2 1.32 2 2 C8.93 2 15.86 2 23 2 C23 2.33 23 2.66 23 3 C15.41 3 7.82 3 0 3 C0 2.01 0 1.02 0 0 Z " fill="#4D8CE4" transform="translate(258,118)"/>
<path d="M0 0 C0 0.66 0 1.32 0 2 C-2.64738916 3.4606285 -3.89448334 4 -7 4 C-7 5.32 -7 6.64 -7 8 C-7.99 8.33 -8.98 8.66 -10 9 C-10 8.34 -10 7.68 -10 7 C-10.99 6.67 -11.98 6.34 -13 6 C-11.21118264 4.99491199 -9.41885304 3.99607264 -7.625 3 C-6.62726563 2.443125 -5.62953125 1.88625 -4.6015625 1.3125 C-2 0 -2 0 0 0 Z " fill="#5788D5" transform="translate(109,63)"/>
<path d="M0 0 C1.41377341 2.63904371 2.37240135 5.07120629 3 8 C-0.10551666 8 -1.35261084 7.4606285 -4 6 C-2.68 4.02 -1.36 2.04 0 0 Z " fill="#4B8FE9" transform="translate(83,223)"/>
<path d="M0 0 C4.29 0.66 8.58 1.32 13 2 C13 2.66 13 3.32 13 4 C9.37 4 5.74 4 2 4 C1.34 2.68 0.68 1.36 0 0 Z " fill="#5385D6" transform="translate(233,220)"/>
<path d="M0 0 C1 2 1 2 0.8125 4 C-0.25260795 6.62180417 -1.47377216 6.89477532 -4 8 C-4.33 8.66 -4.66 9.32 -5 10 C-7 9 -7 9 -8 7 C-5.36 4.69 -2.72 2.38 0 0 Z " fill="#4B84D4" transform="translate(173,201)"/>
<path d="M0 0 C0.66 0.33 1.32 0.66 2 1 C1.71125 1.515625 1.4225 2.03125 1.125 2.5625 C-0.28780027 5.62356725 -1.1248517 8.74944918 -2 12 C-2.33 12 -2.66 12 -3 12 C-4.05699482 6.71502591 -4.05699482 6.71502591 -4 4 C-2.0625 1.5 -2.0625 1.5 0 0 Z " fill="#060D1B" transform="translate(228,193)"/>
<path d="M0 0 C2 1 2 1 3.1875 3.1875 C4.15580509 6.5393253 3.91240746 8.65450598 3 12 C2.01 12.495 2.01 12.495 1 13 C1 10.69 1 8.38 1 6 C0.67 6 0.34 6 0 6 C0 4.02 0 2.04 0 0 Z " fill="#050C1C" transform="translate(248,104)"/>
<path d="M0 0 C2.31 1.98 4.62 3.96 7 6 C6.34 6.66 5.68 7.32 5 8 C2.525 7.01 2.525 7.01 0 6 C0 4.02 0 2.04 0 0 Z " fill="#090F1C" transform="translate(81,40)"/>
<path d="M0 0 C3.7952131 1.49097658 5.61042731 3.75700849 8 7 C7.01 7.33 6.02 7.66 5 8 C4.236875 7.175 3.47375 6.35 2.6875 5.5 C0.24565858 2.65944803 0.24565858 2.65944803 -3 3 C-2.01 2.01 -1.02 1.02 0 0 Z " fill="#0D142A" transform="translate(222,36)"/>
<path d="M0 0 C1.2380014 3.57644848 0.74926071 6.33694766 0 10 C-1.32 9.67 -2.64 9.34 -4 9 C-2.94124926 5.59687262 -1.99097846 2.98646769 0 0 Z " fill="#4983D9" transform="translate(219,270)"/>
<path d="M0 0 C5.6383837 1.31125202 7.85405343 3.328746 11 8 C10.67 8.99 10.34 9.98 10 11 C9.52949219 10.45730469 9.05898438 9.91460937 8.57421875 9.35546875 C7.95160156 8.64003906 7.32898438 7.92460937 6.6875 7.1875 C6.07261719 6.47980469 5.45773437 5.77210938 4.82421875 5.04296875 C3.26665665 3.29863261 1.67341125 1.63221959 0 0 Z " fill="#578DDF" transform="translate(264,253)"/>
<path d="M0 0 C1.43739513 -0.02712066 2.87493863 -0.04645067 4.3125 -0.0625 C5.51326172 -0.07990234 5.51326172 -0.07990234 6.73828125 -0.09765625 C9.71049056 0.03067749 12.18638259 1.06212753 15 2 C15 2.33 15 2.66 15 3 C4.44191344 3.3690205 4.44191344 3.3690205 0 1 C0 0.67 0 0.34 0 0 Z " fill="#5D99F6" transform="translate(158,224)"/>
<path d="M0 0 C0.66 0 1.32 0 2 0 C2.39253254 4.44870215 1.15305957 7.14243493 -1 11 C-2.125 9.25 -2.125 9.25 -3 7 C-2.1875 4.9375 -2.1875 4.9375 -1 3 C-0.67 2.01 -0.34 1.02 0 0 Z " fill="#4895FA" transform="translate(99,125)"/>
<path d="M0 0 C0.66 0.33 1.32 0.66 2 1 C-0.64 4.3 -3.28 7.6 -6 11 C-6.33 10.34 -6.66 9.68 -7 9 C-6.0625 6.875 -6.0625 6.875 -5 5 C-4.34 5 -3.68 5 -3 5 C-2.814375 4.0409375 -2.814375 4.0409375 -2.625 3.0625 C-2.41875 2.381875 -2.2125 1.70125 -2 1 C-1.34 0.67 -0.68 0.34 0 0 Z " fill="#61A0E9" transform="translate(111,112)"/>
<path d="M0 0 C1.32 0.66 2.64 1.32 4 2 C3.67 2.66 3.34 3.32 3 4 C2.01 3.67 1.02 3.34 0 3 C-0.763125 3.825 -1.52625 4.65 -2.3125 5.5 C-5 8 -5 8 -8 8 C-5.36 5.36 -2.72 2.72 0 0 Z " fill="#061426" transform="translate(76,36)"/>
<path d="M0 0 C3.96 0 7.92 0 12 0 C11.67 0.99 11.34 1.98 11 3 C9.35 3.33 7.7 3.66 6 4 C6 3.34 6 2.68 6 2 C4.02 2 2.04 2 0 2 C0 1.34 0 0.68 0 0 Z " fill="#5389DB" transform="translate(200,288)"/>
<path d="M0 0 C0 3.68553144 -0.8522582 5.03759752 -3 8 C-5.6875 9.8125 -5.6875 9.8125 -8 11 C-6.52670958 5.99081256 -3.72484762 3.48192278 0 0 Z " fill="#0D1A2C" transform="translate(215,256)"/>
<path d="M0 0 C-0.639375 0.28875 -1.27875 0.5775 -1.9375 0.875 C-4.15206079 1.82823451 -4.15206079 1.82823451 -5 4 C-6.65 4 -8.3 4 -10 4 C-10 3.01 -10 2.02 -10 1 C-3.71428571 -1.42857143 -3.71428571 -1.42857143 0 0 Z " fill="#0A1625" transform="translate(234,249)"/>
<path d="M0 0 C0.99 0.33 1.98 0.66 3 1 C2.01 2.485 2.01 2.485 1 4 C0.34 3.67 -0.32 3.34 -1 3 C-1 3.99 -1 4.98 -1 6 C-1.66 6 -2.32 6 -3 6 C-3 7.98 -3 9.96 -3 12 C-3.33 12 -3.66 12 -4 12 C-4.49230769 4.61538462 -4.49230769 4.61538462 -2 1.5 C-1.34 1.005 -0.68 0.51 0 0 Z " fill="#4A8CEB" transform="translate(111,244)"/>
<path d="M0 0 C2.8125 0.25 2.8125 0.25 6 1 C6.99 2.32 7.98 3.64 9 5 C5.7 5 2.4 5 -1 5 C-0.67 3.35 -0.34 1.7 0 0 Z " fill="#4688E9" transform="translate(137,211)"/>
<path d="M0 0 C0.99 0 1.98 0 3 0 C3 0.99 3 1.98 3 3 C2.34 3 1.68 3 1 3 C1.33 4.98 1.66 6.96 2 9 C0.68 9.33 -0.64 9.66 -2 10 C-2 9.01 -2 8.02 -2 7 C-1.34 7 -0.68 7 0 7 C-0.185625 6.401875 -0.37125 5.80375 -0.5625 5.1875 C-1 3 -1 3 0 0 Z " fill="#4C92F6" transform="translate(251,210)"/>
<path d="M0 0 C0 0.66 0 1.32 0 2 C-0.66 2 -1.32 2 -2 2 C-2 2.66 -2 3.32 -2 4 C-4.9375 3.625 -4.9375 3.625 -8 3 C-8.33 2.34 -8.66 1.68 -9 1 C-3.375 -1.125 -3.375 -1.125 0 0 Z " fill="#5D9DF7" transform="translate(168,155)"/>
<path d="M0 0 C0 2.62113708 -0.31292445 4.50935112 -1 7 C-3.31 7 -5.62 7 -8 7 C-6.625 5.5 -6.625 5.5 -5 4 C-4.34 4 -3.68 4 -3 4 C-3 3.34 -3 2.68 -3 2 C-2.01 1.34 -1.02 0.68 0 0 Z " fill="#080A14" transform="translate(55,126)"/>
<path d="M0 0 C4.97093824 0.41153737 9.44508386 0.79600832 14 3 C13.401875 3.144375 12.80375 3.28875 12.1875 3.4375 C10.43849596 3.8872439 8.71322977 4.42892341 7 5 C6.67 4.34 6.34 3.68 6 3 C4.02111039 2.27306096 2.02045442 1.60183749 0 1 C0 0.67 0 0.34 0 0 Z " fill="#0B192E" transform="translate(157,99)"/>
<path d="M0 0 C0.33 1.32 0.66 2.64 1 4 C0.34 4 -0.32 4 -1 4 C-1.33 4.99 -1.66 5.98 -2 7 C-2.66 7 -3.32 7 -4 7 C-4.33 7.66 -4.66 8.32 -5 9 C-5.66 8.34 -6.32 7.68 -7 7 C-4.69 4.69 -2.38 2.38 0 0 Z " fill="#070D1B" transform="translate(213,45)"/>
<path d="M0 0 C1.6415049 3.2830098 0.51888624 6.42545033 0 10 C-2.31 9.67 -4.62 9.34 -7 9 C-6.21625 8.443125 -5.4325 7.88625 -4.625 7.3125 C-1.91295142 4.92331435 -1.03866457 3.39926587 0 0 Z " fill="#061021" transform="translate(214,278)"/>
<path d="M0 0 C0.99 0.33 1.98 0.66 3 1 C2.34 3.97 1.68 6.94 1 10 C0.34 10 -0.32 10 -1 10 C-0.49396008 7.83125748 -0.00016187 6.00032373 1 4 C0.34 4 -0.32 4 -1 4 C-1.33 3.01 -1.66 2.02 -2 1 C-1.34 0.67 -0.68 0.34 0 0 Z " fill="#478CEC" transform="translate(278,256)"/>
<path d="M0 0 C0.33 0.99 0.66 1.98 1 3 C-2.63 3 -6.26 3 -10 3 C-9 1 -9 1 -6.125 -0.1875 C-3 -1 -3 -1 0 0 Z " fill="#121D35" transform="translate(246,189)"/>
<path d="M0 0 C2.31 0 4.62 0 7 0 C7 3 7 3 6 7 C4.02 4.69 2.04 2.38 0 0 Z " fill="#5BA0F7" transform="translate(167,160)"/>
<path d="M0 0 C0.33 0 0.66 0 1 0 C1 1.65 1 3.3 1 5 C0.34 5 -0.32 5 -1 5 C-1 5.66 -1 6.32 -1 7 C-0.34 7 0.32 7 1 7 C1 7.66 1 8.32 1 9 C-0.32 8.67 -1.64 8.34 -3 8 C-3 7.01 -3 6.02 -3 5 C-3.99 5.495 -3.99 5.495 -5 6 C-5 5.01 -5 4.02 -5 3 C-3.35 3 -1.7 3 0 3 C0 2.01 0 1.02 0 0 Z " fill="#5298FC" transform="translate(127,119)"/>
<path d="M0 0 C3.35250701 0.57575664 4.93818629 1.59306263 7.25 4.0625 C8.03117188 4.88427734 8.03117188 4.88427734 8.828125 5.72265625 C9.21484375 6.14417969 9.6015625 6.56570312 10 7 C9.67 7.66 9.34 8.32 9 9 C7.02 8.01 5.04 7.02 3 6 C3 5.01 3 4.02 3 3 C2.01 2.67 1.02 2.34 0 2 C0 1.34 0 0.68 0 0 Z " fill="#4688E7" transform="translate(222,58)"/>
<path d="M0 0 C0.99773437 0.02320313 1.99546875 0.04640625 3.0234375 0.0703125 C4.52777344 0.09738281 4.52777344 0.09738281 6.0625 0.125 C6.83335938 0.14820313 7.60421875 0.17140625 8.3984375 0.1953125 C5.775966 2.817784 4.04820623 2.83749204 0.3984375 3.1953125 C-2.4765625 2.7578125 -2.4765625 2.7578125 -4.6015625 2.1953125 C-2.6015625 0.1953125 -2.6015625 0.1953125 0 0 Z " fill="#5286D0" transform="translate(111.6015625,287.8046875)"/>
<path d="M0 0 C0.66 0.33 1.32 0.66 2 1 C2 3.97 2 6.94 2 10 C1.01 10.495 1.01 10.495 0 11 C-0.66 9.68 -1.32 8.36 -2 7 C-1.34 7 -0.68 7 0 7 C0 4.69 0 2.38 0 0 Z " fill="#5794E6" transform="translate(164,179)"/>
<path d="M0 0 C2 1 2 1 3.125 3.75 C3.91973395 6.70186896 4.17810598 8.97219837 4 12 C2 11.0625 2 11.0625 0 9 C-0.36475845 5.97465051 -0.22893297 3.03336186 0 0 Z " fill="#468BEF" transform="translate(240,123)"/>
<path d="M0 0 C2 3 2 3 2 6 C0.02 6.99 0.02 6.99 -2 8 C-2.33 7.01 -2.66 6.02 -3 5 C-3.66 4.67 -4.32 4.34 -5 4 C-4.0409375 3.8453125 -4.0409375 3.8453125 -3.0625 3.6875 C-2.381875 3.460625 -1.70125 3.23375 -1 3 C-0.67 2.01 -0.34 1.02 0 0 Z " fill="#5498FB" transform="translate(197,112)"/>
<path d="M0 0 C2.475 0.495 2.475 0.495 5 1 C5 1.66 5 2.32 5 3 C5.99 3.33 6.98 3.66 8 4 C7.67 4.99 7.34 5.98 7 7 C5.83040013 6.02433888 4.66438823 5.044375 3.5 4.0625 C2.8503125 3.51722656 2.200625 2.97195312 1.53125 2.41015625 C1.0259375 1.94480469 0.520625 1.47945313 0 1 C0 0.67 0 0.34 0 0 Z " fill="#070E1D" transform="translate(40,81)"/>
<path d="M0 0 C2.92879371 0.62759865 5.36095629 1.58622659 8 3 C7.67 4.32 7.34 5.64 7 7 C5.83040013 6.02433888 4.66438823 5.044375 3.5 4.0625 C2.8503125 3.51722656 2.200625 2.97195312 1.53125 2.41015625 C1.0259375 1.94480469 0.520625 1.47945312 0 1 C0 0.67 0 0.34 0 0 Z " fill="#0D1526" transform="translate(80,57)"/>
<path d="M0 0 C0.33 1.32 0.66 2.64 1 4 C-2.96 4 -6.92 4 -11 4 C-7.61125486 1.74083657 -4.15175481 0 0 0 Z " fill="#4E7ECD" transform="translate(130,55)"/>
<path d="M0 0 C0 0.66 0 1.32 0 2 C-2.64 2.66 -5.28 3.32 -8 4 C-8.66 3.01 -9.32 2.02 -10 1 C-6.61981469 -0.04005702 -3.5219721 -0.08004482 0 0 Z " fill="#468EF0" transform="translate(103,48)"/>
<path d="M0 0 C0.66 0 1.32 0 2 0 C3.33333333 2.66666667 4.66666667 5.33333333 6 8 C5.34 8.66 4.68 9.32 4 10 C0.125 4.25 0.125 4.25 -1 2 C-0.67 1.34 -0.34 0.68 0 0 Z " fill="#0C1528" transform="translate(171,243)"/>
<path d="M0 0 C0.66 0.66 1.32 1.32 2 2 C-0.97 4.475 -0.97 4.475 -4 7 C-4.33 5.35 -4.66 3.7 -5 2 C-3.35 1.34 -1.7 0.68 0 0 Z " fill="#091221" transform="translate(262,224)"/>
<path d="M0 0 C0.66 0.66 1.32 1.32 2 2 C1.625 4.125 1.625 4.125 1 6 C-1.31 6.33 -3.62 6.66 -6 7 C-4.02 4.69 -2.04 2.38 0 0 Z " fill="#071020" transform="translate(164,192)"/>
<path d="M0 0 C3.63 0 7.26 0 11 0 C10.67 0.99 10.34 1.98 10 3 C8.5199159 2.88637738 7.04089926 2.75877092 5.5625 2.625 C4.73878906 2.55539063 3.91507812 2.48578125 3.06640625 2.4140625 C2.38449219 2.27742187 1.70257813 2.14078125 1 2 C0.67 1.34 0.34 0.68 0 0 Z " fill="#528ADE" transform="translate(271,173)"/>
<path d="M0 0 C3.2910841 3.60957611 4.54663921 6.12637153 5 11 C1.87729874 8.48169253 1.05476902 7.2738451 0.25 3.25 C0.1675 2.1775 0.085 1.105 0 0 Z " fill="#0B1429" transform="translate(173,167)"/>
<path d="M0 0 C2.29013653 3.4352048 2.17842973 4.985331 2 9 C0.35 9.66 -1.3 10.32 -3 11 C-3 10.34 -3 9.68 -3 9 C-2.34 9 -1.68 9 -1 9 C-0.67 6.03 -0.34 3.06 0 0 Z " fill="#5D9DFB" transform="translate(204,141)"/>
<path d="M0 0 C4.50884026 2.31883213 6.93906776 5.06451569 10 9 C6.22089522 9 5.53893899 8.00296038 2.8125 5.5 C2.09707031 4.8503125 1.38164062 4.200625 0.64453125 3.53125 C0.10183594 3.0259375 -0.44085938 2.520625 -1 2 C-0.67 1.34 -0.34 0.68 0 0 Z " fill="#629AE6" transform="translate(182,107)"/>
<path d="M0 0 C2 0 2 0 4.125 1.875 C6 4 6 4 6 6 C4.68 6.33 3.36 6.66 2 7 C0.5393715 4.35261084 0 3.10551666 0 0 Z " fill="#4C91FC" transform="translate(242,48)"/>
<path d="M0 0 C0.66 0 1.32 0 2 0 C2.125 3.375 2.125 3.375 2 7 C1.34 7.66 0.68 8.32 0 9 C-0.66 8.67 -1.32 8.34 -2 8 C-1.34 5.36 -0.68 2.72 0 0 Z " fill="#4A8CE5" transform="translate(283,272)"/>
<path d="M0 0 C2.125 0.375 2.125 0.375 4 1 C4 1.66 4 2.32 4 3 C2.68 3.33 1.36 3.66 0 4 C0 4.66 0 5.32 0 6 C-0.66 5.67 -1.32 5.34 -2 5 C-2 2 -2 2 0 0 Z " fill="#4488E1" transform="translate(224,267)"/>
<path d="M0 0 C1.65 0 3.3 0 5 0 C5.33 0.99 5.66 1.98 6 3 C4.02 3.99 2.04 4.98 0 6 C-0.99 5.34 -1.98 4.68 -3 4 C-2.01 3.34 -1.02 2.68 0 2 C0 1.34 0 0.68 0 0 Z " fill="#4F8BE0" transform="translate(217,249)"/>
<path d="M0 0 C1.98 0 3.96 0 6 0 C6.66 1.65 7.32 3.3 8 5 C4.62496331 3.8141763 2.35277269 2.72426311 0 0 Z " fill="#080D1C" transform="translate(223,229)"/>
<path d="M0 0 C1.32 1.32 2.64 2.64 4 4 C3.67 4.99 3.34 5.98 3 7 C2.01 6.67 1.02 6.34 0 6 C-0.38218767 4.34385343 -0.71395102 2.67542976 -1 1 C-0.67 0.67 -0.34 0.34 0 0 Z " fill="#4581D3" transform="translate(253,196)"/>
<path d="M0 0 C0.99 0.33 1.98 0.66 3 1 C2.49396008 3.16874252 2.00016187 4.99967627 1 7 C0.34 7 -0.32 7 -1 7 C-0.67 5.68 -0.34 4.36 0 3 C-0.99 2.67 -1.98 2.34 -3 2 C-2.01 1.34 -1.02 0.68 0 0 Z " fill="#5096FD" transform="translate(77,177)"/>
<path d="M0 0 C2.64 0.99 5.28 1.98 8 3 C5 5 5 5 1.8125 4.625 C0.884375 4.41875 -0.04375 4.2125 -1 4 C-0.67 2.68 -0.34 1.36 0 0 Z " fill="#4887DE" transform="translate(199,67)"/>
<path d="M0 0 C0.99 0.33 1.98 0.66 3 1 C-1.75 5.875 -1.75 5.875 -4 7 C-4 6.34 -4 5.68 -4 5 C-4.66 4.67 -5.32 4.34 -6 4 C-5.195625 3.525625 -4.39125 3.05125 -3.5625 2.5625 C-1.15246512 1.23099846 -1.15246512 1.23099846 0 0 Z " fill="#050A12" transform="translate(65,62)"/>
<path d="M0 0 C1.134375 0.020625 2.26875 0.04125 3.4375 0.0625 C3.7675 0.7225 4.0975 1.3825 4.4375 2.0625 C2.7875 2.0625 1.1375 2.0625 -0.5625 2.0625 C-0.5625 2.7225 -0.5625 3.3825 -0.5625 4.0625 C-1.2225 4.0625 -1.8825 4.0625 -2.5625 4.0625 C-2.5625 3.4025 -2.5625 2.7425 -2.5625 2.0625 C-3.2225 1.7325 -3.8825 1.4025 -4.5625 1.0625 C-3.5625 0.0625 -3.5625 0.0625 0 0 Z " fill="#458AE4" transform="translate(92.5625,289.9375)"/>
<path d="M0 0 C4.51478398 0.53115106 7.34666857 2.36620292 11 5 C10.01 5.66 9.02 6.32 8 7 C8 6.34 8 5.68 8 5 C6.68 4.67 5.36 4.34 4 4 C4 3.34 4 2.68 4 2 C2.68 1.67 1.36 1.34 0 1 C0 0.67 0 0.34 0 0 Z " fill="#3E86E7" transform="translate(248,262)"/>
<path d="M0 0 C0.928125 0.2784375 0.928125 0.2784375 1.875 0.5625 C4.04160178 1.23686176 4.04160178 1.23686176 6 0 C5.67 2.31 5.34 4.62 5 7 C2.47411298 4.63707344 1.11179163 3.33537489 0 0 Z " fill="#070E23" transform="translate(216,221)"/>
<path d="M0 0 C0.99 0.33 1.98 0.66 3 1 C0.25 5.875 0.25 5.875 -2 7 C-2.125 4.625 -2.125 4.625 -2 2 C-1.34 1.34 -0.68 0.68 0 0 Z " fill="#080B1C" transform="translate(173,196)"/>
<path d="M0 0 C0.33 0.66 0.66 1.32 1 2 C-3.75 6.875 -3.75 6.875 -6 8 C-4.73058503 4.08597051 -3.48832306 2.20927127 0 0 Z " fill="#0A1B37" transform="translate(131,162)"/>
<path d="M0 0 C-0.75 2.9375 -0.75 2.9375 -2 6 C-4.125 6.875 -4.125 6.875 -6 7 C-5.6875 4.625 -5.6875 4.625 -5 2 C-2 0 -2 0 0 0 Z " fill="#080D1B" transform="translate(137,159)"/>
<path d="M0 0 C0.99 0.33 1.98 0.66 3 1 C2.42655063 3.86724686 2.1385485 4.8614515 0 7 C0 6.34 0 5.68 0 5 C-0.66 5 -1.32 5 -2 5 C-1.34 3.35 -0.68 1.7 0 0 Z " fill="#4884D6" transform="translate(52,94)"/>
<path d="M0 0 C2.31 1.98 4.62 3.96 7 6 C5.68 6.33 4.36 6.66 3 7 C0.64046906 4.64046906 0.50858587 3.22104383 0 0 Z " fill="#071020" transform="translate(251,64)"/>
<path d="M0 0 C0.99 0.33 1.98 0.66 3 1 C3 1.66 3 2.32 3 3 C2.2575 3.268125 1.515 3.53625 0.75 3.8125 C-1.86636554 4.94229421 -3.80187111 6.20893202 -6 8 C-4.55746343 4.63408134 -2.66735273 2.48952921 0 0 Z " fill="#6EAAF7" transform="translate(222,55)"/>
<path d="M0 0 C2.64 0 5.28 0 8 0 C6 3 6 3 3 4 C2.01 3.34 1.02 2.68 0 2 C0 1.34 0 0.68 0 0 Z " fill="#4493F9" transform="translate(198,48)"/>
<path d="M0 0 C0.33 1.65 0.66 3.3 1 5 C-0.98 5.99 -0.98 5.99 -3 7 C-3.33 5.02 -3.66 3.04 -4 1 C-2 0 -2 0 0 0 Z " fill="#4584D7" transform="translate(234,193)"/>
<path d="M0 0 C0.99 0 1.98 0 3 0 C3 1.65 3 3.3 3 5 C4.32 5.33 5.64 5.66 7 6 C5.02 6.99 5.02 6.99 3 8 C0 2.25 0 2.25 0 0 Z " fill="#4B8CEC" transform="translate(265,168)"/>
<path d="M0 0 C0.625 1.875 0.625 1.875 1 4 C0.34 4.66 -0.32 5.32 -1 6 C-0.01 7.485 -0.01 7.485 1 9 C-0.32 9 -1.64 9 -3 9 C-2.5020163 5.26512223 -2.12508244 3.18762365 0 0 Z " fill="#579DFC" transform="translate(214,63)"/>
<path d="M0 0 C4.75 0.75 4.75 0.75 7 3 C6.34 3 5.68 3 5 3 C5.33 4.32 5.66 5.64 6 7 C1.125 2.25 1.125 2.25 0 0 Z " fill="#0B1223" transform="translate(76,265)"/>
<path d="M0 0 C1.65 0 3.3 0 5 0 C4.01 1.98 3.02 3.96 2 6 C1.34 5.34 0.68 4.68 0 4 C0 2.68 0 1.36 0 0 Z " fill="#4C88DE" transform="translate(252,213)"/>
<path d="M0 0 C0.33 0 0.66 0 1 0 C1 2.31 1 4.62 1 7 C0.01 7 -0.98 7 -2 7 C-1.125 1.125 -1.125 1.125 0 0 Z " fill="#4A90FA" transform="translate(119,176)"/>
<path d="M0 0 C0.99 0.33 1.98 0.66 3 1 C3 3 3 3 1.5625 4.5 C1.046875 4.995 0.53125 5.49 0 6 C-0.33 6.66 -0.66 7.32 -1 8 C-1.66 8 -2.32 8 -3 8 C-1.125 2.25 -1.125 2.25 0 0 Z " fill="#4C8BE1" transform="translate(115,130)"/>
<path d="M0 0 C3 1 3 1 6 3 C5.67 3.66 5.34 4.32 5 5 C3.35 5 1.7 5 0 5 C0 3.35 0 1.7 0 0 Z " fill="#5097FD" transform="translate(160,115)"/>
<path d="M0 0 C0.66 0.33 1.32 0.66 2 1 C0.8803014 2.00593243 -0.2459412 3.0045849 -1.375 4 C-2.00148438 4.556875 -2.62796875 5.11375 -3.2734375 5.6875 C-5 7 -5 7 -7 7 C-7 6.34 -7 5.68 -7 5 C-5.46875 3.7109375 -5.46875 3.7109375 -3.5 2.375 C-2.8503125 1.92898437 -2.200625 1.48296875 -1.53125 1.0234375 C-1.0259375 0.68570313 -0.520625 0.34796875 0 0 Z " fill="#629EEA" transform="translate(120,105)"/>
<path d="M0 0 C0.99 1.32 1.98 2.64 3 4 C3.66 3.67 4.32 3.34 5 3 C5.33 3.99 5.66 4.98 6 6 C4.35 6.66 2.7 7.32 1 8 C0.67 5.36 0.34 2.72 0 0 Z " fill="#4A8BE8" transform="translate(227,95)"/>
<path d="M0 0 C1.32 0.99 2.64 1.98 4 3 C3.67 4.65 3.34 6.3 3 8 C2.67 7.34 2.34 6.68 2 6 C1.34 5.67 0.68 5.34 0 5 C0 3.35 0 1.7 0 0 Z " fill="#0D1527" transform="translate(66,90)"/>
<path d="M0 0 C0.66 0.33 1.32 0.66 2 1 C1.67 2.32 1.34 3.64 1 5 C-0.98 5.33 -2.96 5.66 -5 6 C-3.35 4.02 -1.7 2.04 0 0 Z " fill="#4D82CE" transform="translate(61,69)"/>
<path d="M0 0 C1.98 1.65 3.96 3.3 6 5 C4.02 5.99 4.02 5.99 2 7 C1.34 4.69 0.68 2.38 0 0 Z " fill="#040E1D" transform="translate(244,57)"/>
<path d="M0 0 C2.31 0 4.62 0 7 0 C6.34 1.32 5.68 2.64 5 4 C4.34 4 3.68 4 3 4 C3 3.34 3 2.68 3 2 C2.01 2 1.02 2 0 2 C0 1.34 0 0.68 0 0 Z " fill="#4987DE" transform="translate(21,290)"/>
<path d="M0 0 C0.33 0 0.66 0 1 0 C1.36923077 5.53846154 1.36923077 5.53846154 -0.5 7.875 C-1.2425 8.431875 -1.2425 8.431875 -2 9 C-1.125 1.125 -1.125 1.125 0 0 Z " fill="#4182D2" transform="translate(100,276)"/>
<path d="M0 0 C0.33 0.66 0.66 1.32 1 2 C1.66 2.33 2.32 2.66 3 3 C1.02253397 3.73080266 -0.98072489 4.39421747 -3 5 C-3.66 4.67 -4.32 4.34 -5 4 C-3.35 2.68 -1.7 1.36 0 0 Z " fill="#0C1629" transform="translate(125,232)"/>
<path d="M0 0 C-1.65 1.32 -3.3 2.64 -5 4 C-6.32 3.01 -7.64 2.02 -9 1 C-5.57367167 -0.61798838 -3.61944899 -1.34053666 0 0 Z " fill="#0E1F39" transform="translate(140,227)"/>
<path d="M0 0 C0.33 0.66 0.66 1.32 1 2 C1.66 2 2.32 2 3 2 C3 2.99 3 3.98 3 5 C3.66 5.33 4.32 5.66 5 6 C3.35 6.66 1.7 7.32 0 8 C0.2784375 7.13375 0.2784375 7.13375 0.5625 6.25 C1.04023546 3.79307475 0.75729364 2.35602466 0 0 Z " fill="#448AE7" transform="translate(32,224)"/>
<path d="M0 0 C2.64 0.66 5.28 1.32 8 2 C7.34 2.66 6.68 3.32 6 4 C4.68 4 3.36 4 2 4 C1.34 2.68 0.68 1.36 0 0 Z " fill="#4C8DE9" transform="translate(128,207)"/>
<path d="M0 0 C3.875 4.75 3.875 4.75 5 7 C3.35 6.67 1.7 6.34 0 6 C-1.125 2.25 -1.125 2.25 0 0 Z " fill="#5385D8" transform="translate(123,196)"/>
<path d="M0 0 C1.5 1.375 1.5 1.375 3 3 C3 3.66 3 4.32 3 5 C3.66 5.33 4.32 5.66 5 6 C4.01 6 3.02 6 2 6 C-0.1875 3.5 -0.1875 3.5 -2 1 C-1.34 0.67 -0.68 0.34 0 0 Z " fill="#568EE3" transform="translate(78,183)"/>
<path d="M0 0 C-6.93 -0.495 -6.93 -0.495 -14 -1 C-14 -1.33 -14 -1.66 -14 -2 C-12.41986783 -2.25028811 -10.83557694 -2.47440946 -9.25 -2.6875 C-8.36828125 -2.81511719 -7.4865625 -2.94273437 -6.578125 -3.07421875 C-4 -3 -4 -3 0 0 Z " fill="#4776C0" transform="translate(68,180)"/>
<path d="M0 0 C2.475 0.495 2.475 0.495 5 1 C4.34 3.31 3.68 5.62 3 8 C1.58622659 5.36095629 0.62759865 2.92879371 0 0 Z " fill="#080F22" transform="translate(239,112)"/>
<path d="M0 0 C0.66 0.66 1.32 1.32 2 2 C1.360625 2.268125 0.72125 2.53625 0.0625 2.8125 C-2.33131686 3.88667752 -2.33131686 3.88667752 -3 7 C-3 6.01 -3 5.02 -3 4 C-3.66 3.67 -4.32 3.34 -5 3 C-3.35 2.01 -1.7 1.02 0 0 Z " fill="#070D1F" transform="translate(247,91)"/>
<path d="M0 0 C1.32 0.33 2.64 0.66 4 1 C3.34 2.32 2.68 3.64 2 5 C0.68 4.34 -0.64 3.68 -2 3 C-1.34 2.01 -0.68 1.02 0 0 Z " fill="#4F94DE" transform="translate(202,50)"/>
<path d="M0 0 C0 2.64 0 5.28 0 8 C-0.66 7.67 -1.32 7.34 -2 7 C-2.625 3.9375 -2.625 3.9375 -3 1 C-1 0 -1 0 0 0 Z " fill="#3D7FDF" transform="translate(166,31)"/>
</svg>
