<?xml version="1.0" encoding="UTF-8"?>
<svg version="1.1" xmlns="http://www.w3.org/2000/svg" width="240" height="240">
<path d="M0 0 C79.2 0 158.4 0 240 0 C240 79.2 240 158.4 240 240 C160.8 240 81.6 240 0 240 C0 160.8 0 81.6 0 0 Z " fill="#F9E021" transform="translate(0,0)"/>
<path d="M0 0 C9.69460025 5.215247 9.69460025 5.215247 11.08203125 9.4609375 C11.17613281 10.0590625 11.27023438 10.6571875 11.3671875 11.2734375 C12.0271875 11.2734375 12.6871875 11.2734375 13.3671875 11.2734375 C16.52674239 16.8872895 17.51103676 21.42500196 16.98852539 27.7578125 C16.29564145 34.81120001 16.29564145 34.81120001 18.64160156 41.29345703 C21.36951744 44.43811527 24.40101898 47.0484521 27.62109375 49.671875 C28.52730469 50.53039062 29.43351562 51.38890625 30.3671875 52.2734375 C30.08693078 55.61618022 29.29848966 56.34045978 26.8046875 58.7734375 C23.90178741 61.16883435 23.90178741 61.16883435 24.3671875 65.2734375 C28.20784771 69.26023539 28.20784771 69.26023539 33.3671875 70.2734375 C35.05535683 68.62855456 36.72072065 66.96006208 38.3671875 65.2734375 C39.67948766 64.56626671 41.00999462 63.8900814 42.3671875 63.2734375 C42.72167969 63.70011719 43.07617188 64.12679687 43.44140625 64.56640625 C45.37667161 66.83905444 47.37466297 69.05075337 49.3671875 71.2734375 C49.82319336 71.81419922 50.27919922 72.35496094 50.74902344 72.91210938 C57.12732078 80.77145692 57.12732078 80.77145692 65.8984375 85.1171875 C68.24136775 85.17938919 70.58651538 85.18511545 72.9296875 85.1328125 C79.86169838 85.41639476 86.7840436 89.10472895 91.4921875 94.2109375 C96.0860428 101.71423448 96.30020327 109.62094388 95.3671875 118.2734375 C93.214707 125.09129433 88.30001294 130.40047189 82.3671875 134.2734375 C75.20840053 137.24800272 65.65025313 137.93355765 58.3046875 135.0859375 C52.61495089 131.57524895 47.05115958 125.87235542 44.69921875 119.44921875 C44.3671875 117.2734375 44.3671875 117.2734375 44.61328125 114.3828125 C44.99905792 107.61203822 44.28266494 103.9093512 39.8125 98.83203125 C33.22887403 91.73323408 33.22887403 91.73323408 25.3671875 86.2734375 C25.4496875 87.4903125 25.5321875 88.7071875 25.6171875 89.9609375 C25.59581678 93.00626554 25.44903897 94.1336079 23.8671875 96.8359375 C21.09233879 99.54141499 18.19868831 102.06466744 15.25 104.578125 C12.99652012 106.60719195 11.24339615 108.89690654 9.3671875 111.2734375 C7.38458324 112.96076027 5.3839533 114.62709807 3.3671875 116.2734375 C0.67997774 118.82956386 -1.73029714 121.3934186 -4.0703125 124.2734375 C-6.70032482 127.35247631 -9.4953159 129.72422151 -12.6328125 132.2734375 C-13.4165625 133.2221875 -14.2003125 134.1709375 -15.0078125 135.1484375 C-17.6328125 137.2734375 -17.6328125 137.2734375 -21.3203125 137.5859375 C-28.97785575 136.08930191 -35.18979165 129.31138892 -39.6328125 123.2734375 C-41.79974885 119.54816253 -42.06909262 116.97413689 -41.46511841 112.74685669 C-39.73588996 107.60799274 -35.63919439 104.14646558 -31.84765625 100.42578125 C-30.95800674 99.52847794 -30.06835724 98.63117462 -29.15174866 97.7066803 C-27.27011708 95.81961598 -25.38255876 93.94266436 -23.47973633 92.07739258 C-21.05004018 89.69334749 -18.65814058 87.27506758 -16.27525997 84.84433651 C-13.98548105 82.51860351 -11.66533068 80.22366531 -9.34765625 77.92578125 C-8.06905983 76.62289406 -8.06905983 76.62289406 -6.76463318 75.29368591 C-0.01847483 68.75574772 -0.01847483 68.75574772 4.97436523 68.73266602 C6.65381226 69.0003479 6.65381226 69.0003479 8.3671875 69.2734375 C7.26437623 68.00142779 6.15987981 66.73087897 5.0546875 65.4609375 C4.43980469 64.75324219 3.82492188 64.04554687 3.19140625 63.31640625 C2.58941406 62.64222656 1.98742187 61.96804687 1.3671875 61.2734375 C0.91456543 60.73944336 0.46194336 60.20544922 -0.00439453 59.65527344 C-2.86173471 57.23060396 -6.63672782 58.15567826 -10.1953125 58.3359375 C-18.89711783 58.55324455 -25.45377052 57.69265366 -32.3828125 52.0234375 C-33.1253125 51.1159375 -33.8678125 50.2084375 -34.6328125 49.2734375 C-35.14714844 48.65082031 -35.66148438 48.02820313 -36.19140625 47.38671875 C-41.28968449 40.96802312 -42.96577858 35.65309105 -42.7578125 27.3984375 C-42.74878906 26.71007812 -42.73976562 26.02171875 -42.73046875 25.3125 C-42.70713763 23.63265912 -42.67127576 21.95300004 -42.6328125 20.2734375 C-41.3128125 20.2734375 -39.9928125 20.2734375 -38.6328125 20.2734375 C-37.40216859 21.67038465 -36.1816742 23.07973374 -35.05078125 24.55859375 C-33.06219644 26.96352139 -30.73433227 28.83663678 -28.33984375 30.82421875 C-25.96539358 32.84005631 -23.80274871 35.04150311 -21.6328125 37.2734375 C-18.77487934 40.13137066 -16.48615666 39.68143691 -12.5078125 39.8984375 C-11.22648437 39.97320312 -9.94515625 40.04796875 -8.625 40.125 C-7.63757813 40.17398438 -6.65015625 40.22296875 -5.6328125 40.2734375 C-5.3028125 39.2834375 -4.9728125 38.2934375 -4.6328125 37.2734375 C-3.6428125 37.2734375 -2.6528125 37.2734375 -1.6328125 37.2734375 C-0.42464217 27.31305785 -0.42464217 27.31305785 -2.9921875 18.0078125 C-4.87982912 16.41096395 -4.87982912 16.41096395 -7.0546875 15.01953125 C-10.46628213 12.70895125 -13.23046591 9.93310454 -16.1328125 7.0234375 C-16.67325195 6.50289795 -17.21369141 5.9823584 -17.77050781 5.44604492 C-19.11854526 4.11382849 -20.38300723 2.69821551 -21.6328125 1.2734375 C-21.6328125 0.2834375 -21.6328125 -0.7065625 -21.6328125 -1.7265625 C-14.29047513 -4.17400829 -6.95344953 -3.13238461 0 0 Z " fill="#060501" transform="translate(93.6328125,52.7265625)"/>
<path d="M0 0 C2.98670415 1.17896216 4.49158177 2.32969014 6.375 4.9375 C6.4938998 9.21789262 3.98107602 12.34810346 1.71875 15.80078125 C-0.32957932 19.05786305 -1.95486876 22.4735241 -3.625 25.9375 C-4.285 25.9375 -4.945 25.9375 -5.625 25.9375 C-5.625 26.700625 -5.625 27.46375 -5.625 28.25 C-6.625 30.9375 -6.625 30.9375 -8.26171875 31.8671875 C-11.24474181 32.96948555 -14.23250883 33.84630946 -17.33081055 34.56616211 C-21.73988415 36.40161504 -24.34672575 39.15787445 -27.6328125 42.5546875 C-28.60466995 43.53503464 -28.60466995 43.53503464 -29.59616089 44.53518677 C-31.65705989 46.61838657 -33.7036085 48.71505707 -35.75 50.8125 C-37.13318331 52.2157623 -38.51728889 53.61811618 -39.90234375 55.01953125 C-42.44472727 57.59451583 -44.98174373 60.17453172 -47.51220703 62.76123047 C-48.32362152 63.58696564 -48.32362152 63.58696564 -49.15142822 64.42938232 C-50.42207239 65.72981503 -51.677167 67.04540799 -52.92919922 68.36376953 C-54.625 69.9375 -54.625 69.9375 -56.5 70 C-59.64173506 68.42913247 -61.99726396 66.26662967 -64.625 63.9375 C-64.54593104 61.24915521 -64.17305954 59.48866469 -62.24609375 57.55078125 C-61.05560733 56.57868384 -59.85609043 55.61756665 -58.64892578 54.66625977 C-56.70371456 53.00473496 -55.13506848 51.31055555 -53.49609375 49.3515625 C-49.18963712 44.34935043 -44.51335507 39.75358981 -39.8125 35.125 C-38.11617754 33.45416699 -36.42206127 31.7810903 -34.73046875 30.10546875 C-33.98949951 29.37610107 -33.24853027 28.6467334 -32.48510742 27.89526367 C-29.39644627 24.64444679 -28.28729324 22.0801128 -27.5 17.75 C-27.33242187 16.84894531 -27.16484375 15.94789062 -26.9921875 15.01953125 C-26.87101562 14.33246094 -26.74984375 13.64539063 -26.625 12.9375 C-25.965 12.9375 -25.305 12.9375 -24.625 12.9375 C-24.625 12.2775 -24.625 11.6175 -24.625 10.9375 C-12.7109375 4.98046875 -12.7109375 4.98046875 -10.60986328 3.93530273 C-8.81805444 3.03454963 -7.04084452 2.10489735 -5.265625 1.171875 C-2.625 -0.0625 -2.625 -0.0625 0 0 Z " fill="#FDF4B3" transform="translate(181.625,54.0625)"/>
<path d="M0 0 C1.27875 0.0825 2.5575 0.165 3.875 0.25 C7.89698062 2.50230915 8.06201595 4.11934276 9.4375 8.4375 C10.32677896 11.76764507 11 14.55435063 11 18 C9.625 19.6875 9.625 19.6875 8 21 C7.34 21 6.68 21 6 21 C5.7525 21.5775 5.505 22.155 5.25 22.75 C3.75446671 25.44195992 2.47486073 27.14385446 0 29 C-2.6875 28.875 -2.6875 28.875 -6 28 C-6.7528125 27.91878906 -7.505625 27.83757812 -8.28125 27.75390625 C-14.24947595 26.96912329 -14.24947595 26.96912329 -16.20703125 24.44140625 C-18.33062383 19.24226578 -18.66969177 13.55829018 -19 8 C-18.01 7.67 -17.02 7.34 -16 7 C-15.31513275 5.67592331 -14.65129797 4.34090759 -14 3 C-10.35980455 -2.61196799 -5.80520346 -1.01971216 0 0 Z " fill="#F0D820" transform="translate(168,150)"/>
<path d="M0 0 C1 2 1 2 0.6875 4.5625 C1.24565073 10.70215799 4.87497442 15.11339192 9.40234375 19.1328125 C11.56362806 20.819502 13.74496803 22.44152235 16 24 C15.67 24.99 15.34 25.98 15 27 C13.02 27 11.04 27 9 27 C9.66 26.34 10.32 25.68 11 25 C8.69 24.67 6.38 24.34 4 24 C3.938125 23.071875 3.87625 22.14375 3.8125 21.1875 C3.33009348 17.80895162 3.33009348 17.80895162 0.44921875 16.30078125 C-0.35902344 15.87152344 -1.16726562 15.44226563 -2 15 C-1.85973717 12.68715544 -1.71264442 10.37472409 -1.5625 8.0625 C-1.48128906 6.77472656 -1.40007813 5.48695313 -1.31640625 4.16015625 C-1 1 -1 1 0 0 Z " fill="#F2DB1F" transform="translate(52,164)"/>
<path d="M0 0 C3.65564739 1.53436576 5.98698623 3.74982422 8.75 6.5625 C9.54921875 7.36816406 10.3484375 8.17382812 11.171875 9.00390625 C13 11 13 11 13 12 C8.75519536 12.33292585 6.64457375 12.43885872 3.0625 10 C2.381875 9.34 1.70125 8.68 1 8 C0.67 8.66 0.34 9.32 0 10 C-1.6415049 6.7169902 -0.51888624 3.57454967 0 0 Z " fill="#E6D020" transform="translate(119,139)"/>
<path d="M0 0 C1.32 0.66 2.64 1.32 4 2 C4.02691685 4.45840605 4.04679802 6.91651882 4.0625 9.375 C4.07087891 10.07367188 4.07925781 10.77234375 4.08789062 11.4921875 C4.11328125 16.7734375 4.11328125 16.7734375 3 19 C2.34 18.67 1.68 18.34 1 18 C1.66 16.68 2.32 15.36 3 14 C2.01 14.33 1.02 14.66 0 15 C0 14.34 0 13.68 0 13 C0.66 13 1.32 13 2 13 C1.67 12.34 1.34 11.68 1 11 C0.01 11.495 0.01 11.495 -1 12 C-0.67 8.04 -0.34 4.08 0 0 Z " fill="#E0CC1C" transform="translate(89,71)"/>
<path d="M0 0 C0.33 0 0.66 0 1 0 C1.02578125 0.68964844 1.0515625 1.37929687 1.078125 2.08984375 C1.44518812 8.17141229 2.42128929 12.81369992 5.2578125 18.22265625 C5.50273438 18.80917969 5.74765625 19.39570312 6 20 C5.67 20.66 5.34 21.32 5 22 C2.0625 20.75 2.0625 20.75 -1 19 C-1.875 16.8125 -1.875 16.8125 -2 15 C-1.34 15 -0.68 15 0 15 C0 10.05 0 5.1 0 0 Z " fill="#C5B31A" transform="translate(50,77)"/>
<path d="M0 0 C0.33 0.66 0.66 1.32 1 2 C0.0625 4.625 0.0625 4.625 -1 7 C-1.99 6.67 -2.98 6.34 -4 6 C-3.67 6.99 -3.34 7.98 -3 9 C-3.66 9 -4.32 9 -5 9 C-5 9.66 -5 10.32 -5 11 C-7.31 11.66 -9.62 12.32 -12 13 C-8.19524578 8.43969176 -4.25030379 4.14910608 0 0 Z " fill="#FAE437" transform="translate(150,100)"/>
<path d="M0 0 C0.99386719 0.00902344 1.98773438 0.01804688 3.01171875 0.02734375 C4.15060547 0.04474609 4.15060547 0.04474609 5.3125 0.0625 C5.3125 0.3925 5.3125 0.7225 5.3125 1.0625 C3.0025 1.3925 0.6925 1.7225 -1.6875 2.0625 C-1.0275 2.7225 -0.3675 3.3825 0.3125 4.0625 C-0.30625 4.18625 -0.925 4.31 -1.5625 4.4375 C-3.87870832 4.93447356 -3.87870832 4.93447356 -5.6875 7.0625 C-7.1875 5.75 -7.1875 5.75 -8.6875 4.0625 C-8.6875 3.0725 -8.6875 2.0825 -8.6875 1.0625 C-5.53819107 0.01273036 -3.29935544 -0.03881595 0 0 Z " fill="#362F07" transform="translate(80.6875,49.9375)"/>
<path d="M0 0 C0.33 0.66 0.66 1.32 1 2 C-0.98 2.33 -2.96 2.66 -5 3 C-5 3.66 -5 4.32 -5 5 C-8.33333333 6.33333333 -11.66666667 7.66666667 -15 9 C-14.02133662 7.85373678 -13.04205413 6.70800212 -12.0625 5.5625 C-11.51722656 4.92441406 -10.97195312 4.28632812 -10.41015625 3.62890625 C-7.3552593 0.10011947 -4.6411275 0.51568083 0 0 Z " fill="#332E08" transform="translate(102,121)"/>
<path d="M0 0 C1 2 1 2 0.9375 4.6875 C1.0097402 8.51623052 1.83738351 11.36682346 3 15 C1.35 15 -0.3 15 -2 15 C-1.85973717 12.68715544 -1.71264442 10.37472409 -1.5625 8.0625 C-1.48128906 6.77472656 -1.40007813 5.48695313 -1.31640625 4.16015625 C-1 1 -1 1 0 0 Z " fill="#D6C11C" transform="translate(52,164)"/>
<path d="M0 0 C1.0625 1.875 1.0625 1.875 2 4 C1.67 4.66 1.34 5.32 1 6 C0.34 6 -0.32 6 -1 6 C-1.33 6.99 -1.66 7.98 -2 9 C-3.98 9 -5.96 9 -8 9 C-7.38125 8.773125 -6.7625 8.54625 -6.125 8.3125 C-3.38589791 6.62070165 -2.94975528 5.00755839 -2 2 C-1.34 2 -0.68 2 0 2 C0 1.34 0 0.68 0 0 Z " fill="#FAE538" transform="translate(178,78)"/>
<path d="M0 0 C0 0.66 0 1.32 0 2 C-0.99 2 -1.98 2 -3 2 C-4.0260734 3.31337396 -5.02727325 4.64664105 -6 6 C-6.66 6 -7.32 6 -8 6 C-7.75 3.625 -7.75 3.625 -7 1 C-4.12732844 -1.10662581 -3.46720491 -1.15573497 0 0 Z " fill="#F8DF21" transform="translate(158,156)"/>
<path d="M0 0 C1.65 0 3.3 0 5 0 C7.42857143 6.28571429 7.42857143 6.28571429 6 10 C6 9.34 6 8.68 6 8 C5.34 8 4.68 8 4 8 C4 6.02 4 4.04 4 2 C2.68 2 1.36 2 0 2 C0 1.34 0 0.68 0 0 Z " fill="#D2BE1B" transform="translate(170,152)"/>
<path d="M0 0 C0.45375 0.639375 0.9075 1.27875 1.375 1.9375 C2.83921726 4.09702406 2.83921726 4.09702406 5 5 C4.67 5.66 4.34 6.32 4 7 C4.99 6.67 5.98 6.34 7 6 C6.34 7.32 5.68 8.64 5 10 C2.69 7.69 0.38 5.38 -2 3 C-1.34 2.67 -0.68 2.34 0 2 C0 1.34 0 0.68 0 0 Z " fill="#D8C31C" transform="translate(150,127)"/>
<path d="M0 0 C0.45375 0.639375 0.9075 1.27875 1.375 1.9375 C2.83921726 4.09702406 2.83921726 4.09702406 5 5 C4.67 5.66 4.34 6.32 4 7 C4.99 6.67 5.98 6.34 7 6 C6.34 7.32 5.68 8.64 5 10 C2.69 7.69 0.38 5.38 -2 3 C-1.34 2.67 -0.68 2.34 0 2 C0 1.34 0 0.68 0 0 Z " fill="#D8C21C" transform="translate(142,119)"/>
<path d="M0 0 C5.28 0.33 10.56 0.66 16 1 C16 1.33 16 1.66 16 2 C8.08 2.495 8.08 2.495 0 3 C0 2.01 0 1.02 0 0 Z " fill="#BEAB1A" transform="translate(152,188)"/>
<path d="M0 0 C0.99 0.33 1.98 0.66 3 1 C2.67 1.99 2.34 2.98 2 4 C1.34 4 0.68 4 0 4 C-0.33 4.99 -0.66 5.98 -1 7 C-2.32 6.67 -3.64 6.34 -5 6 C-3.35 4.02 -1.7 2.04 0 0 Z " fill="#D7C21C" transform="translate(85,180)"/>
<path d="M0 0 C0.33 0 0.66 0 1 0 C1.02714735 2.22909871 1.04646254 4.45829367 1.0625 6.6875 C1.07410156 7.92886719 1.08570313 9.17023438 1.09765625 10.44921875 C1.01478673 13.46235454 0.70839449 16.08275339 0 19 C-0.99 19 -1.98 19 -3 19 C-2.68289062 18.15179688 -2.36578125 17.30359375 -2.0390625 16.4296875 C-0.97128768 12.90522775 -0.59958921 9.79329043 -0.375 6.125 C-0.30023438 4.97257813 -0.22546875 3.82015625 -0.1484375 2.6328125 C-0.09945312 1.76398438 -0.05046875 0.89515625 0 0 Z " fill="#AF9E14" transform="translate(189,158)"/>
<path d="M0 0 C0.99 0.33 1.98 0.66 3 1 C2.67 1.99 2.34 2.98 2 4 C1.34 4 0.68 4 0 4 C-0.33 4.99 -0.66 5.98 -1 7 C-2.32 6.67 -3.64 6.34 -5 6 C-3.35 4.02 -1.7 2.04 0 0 Z " fill="#D7C21C" transform="translate(93,172)"/>
<path d="M0 0 C1 3 1 3 -0.1875 5.5625 C-2.04089755 8.05500015 -3.0620874 9.08190231 -6 10 C-6.99 9.67 -7.98 9.34 -9 9 C-8.195625 8.38125 -7.39125 7.7625 -6.5625 7.125 C-3.96125481 5.25835959 -3.96125481 5.25835959 -3 3 C-2.34 3 -1.68 3 -1 3 C-0.67 2.01 -0.34 1.02 0 0 Z " fill="#342E07" transform="translate(177,168)"/>
<path d="M0 0 C0.99 0.33 1.98 0.66 3 1 C2.67 1.99 2.34 2.98 2 4 C1.34 4 0.68 4 0 4 C-0.33 4.99 -0.66 5.98 -1 7 C-2.32 6.67 -3.64 6.34 -5 6 C-3.35 4.02 -1.7 2.04 0 0 Z " fill="#D7C21C" transform="translate(101,164)"/>
<path d="M0 0 C0.99 0.33 1.98 0.66 3 1 C2.67 1.99 2.34 2.98 2 4 C1.34 4 0.68 4 0 4 C-0.33 4.99 -0.66 5.98 -1 7 C-2.32 6.67 -3.64 6.34 -5 6 C-3.35 4.02 -1.7 2.04 0 0 Z " fill="#D7C21C" transform="translate(109,156)"/>
<path d="M0 0 C2.1875 -0.375 2.1875 -0.375 5 0 C6.99022836 1.83961648 8.38989899 3.79186148 10 6 C8.68 6.33 7.36 6.66 6 7 C6.33 6.01 6.66 5.02 7 4 C6.01 4.33 5.02 4.66 4 5 C4 4.34 4 3.68 4 3 C2.68 2.34 1.36 1.68 0 1 C0 0.67 0 0.34 0 0 Z " fill="#D5C21B" transform="translate(87,110)"/>
<path d="M0 0 C0.625 1.8125 0.625 1.8125 1 4 C-1 7 -1 7 -4.125 7.6875 C-5.07375 7.790625 -6.0225 7.89375 -7 8 C-6.02133662 6.85373678 -5.04205413 5.70800212 -4.0625 4.5625 C-3.51722656 3.92441406 -2.97195312 3.28632812 -2.41015625 2.62890625 C-1.63204305 1.73008851 -0.84063472 0.84063472 0 0 Z " fill="#F9E439" transform="translate(162,88)"/>
<path d="M0 0 C1.7074998 1.28062485 3.37373596 2.61767557 5 4 C5 4.66 5 5.32 5 6 C2.69 6 0.38 6 -2 6 C-1.34 5.67 -0.68 5.34 0 5 C0 4.34 0 3.68 0 3 C-0.66 2.67 -1.32 2.34 -2 2 C-1.34 2 -0.68 2 0 2 C0 1.34 0 0.68 0 0 Z " fill="#DFC91E" transform="translate(97,116)"/>
<path d="M0 0 C2.97 1.98 2.97 1.98 6 4 C5.67 4.99 5.34 5.98 5 7 C3.02 7 1.04 7 -1 7 C-0.01 6.01 0.98 5.02 2 4 C1.34 2.68 0.68 1.36 0 0 Z " fill="#DAC71B" transform="translate(62,184)"/>
<path d="M0 0 C1.125 3.75 1.125 3.75 0 6 C-1.98 6 -3.96 6 -6 6 C-4 4 -2 2 0 0 Z " fill="#CFBB1B" transform="translate(182,181)"/>
<path d="M0 0 C1.65 1.65 3.3 3.3 5 5 C1.71023192 6.09658936 0.28696233 5.79953138 -3 5 C-3 4.34 -3 3.68 -3 3 C-2.01 3 -1.02 3 0 3 C0 2.01 0 1.02 0 0 Z " fill="#D4C11D" transform="translate(140,176)"/>
<path d="M0 0 C-2 3 -2 3 -5 4 C-5.33 3.67 -5.66 3.34 -6 3 C-6.99 3 -7.98 3 -9 3 C-7 0 -7 0 -5.0625 -0.75 C-3 -1 -3 -1 0 0 Z " fill="#DFC91F" transform="translate(192,177)"/>
<path d="M0 0 C3.875 1.75 3.875 1.75 5 4 C3.35 4.33 1.7 4.66 0 5 C-0.5625 3.0625 -0.5625 3.0625 -1 1 C-0.67 0.67 -0.34 0.34 0 0 Z " fill="#282306" transform="translate(52,72)"/>
<path d="M0 0 C0.33 0.66 0.66 1.32 1 2 C-0.98 2.99 -0.98 2.99 -3 4 C-3 4.66 -3 5.32 -3 6 C-3.99 6.33 -4.98 6.66 -6 7 C-6.33 6.01 -6.66 5.02 -7 4 C-6.34 4 -5.68 4 -5 4 C-5 3.34 -5 2.68 -5 2 C-3.35 1.34 -1.7 0.68 0 0 Z " fill="#FDF3A1" transform="translate(162,63)"/>
</svg>
